<svg width="552" height="414" viewBox="0 0 552 414" fill="none" xmlns="http://www.w3.org/2000/svg">
<g filter="url(#filter0_d_959_134430)">
<mask id="path-1-outside-1_959_134430" maskUnits="userSpaceOnUse" x="85.6599" y="130.448" width="180.672" height="193.741" fill="black">
<rect fill="white" x="85.6599" y="130.448" width="180.672" height="193.741"/>
<path fill-rule="evenodd" clip-rule="evenodd" d="M188.974 162.909C192.843 164.011 195.087 168.041 193.985 171.911L180.014 220.958L187.02 222.953L196.999 187.919C198.101 184.05 202.131 181.806 206.001 182.909C209.871 184.011 212.114 188.041 211.012 191.911L201.033 226.945L201.035 226.945L194.958 248.28L214.868 240.812C219.521 239.067 224.631 241.233 226.63 245.797C228.706 250.536 226.703 256.185 222.101 258.563L177.641 281.548C177.331 281.708 177.02 281.854 176.708 281.986C168.064 287.941 156.927 290.133 146.044 287.034L139.037 285.038C119.689 279.527 108.472 259.374 113.983 240.026L120.042 218.753C120.051 218.72 120.06 218.688 120.069 218.655L129.948 183.972C131.05 180.103 135.081 177.859 138.95 178.961C142.82 180.064 145.064 184.094 143.961 187.964L137.974 208.983L144.981 210.979L156.956 168.939C158.058 165.069 162.088 162.826 165.958 163.928C169.828 165.03 172.071 169.061 170.969 172.931L158.995 214.971L166.001 216.966L179.971 167.919C181.074 164.05 185.104 161.806 188.974 162.909Z"/>
</mask>
<path d="M193.985 171.911L179.971 167.919L193.985 171.911ZM180.014 220.958L176.023 234.971L162.01 230.98L166.001 216.966L180.014 220.958ZM187.02 222.953L201.033 226.945L197.042 240.958L183.028 236.967L187.02 222.953ZM196.999 187.919L182.985 183.928L196.999 187.919ZM201.033 226.945L197.042 240.958L183.028 236.967L187.02 222.953L201.033 226.945ZM201.035 226.945L205.027 212.932L219.04 216.923L215.049 230.937L201.035 226.945ZM194.958 248.28L200.075 261.922L173.033 272.065L180.945 244.288L194.958 248.28ZM214.868 240.812L209.751 227.169L209.751 227.169L214.868 240.812ZM226.63 245.797L213.284 251.643L213.284 251.643L226.63 245.797ZM222.101 258.563L215.41 245.62L215.41 245.62L222.101 258.563ZM177.641 281.548L184.332 294.491L184.332 294.491L177.641 281.548ZM176.708 281.986L168.441 269.987L169.669 269.141L171.043 268.561L176.708 281.986ZM146.044 287.034L150.036 273.02L146.044 287.034ZM139.037 285.038L135.046 299.051L139.037 285.038ZM120.042 218.753L134.108 222.553L134.082 222.649L134.055 222.744L120.042 218.753ZM120.069 218.655L134.082 222.647L120.069 218.655ZM129.948 183.972L115.934 179.981L129.948 183.972ZM143.961 187.964L129.948 183.972L143.961 187.964ZM137.974 208.983L133.983 222.997L119.969 219.005L123.961 204.992L137.974 208.983ZM144.981 210.979L158.995 214.971L155.003 228.984L140.99 224.993L144.981 210.979ZM170.969 172.931L184.982 176.922L170.969 172.931ZM158.995 214.971L155.003 228.984L140.99 224.993L144.981 210.979L158.995 214.971ZM166.001 216.966L180.014 220.958L176.023 234.971L162.01 230.98L166.001 216.966ZM179.971 167.919L165.958 163.928L179.971 167.919ZM179.971 167.919C178.869 171.789 181.113 175.82 184.982 176.922L192.965 148.895C204.574 152.202 211.305 164.293 207.998 175.902L179.971 167.919ZM166.001 216.966L179.971 167.919L207.998 175.902L194.028 224.949L166.001 216.966ZM183.028 236.967L176.023 234.971L184.006 206.944L191.011 208.94L183.028 236.967ZM211.012 191.911L201.033 226.945L173.006 218.962L182.985 183.928L211.012 191.911ZM202.01 196.922C205.879 198.024 209.91 195.781 211.012 191.911L182.985 183.928C186.292 172.319 198.384 165.588 209.993 168.895L202.01 196.922ZM196.999 187.919C195.896 191.789 198.14 195.82 202.01 196.922L209.993 168.895C221.602 172.202 228.332 184.293 225.025 195.902L196.999 187.919ZM187.02 222.953L196.999 187.919L225.025 195.902L215.047 230.936L187.02 222.953ZM197.044 240.959L197.042 240.958L205.025 212.931L205.027 212.932L197.044 240.959ZM180.945 244.288L187.022 222.954L215.049 230.937L208.972 252.271L180.945 244.288ZM219.985 254.455L200.075 261.922L189.841 234.637L209.751 227.169L219.985 254.455ZM213.284 251.643C214.377 254.139 217.358 255.44 219.985 254.455L209.751 227.169C221.684 222.694 234.886 228.326 239.977 239.951L213.284 251.643ZM215.41 245.62C213.197 246.764 212.272 249.332 213.284 251.643L239.977 239.951C245.141 251.741 240.208 265.606 228.793 271.507L215.41 245.62ZM170.95 268.604L215.41 245.62L228.793 271.507L184.332 294.491L170.95 268.604ZM171.043 268.561C171.004 268.577 170.973 268.592 170.95 268.604L184.332 294.491C183.689 294.824 183.035 295.13 182.372 295.41L171.043 268.561ZM150.036 273.02C156.56 274.879 163.225 273.581 168.441 269.987L184.974 293.984C172.904 302.301 157.294 305.388 142.053 301.047L150.036 273.02ZM143.029 271.024L150.036 273.02L142.053 301.047L135.046 299.051L143.029 271.024ZM127.996 244.017C124.689 255.626 131.42 267.718 143.029 271.024L135.046 299.051C107.958 291.336 92.2537 263.122 99.9693 236.034L127.996 244.017ZM134.055 222.744L127.996 244.017L99.9693 236.034L106.028 214.761L134.055 222.744ZM134.082 222.647C134.091 222.616 134.1 222.585 134.108 222.553L105.975 214.952C106.002 214.856 106.028 214.76 106.055 214.664L134.082 222.647ZM143.961 187.964L134.082 222.647L106.055 214.664L115.934 179.981L143.961 187.964ZM134.959 192.975C138.829 194.077 142.859 191.833 143.961 187.964L115.934 179.981C119.241 168.372 131.333 161.641 142.942 164.948L134.959 192.975ZM129.948 183.972C128.846 187.842 131.089 191.872 134.959 192.975L142.942 164.948C154.551 168.255 161.281 180.346 157.975 191.955L129.948 183.972ZM123.961 204.992L129.948 183.972L157.975 191.955L151.988 212.975L123.961 204.992ZM140.99 224.993L133.983 222.997L141.966 194.97L148.973 196.966L140.99 224.993ZM170.969 172.931L158.995 214.971L130.968 206.988L142.942 164.948L170.969 172.931ZM161.967 177.941C165.836 179.044 169.867 176.8 170.969 172.931L142.942 164.948C146.249 153.338 158.341 146.608 169.95 149.915L161.967 177.941ZM156.956 168.939C155.853 172.809 158.097 176.839 161.967 177.941L169.95 149.915C181.559 153.221 188.289 165.313 184.982 176.922L156.956 168.939ZM144.981 210.979L156.956 168.939L184.982 176.922L173.008 218.962L144.981 210.979ZM162.01 230.98L155.003 228.984L162.986 200.957L169.993 202.953L162.01 230.98ZM193.985 171.911L180.014 220.958L151.988 212.975L165.958 163.928L193.985 171.911ZM184.982 176.922C188.852 178.024 192.882 175.781 193.985 171.911L165.958 163.928C169.265 152.319 181.356 145.588 192.965 148.895L184.982 176.922Z" fill="#FBE67F" mask="url(#path-1-outside-1_959_134430)"/>
</g>
<mask id="path-3-outside-2_959_134430" maskUnits="userSpaceOnUse" x="94.3097" y="139.097" width="163.373" height="176.441" fill="black">
<rect fill="white" x="94.3097" y="139.097" width="163.373" height="176.441"/>
<path fill-rule="evenodd" clip-rule="evenodd" d="M188.974 162.909C192.843 164.011 195.087 168.041 193.985 171.911L180.014 220.958L187.02 222.953L196.999 187.919C198.101 184.05 202.131 181.806 206.001 182.909C209.871 184.011 212.114 188.041 211.012 191.911L201.033 226.945L201.035 226.945L194.958 248.28L214.868 240.812C219.521 239.067 224.631 241.233 226.63 245.797C228.706 250.536 226.703 256.185 222.101 258.563L177.641 281.548C177.331 281.708 177.02 281.854 176.708 281.986C168.064 287.941 156.927 290.133 146.044 287.034L139.037 285.038C119.689 279.527 108.472 259.374 113.983 240.026L120.042 218.753C120.051 218.72 120.06 218.688 120.069 218.655L129.948 183.972C131.05 180.103 135.081 177.859 138.95 178.961C142.82 180.064 145.064 184.094 143.961 187.964L137.974 208.983L144.981 210.979L156.956 168.939C158.058 165.069 162.088 162.826 165.958 163.928C169.828 165.03 172.071 169.061 170.969 172.931L158.995 214.971L166.001 216.966L179.971 167.919C181.074 164.05 185.104 161.806 188.974 162.909Z"/>
</mask>
<path fill-rule="evenodd" clip-rule="evenodd" d="M188.974 162.909C192.843 164.011 195.087 168.041 193.985 171.911L180.014 220.958L187.02 222.953L196.999 187.919C198.101 184.05 202.131 181.806 206.001 182.909C209.871 184.011 212.114 188.041 211.012 191.911L201.033 226.945L201.035 226.945L194.958 248.28L214.868 240.812C219.521 239.067 224.631 241.233 226.63 245.797C228.706 250.536 226.703 256.185 222.101 258.563L177.641 281.548C177.331 281.708 177.02 281.854 176.708 281.986C168.064 287.941 156.927 290.133 146.044 287.034L139.037 285.038C119.689 279.527 108.472 259.374 113.983 240.026L120.042 218.753C120.051 218.72 120.06 218.688 120.069 218.655L129.948 183.972C131.05 180.103 135.081 177.859 138.95 178.961C142.82 180.064 145.064 184.094 143.961 187.964L137.974 208.983L144.981 210.979L156.956 168.939C158.058 165.069 162.088 162.826 165.958 163.928C169.828 165.03 172.071 169.061 170.969 172.931L158.995 214.971L166.001 216.966L179.971 167.919C181.074 164.05 185.104 161.806 188.974 162.909Z" fill="#FBE67F"/>
<path d="M193.985 171.911L186.978 169.915L193.985 171.911ZM180.014 220.958L178.019 227.965L171.012 225.969L173.008 218.962L180.014 220.958ZM187.02 222.953L194.027 224.949L192.031 231.956L185.024 229.96L187.02 222.953ZM196.999 187.919L189.992 185.924L196.999 187.919ZM201.033 226.945L199.037 233.951L192.031 231.956L194.027 224.949L201.033 226.945ZM201.035 226.945L203.031 219.939L210.038 221.934L208.042 228.941L201.035 226.945ZM194.958 248.28L197.517 255.101L183.996 260.172L187.952 246.284L194.958 248.28ZM214.868 240.812L212.309 233.991L212.309 233.991L214.868 240.812ZM226.63 245.797L219.957 248.72L219.957 248.72L226.63 245.797ZM222.101 258.563L218.756 252.092L218.756 252.092L222.101 258.563ZM177.641 281.548L180.987 288.02L180.987 288.02L177.641 281.548ZM176.708 281.986L172.574 275.986L173.188 275.563L173.875 275.273L176.708 281.986ZM146.044 287.034L148.04 280.027L146.044 287.034ZM139.037 285.038L137.042 292.045L139.037 285.038ZM120.042 218.753L127.075 220.653L127.062 220.701L127.049 220.749L120.042 218.753ZM120.069 218.655L127.076 220.651L120.069 218.655ZM129.948 183.972L122.941 181.976L129.948 183.972ZM143.961 187.964L136.955 185.968L143.961 187.964ZM137.974 208.983L135.978 215.99L128.972 213.994L130.967 206.988L137.974 208.983ZM144.981 210.979L151.988 212.975L149.992 219.982L142.985 217.986L144.981 210.979ZM170.969 172.931L177.976 174.926L170.969 172.931ZM158.995 214.971L156.999 221.977L149.992 219.982L151.988 212.975L158.995 214.971ZM166.001 216.966L173.008 218.962L171.012 225.969L164.005 223.973L166.001 216.966ZM179.971 167.919L172.965 165.924L179.971 167.919ZM186.978 169.915L186.978 169.915L190.97 155.902C198.709 158.106 203.196 166.167 200.991 173.907L186.978 169.915ZM173.008 218.962L186.978 169.915L200.991 173.907L187.021 222.954L173.008 218.962ZM185.024 229.96L178.019 227.965L182.01 213.951L189.016 215.947L185.024 229.96ZM204.005 189.915L194.027 224.949L180.013 220.958L189.992 185.924L204.005 189.915ZM204.005 189.915L204.005 189.915L189.992 185.924C192.196 178.184 200.257 173.697 207.997 175.902L204.005 189.915ZM204.005 189.915L204.005 189.915L207.997 175.902C215.736 178.106 220.223 186.167 218.019 193.907L204.005 189.915ZM194.027 224.949L204.005 189.915L218.019 193.907L208.04 228.941L194.027 224.949ZM199.039 233.952L199.037 233.951L203.029 219.938L203.031 219.939L199.039 233.952ZM187.952 246.284L194.028 224.95L208.042 228.941L201.965 250.275L187.952 246.284ZM217.426 247.634L197.517 255.101L192.4 241.458L212.309 233.991L217.426 247.634ZM219.957 248.72C219.504 247.686 218.439 247.254 217.426 247.634L212.309 233.991C220.602 230.88 229.759 234.78 233.304 242.874L219.957 248.72ZM218.756 252.092C219.95 251.474 220.489 249.934 219.957 248.72L233.304 242.874C236.924 251.139 233.455 260.895 225.447 265.035L218.756 252.092ZM174.295 275.076L218.756 252.092L225.447 265.035L180.987 288.02L174.295 275.076ZM173.875 275.273C174.012 275.216 174.152 275.15 174.295 275.076L180.987 288.02C180.51 288.266 180.028 288.492 179.54 288.698L173.875 275.273ZM148.04 280.027C156.744 282.506 165.645 280.761 172.574 275.986L180.841 287.985C170.484 295.121 157.11 297.761 144.048 294.04L148.04 280.027ZM141.033 278.031L148.04 280.027L144.048 294.04L137.042 292.045L141.033 278.031ZM120.989 242.021C116.58 257.5 125.554 273.622 141.033 278.031L137.042 292.045C113.823 285.431 100.363 261.248 106.976 238.03L120.989 242.021ZM127.049 220.749L120.989 242.021L106.976 238.03L113.035 216.757L127.049 220.749ZM127.076 220.651C127.075 220.652 127.075 220.653 127.075 220.653L113.009 216.853C113.026 216.788 113.044 216.724 113.062 216.66L127.076 220.651ZM136.955 185.968L127.076 220.651L113.062 216.66L122.941 181.976L136.955 185.968ZM136.955 185.968L136.955 185.968L122.941 181.976C125.146 174.237 133.207 169.75 140.946 171.955L136.955 185.968ZM136.955 185.968L136.955 185.968L140.946 171.955C148.685 174.159 153.172 182.22 150.968 189.959L136.955 185.968ZM130.967 206.988L136.955 185.968L150.968 189.959L144.981 210.979L130.967 206.988ZM142.985 217.986L135.978 215.99L139.97 201.977L146.977 203.972L142.985 217.986ZM163.962 170.935L151.988 212.975L137.974 208.983L149.949 166.943L163.962 170.935ZM163.962 170.935L163.962 170.935L149.949 166.943C152.153 159.204 160.215 154.717 167.954 156.921L163.962 170.935ZM163.962 170.935L163.962 170.935L167.954 156.921C175.693 159.126 180.18 167.187 177.976 174.926L163.962 170.935ZM151.988 212.975L163.962 170.935L177.976 174.926L166.001 216.966L151.988 212.975ZM164.005 223.973L156.999 221.977L160.99 207.964L167.997 209.96L164.005 223.973ZM186.978 169.915L173.008 218.962L158.994 214.971L172.965 165.924L186.978 169.915ZM186.978 169.915L186.978 169.915L172.965 165.924C175.169 158.184 183.23 153.697 190.97 155.902L186.978 169.915Z" fill="black" fill-opacity="0.8" mask="url(#path-3-outside-2_959_134430)"/>
<mask id="mask0_959_134430" style="mask-type:alpha" maskUnits="userSpaceOnUse" x="192" y="32" width="216" height="216">
<circle cx="299.702" cy="139.985" r="107.425" fill="#C4C4C4"/>
</mask>
<g mask="url(#mask0_959_134430)">
<path d="M251.027 50.9395L275.963 94.1286" stroke="black" stroke-width="8.31175" stroke-linecap="round"/>
<path d="M346.012 50.9395L321.076 94.1286" stroke="black" stroke-width="8.31175" stroke-linecap="round"/>
<path d="M216.148 90.0117L259.338 114.947" stroke="black" stroke-width="8.31175" stroke-linecap="round"/>
<path d="M380.891 90.2598L337.702 115.195" stroke="black" stroke-width="8.31175" stroke-linecap="round"/>
<path d="M298.52 36.2324L298.52 86.1029" stroke="black" stroke-width="8.31175" stroke-linecap="round"/>
</g>
<path d="M534.083 262.365L539.189 251.133L550.609 249.331C551.816 249.141 552.298 247.53 551.425 246.605L543.162 237.862L545.112 225.515C545.318 224.211 544.056 223.214 542.977 223.831L532.763 229.66L522.55 223.831C521.471 223.214 520.209 224.211 520.415 225.515L522.365 237.862L514.102 246.605C513.229 247.53 513.711 249.141 514.918 249.331L526.338 251.133L531.444 262.365C531.982 263.553 533.543 263.553 534.083 262.365Z" fill="#FBE67F"/>
<path d="M471.93 38.7228L477.037 27.4905L488.457 25.6887C489.664 25.4986 490.146 23.8869 489.273 22.9626L481.009 14.2194L482.959 1.87263C483.166 0.568172 481.904 -0.429047 480.825 0.18803L470.611 6.01772L460.398 0.18803C459.318 -0.429047 458.057 0.568172 458.263 1.87263L460.213 14.2194L451.95 22.9626C451.077 23.8869 451.559 25.4986 452.765 25.6887L464.185 27.4905L469.292 38.7228C469.829 39.9101 471.391 39.9101 471.93 38.7228Z" fill="#FBE67F"/>
<path d="M163.857 389.907L161.19 377.7L168.883 368.263C169.696 367.266 169.122 365.691 167.911 365.599L156.461 364.731L150.724 353.897C150.118 352.752 148.567 352.879 148.102 354.113L143.692 365.784L132.454 368.524C131.266 368.813 130.883 370.467 131.805 371.32L140.53 379.403L139.32 391.93C139.193 393.254 140.506 394.149 141.542 393.443L151.345 386.767L161.835 391.768C162.942 392.299 164.138 391.197 163.857 389.907Z" fill="#FBE67F"/>
<path d="M482.153 412.801L487.26 401.569L498.68 399.767C499.886 399.577 500.368 397.965 499.495 397.041L491.232 388.298L493.182 375.951C493.388 374.646 492.127 373.649 491.047 374.266L480.834 380.096L470.62 374.266C469.541 373.649 468.279 374.646 468.486 375.951L470.436 388.298L462.172 397.041C461.299 397.965 461.781 399.577 462.988 399.767L474.408 401.569L479.515 412.801C480.052 413.988 481.613 413.988 482.153 412.801Z" fill="#FBE67F"/>
<path d="M97.9159 84.8748L109.332 84.1126L116.464 94.0666C117.217 95.1183 118.73 94.7708 119.022 93.4787L121.79 81.2527L132.507 76.9329C133.639 76.4767 133.795 74.7789 132.769 74.0614L123.062 67.2682L122.555 54.6454C122.502 53.3109 121.085 52.6102 120.159 53.4585L111.391 61.4855L100.361 58.0027C99.1951 57.6349 98.1645 58.899 98.6178 60.1409L102.906 71.8966L96.5966 82.3668C95.9284 83.4712 96.7092 84.9554 97.9159 84.8748Z" fill="#FBE67F"/>
<path d="M496.889 148.502L489.93 138.541L493.46 126.485C493.834 125.212 492.725 124.03 491.586 124.486L480.803 128.805L471.547 121.468C470.57 120.693 469.2 121.5 469.232 122.836L469.529 135.467L460.277 142.987C459.299 143.781 459.563 145.463 460.721 145.831L471.687 149.32L475.224 161.304C475.598 162.571 477.13 162.801 477.814 161.695L484.296 151.219L495.733 151.105C496.94 151.096 497.625 149.555 496.889 148.502Z" fill="#FBE67F"/>
<path d="M20.4265 329.576L25.5332 318.344L36.9532 316.542C38.1597 316.352 38.6418 314.74 37.7687 313.816L29.5054 305.073L31.4555 292.726C31.6617 291.422 30.4001 290.424 29.3207 291.042L19.1072 296.871L8.8938 291.042C7.81441 290.424 6.55272 291.422 6.759 292.726L8.7091 305.073L0.445761 313.816C-0.427346 314.74 0.0547879 316.352 1.26131 316.542L12.6813 318.344L17.788 329.576C18.3253 330.764 19.8868 330.764 20.4265 329.576Z" fill="#FBE67F"/>
<g filter="url(#filter1_d_959_134430)">
<mask id="path-18-outside-3_959_134430" maskUnits="userSpaceOnUse" x="365.64" y="148.461" width="178.992" height="196.15" fill="black">
<rect fill="white" x="365.64" y="148.461" width="178.992" height="196.15"/>
<path fill-rule="evenodd" clip-rule="evenodd" d="M437.83 177.974C442.077 177.247 446.108 180.101 446.835 184.348L456.042 238.177L463.735 236.861L457.158 198.412C456.432 194.165 459.286 190.134 463.533 189.407C467.78 188.681 471.812 191.535 472.538 195.782L483.12 257.645L498.89 241.22C502.575 237.382 508.513 237.108 512.556 240.59C516.754 244.206 517.433 250.588 514.09 255.015L481.792 297.787C481.566 298.086 481.332 298.372 481.091 298.644C475.5 308.394 465.76 315.664 453.817 317.707L446.127 319.022C424.892 322.654 404.733 308.384 401.1 287.149L394.524 248.699L394.526 248.699L390.58 225.629C389.854 221.382 392.708 217.35 396.955 216.624C401.202 215.897 405.233 218.752 405.96 222.999L409.906 246.068L417.593 244.753L409.701 198.614C408.975 194.367 411.829 190.335 416.076 189.608C420.323 188.882 424.355 191.736 425.081 195.983L432.973 242.123L440.662 240.807L431.455 186.979C430.729 182.732 433.583 178.7 437.83 177.974Z"/>
</mask>
<path fill-rule="evenodd" clip-rule="evenodd" d="M437.83 177.974C442.077 177.247 446.108 180.101 446.835 184.348L456.042 238.177L463.735 236.861L457.158 198.412C456.432 194.165 459.286 190.134 463.533 189.407C467.78 188.681 471.812 191.535 472.538 195.782L483.12 257.645L498.89 241.22C502.575 237.382 508.513 237.108 512.556 240.59C516.754 244.206 517.433 250.588 514.09 255.015L481.792 297.787C481.566 298.086 481.332 298.372 481.091 298.644C475.5 308.394 465.76 315.664 453.817 317.707L446.127 319.022C424.892 322.654 404.733 308.384 401.1 287.149L394.524 248.699L394.526 248.699L390.58 225.629C389.854 221.382 392.708 217.35 396.955 216.624C401.202 215.897 405.233 218.752 405.96 222.999L409.906 246.068L417.593 244.753L409.701 198.614C408.975 194.367 411.829 190.335 416.076 189.608C420.323 188.882 424.355 191.736 425.081 195.983L432.973 242.123L440.662 240.807L431.455 186.979C430.729 182.732 433.583 178.7 437.83 177.974Z" fill="white"/>
<path d="M456.042 238.177L458.673 253.557L443.293 256.187L440.662 240.807L456.042 238.177ZM463.735 236.861L479.115 234.23L481.745 249.61L466.365 252.241L463.735 236.861ZM457.158 198.412L472.538 195.782L457.158 198.412ZM483.12 257.645L494.375 268.452L472.954 290.761L467.74 260.276L483.12 257.645ZM498.89 241.22L510.145 252.027L510.145 252.027L498.89 241.22ZM512.556 240.59L502.372 252.412L502.372 252.412L512.556 240.59ZM514.09 255.015L526.542 264.418L526.542 264.418L514.09 255.015ZM481.792 297.787L494.244 307.19L494.244 307.19L481.792 297.787ZM481.091 298.644L467.555 290.882L468.35 289.495L469.41 288.299L481.091 298.644ZM453.817 317.707L456.448 333.087L453.817 317.707ZM446.127 319.022L443.496 303.642L446.127 319.022ZM401.1 287.149L385.72 289.78L401.1 287.149ZM394.524 248.699L379.144 251.33L376.513 235.95L391.893 233.319L394.524 248.699ZM394.526 248.699L409.906 246.068L412.537 261.448L397.157 264.079L394.526 248.699ZM390.58 225.629L405.96 222.999L390.58 225.629ZM409.906 246.068L412.537 261.448L397.157 264.079L394.526 248.699L409.906 246.068ZM417.593 244.753L432.973 242.123L435.604 257.503L420.224 260.133L417.593 244.753ZM409.701 198.614L394.321 201.244L409.701 198.614ZM432.973 242.123L435.604 257.503L420.224 260.133L417.593 244.753L432.973 242.123ZM440.662 240.807L456.042 238.177L458.673 253.557L443.293 256.187L440.662 240.807ZM431.455 186.979C432.181 191.226 436.213 194.08 440.46 193.353L435.199 162.594C447.94 160.414 460.035 168.976 462.215 181.717L431.455 186.979ZM440.662 240.807L431.455 186.979L462.215 181.717L471.422 235.546L440.662 240.807ZM466.365 252.241L458.673 253.557L453.411 222.797L461.104 221.481L466.365 252.241ZM472.538 195.782L479.115 234.23L448.355 239.492L441.778 201.043L472.538 195.782ZM466.163 204.787C470.41 204.061 473.264 200.029 472.538 195.782L441.778 201.043C439.599 188.302 448.161 176.207 460.902 174.027L466.163 204.787ZM457.158 198.412C457.885 202.66 461.916 205.514 466.163 204.787L460.902 174.027C473.643 171.848 485.739 180.41 487.918 193.151L457.158 198.412ZM467.74 260.276L457.158 198.412L487.918 193.151L498.499 255.014L467.74 260.276ZM510.145 252.027L494.375 268.452L471.864 246.838L487.634 230.414L510.145 252.027ZM502.372 252.412C504.584 254.317 508.064 254.194 510.145 252.027L487.634 230.414C497.087 220.569 512.442 219.899 522.739 228.768L502.372 252.412ZM501.638 245.612C500.031 247.741 500.326 250.649 502.372 252.412L522.739 228.768C533.182 237.764 534.835 253.436 526.542 264.418L501.638 245.612ZM469.34 288.384L501.638 245.612L526.542 264.418L494.244 307.19L469.34 288.384ZM469.41 288.299C469.381 288.332 469.357 288.361 469.34 288.384L494.244 307.19C493.775 307.811 493.284 308.411 492.771 308.99L469.41 288.299ZM451.186 302.327C458.347 301.102 464.181 296.765 467.555 290.882L494.626 306.406C486.818 320.022 473.173 330.226 456.448 333.087L451.186 302.327ZM443.496 303.642L451.186 302.327L456.448 333.087L448.758 334.402L443.496 303.642ZM416.48 284.518C418.66 297.26 430.755 305.822 443.496 303.642L448.758 334.402C419.028 339.487 390.806 319.509 385.72 289.78L416.48 284.518ZM409.904 246.069L416.48 284.518L385.72 289.78L379.144 251.33L409.904 246.069ZM397.157 264.079L397.154 264.079L391.893 233.319L391.895 233.319L397.157 264.079ZM405.96 222.999L409.906 246.068L379.146 251.33L375.2 228.26L405.96 222.999ZM399.585 232.004C403.832 231.277 406.686 227.246 405.96 222.999L375.2 228.26C373.021 215.519 381.583 203.423 394.324 201.244L399.585 232.004ZM390.58 225.629C391.306 229.876 395.338 232.73 399.585 232.004L394.324 201.244C407.065 199.065 419.16 207.627 421.34 220.368L390.58 225.629ZM394.526 248.699L390.58 225.629L421.34 220.368L425.286 243.437L394.526 248.699ZM420.224 260.133L412.537 261.448L407.275 230.688L414.962 229.373L420.224 260.133ZM425.081 195.983L432.973 242.123L402.213 247.384L394.321 201.244L425.081 195.983ZM418.706 204.988C422.953 204.262 425.807 200.23 425.081 195.983L394.321 201.244C392.142 188.503 400.704 176.408 413.445 174.228L418.706 204.988ZM409.701 198.614C410.427 202.861 414.459 205.715 418.706 204.988L413.445 174.228C426.186 172.049 438.282 180.611 440.461 193.352L409.701 198.614ZM417.593 244.753L409.701 198.614L440.461 193.352L448.353 239.492L417.593 244.753ZM443.293 256.187L435.604 257.503L430.342 226.743L438.031 225.427L443.293 256.187ZM446.835 184.348L456.042 238.177L425.282 243.438L416.075 189.61L446.835 184.348ZM440.46 193.353C444.707 192.627 447.561 188.595 446.835 184.348L416.075 189.61C413.896 176.868 422.458 164.773 435.199 162.594L440.46 193.353Z" fill="white" mask="url(#path-18-outside-3_959_134430)"/>
</g>
<mask id="path-20-outside-4_959_134430" maskUnits="userSpaceOnUse" x="374.874" y="157.695" width="160.523" height="177.682" fill="black">
<rect fill="white" x="374.874" y="157.695" width="160.523" height="177.682"/>
<path fill-rule="evenodd" clip-rule="evenodd" d="M437.83 177.974C442.077 177.247 446.108 180.101 446.835 184.348L456.042 238.177L463.735 236.861L457.158 198.412C456.432 194.165 459.286 190.134 463.533 189.407C467.78 188.681 471.812 191.535 472.538 195.782L483.12 257.645L498.89 241.22C502.575 237.382 508.513 237.108 512.556 240.59C516.754 244.206 517.433 250.588 514.09 255.015L481.792 297.787C481.566 298.086 481.332 298.372 481.091 298.644C475.5 308.394 465.76 315.664 453.817 317.707L446.127 319.022C424.892 322.654 404.733 308.384 401.1 287.149L394.524 248.699L394.526 248.699L390.58 225.629C389.854 221.382 392.708 217.35 396.955 216.624C401.202 215.897 405.233 218.752 405.96 222.999L409.906 246.068L417.593 244.753L409.701 198.614C408.975 194.367 411.829 190.335 416.076 189.608C420.323 188.882 424.355 191.736 425.081 195.983L432.973 242.123L440.662 240.807L431.455 186.979C430.729 182.732 433.583 178.7 437.83 177.974Z"/>
</mask>
<path fill-rule="evenodd" clip-rule="evenodd" d="M437.83 177.974C442.077 177.247 446.108 180.101 446.835 184.348L456.042 238.177L463.735 236.861L457.158 198.412C456.432 194.165 459.286 190.134 463.533 189.407C467.78 188.681 471.812 191.535 472.538 195.782L483.12 257.645L498.89 241.22C502.575 237.382 508.513 237.108 512.556 240.59C516.754 244.206 517.433 250.588 514.09 255.015L481.792 297.787C481.566 298.086 481.332 298.372 481.091 298.644C475.5 308.394 465.76 315.664 453.817 317.707L446.127 319.022C424.892 322.654 404.733 308.384 401.1 287.149L394.524 248.699L394.526 248.699L390.58 225.629C389.854 221.382 392.708 217.35 396.955 216.624C401.202 215.897 405.233 218.752 405.96 222.999L409.906 246.068L417.593 244.753L409.701 198.614C408.975 194.367 411.829 190.335 416.076 189.608C420.323 188.882 424.355 191.736 425.081 195.983L432.973 242.123L440.662 240.807L431.455 186.979C430.729 182.732 433.583 178.7 437.83 177.974Z" fill="white"/>
<path d="M456.042 238.177L457.357 245.867L449.667 247.182L448.352 239.492L456.042 238.177ZM463.735 236.861L471.425 235.546L472.74 243.236L465.05 244.551L463.735 236.861ZM457.158 198.412L464.848 197.097L457.158 198.412ZM483.12 257.645L488.747 263.048L478.037 274.203L475.43 258.96L483.12 257.645ZM498.89 241.22L504.517 246.624L504.517 246.624L498.89 241.22ZM512.556 240.59L507.464 246.501L507.464 246.501L512.556 240.59ZM514.09 255.015L520.316 259.716L520.316 259.716L514.09 255.015ZM481.792 297.787L475.566 293.085L475.566 293.085L481.792 297.787ZM481.091 298.644L474.323 294.763L474.721 294.07L475.251 293.471L481.091 298.644ZM453.817 317.707L455.132 325.397L453.817 317.707ZM446.127 319.022L444.812 311.332L446.127 319.022ZM401.1 287.149L393.41 288.464L401.1 287.149ZM394.524 248.699L386.834 250.015L385.518 242.325L393.208 241.009L394.524 248.699ZM394.526 248.699L402.216 247.384L403.531 255.073L395.841 256.389L394.526 248.699ZM390.58 225.629L398.27 224.314L390.58 225.629ZM409.906 246.068L411.221 253.758L403.531 255.073L402.216 247.384L409.906 246.068ZM417.593 244.753L425.283 243.438L426.598 251.128L418.908 252.443L417.593 244.753ZM409.701 198.614L402.011 199.929L409.701 198.614ZM432.973 242.123L434.288 249.813L426.598 251.128L425.283 243.438L432.973 242.123ZM440.662 240.807L448.352 239.492L449.667 247.182L441.978 248.497L440.662 240.807ZM439.145 185.664L439.145 185.664L436.514 170.284C445.008 168.831 453.072 174.539 454.525 183.033L439.145 185.664ZM448.352 239.492L439.145 185.664L454.525 183.033L463.732 236.861L448.352 239.492ZM465.05 244.551L457.357 245.867L454.727 230.487L462.419 229.171L465.05 244.551ZM464.848 197.097L471.425 235.546L456.045 238.176L449.468 199.728L464.848 197.097ZM464.848 197.097L464.848 197.097L449.468 199.728C448.015 191.234 453.723 183.17 462.217 181.717L464.848 197.097ZM464.848 197.097L464.848 197.097L462.217 181.717C470.711 180.264 478.775 185.972 480.228 194.466L464.848 197.097ZM475.43 258.96L464.848 197.097L480.228 194.466L490.809 256.33L475.43 258.96ZM504.517 246.624L488.747 263.048L477.492 252.242L493.262 235.817L504.517 246.624ZM507.464 246.501C506.548 245.712 505.32 245.788 504.517 246.624L493.262 235.817C499.831 228.975 510.478 228.503 517.647 234.679L507.464 246.501ZM507.864 250.314C508.732 249.165 508.54 247.428 507.464 246.501L517.647 234.679C524.968 240.985 526.134 252.012 520.316 259.716L507.864 250.314ZM475.566 293.085L507.864 250.314L520.316 259.716L488.018 302.488L475.566 293.085ZM475.251 293.471C475.356 293.352 475.462 293.224 475.566 293.085L488.018 302.488C487.671 302.948 487.308 303.391 486.931 303.817L475.251 293.471ZM452.502 310.017C462.053 308.383 469.841 302.58 474.323 294.763L487.859 302.525C481.159 314.208 469.467 322.945 455.132 325.397L452.502 310.017ZM444.812 311.332L452.502 310.017L455.132 325.397L447.442 326.712L444.812 311.332ZM408.79 285.834C411.696 302.822 427.823 314.238 444.812 311.332L447.442 326.712C421.96 331.071 397.769 313.947 393.41 288.464L408.79 285.834ZM402.214 247.384L408.79 285.834L393.41 288.464L386.834 250.015L402.214 247.384ZM395.841 256.389L395.839 256.389L393.208 241.009L393.211 241.009L395.841 256.389ZM398.27 224.314L402.216 247.384L386.836 250.014L382.89 226.945L398.27 224.314ZM398.27 224.314L398.27 224.314L382.89 226.945C381.437 218.45 387.145 210.387 395.639 208.934L398.27 224.314ZM398.27 224.314L398.27 224.314L395.639 208.934C404.133 207.481 412.197 213.189 413.65 221.683L398.27 224.314ZM402.216 247.384L398.27 224.314L413.65 221.683L417.596 244.753L402.216 247.384ZM418.908 252.443L411.221 253.758L408.591 238.378L416.278 237.063L418.908 252.443ZM417.391 197.298L425.283 243.438L409.903 246.069L402.011 199.929L417.391 197.298ZM417.391 197.298L417.391 197.298L402.011 199.929C400.558 191.435 406.266 183.371 414.76 181.918L417.391 197.298ZM417.391 197.298L417.391 197.298L414.76 181.918C423.254 180.465 431.318 186.173 432.771 194.668L417.391 197.298ZM425.283 243.438L417.391 197.298L432.771 194.668L440.663 240.807L425.283 243.438ZM441.978 248.497L434.288 249.813L431.658 234.433L439.347 233.117L441.978 248.497ZM439.145 185.664L448.352 239.492L432.972 242.123L423.765 188.294L439.145 185.664ZM439.145 185.664L439.145 185.664L423.765 188.294C422.312 179.8 428.02 171.736 436.514 170.284L439.145 185.664Z" fill="black" fill-opacity="0.8" mask="url(#path-20-outside-4_959_134430)"/>
<defs>
<filter id="filter0_d_959_134430" x="87.0039" y="141.053" width="166.02" height="176.955" filterUnits="userSpaceOnUse" color-interpolation-filters="sRGB">
<feFlood flood-opacity="0" result="BackgroundImageFix"/>
<feColorMatrix in="SourceAlpha" type="matrix" values="0 0 0 0 0 0 0 0 0 0 0 0 0 0 0 0 0 0 127 0" result="hardAlpha"/>
<feOffset dy="4"/>
<feGaussianBlur stdDeviation="5.5"/>
<feColorMatrix type="matrix" values="0 0 0 0 0 0 0 0 0 0 0 0 0 0 0 0 0 0 0.35 0"/>
<feBlend mode="normal" in2="BackgroundImageFix" result="effect1_dropShadow_959_134430"/>
<feBlend mode="normal" in="SourceGraphic" in2="effect1_dropShadow_959_134430" result="shape"/>
</filter>
<filter id="filter1_d_959_134430" x="363.157" y="154.452" width="180.362" height="196.344" filterUnits="userSpaceOnUse" color-interpolation-filters="sRGB">
<feFlood flood-opacity="0" result="BackgroundImageFix"/>
<feColorMatrix in="SourceAlpha" type="matrix" values="0 0 0 0 0 0 0 0 0 0 0 0 0 0 0 0 0 0 127 0" result="hardAlpha"/>
<feOffset dy="3.90082"/>
<feGaussianBlur stdDeviation="5.85123"/>
<feColorMatrix type="matrix" values="0 0 0 0 0 0 0 0 0 0 0 0 0 0 0 0 0 0 0.35 0"/>
<feBlend mode="normal" in2="BackgroundImageFix" result="effect1_dropShadow_959_134430"/>
<feBlend mode="normal" in="SourceGraphic" in2="effect1_dropShadow_959_134430" result="shape"/>
</filter>
</defs>
</svg>
