<svg width="56" height="56" viewBox="0 0 56 56" fill="none" xmlns="http://www.w3.org/2000/svg">
<g clip-path="url(#clip0_2167_21672)">
<path d="M34.9983 10.5C32.5902 10.4996 30.2084 10.9998 28.0039 11.9689C29.4127 12.5858 30.7337 13.386 31.9328 14.349C33.9828 13.8827 36.1114 13.8842 38.1608 14.3532C40.2101 14.8222 42.1275 15.7467 43.7706 17.0581C45.4138 18.3695 46.7405 20.0341 47.6523 21.9284C48.5641 23.8227 49.0375 25.898 49.0375 28.0003C49.0375 30.1027 48.5641 32.178 47.6523 34.0723C46.7405 35.9666 45.4138 37.6312 43.7706 38.9426C42.1275 40.254 40.2101 41.1785 38.1608 41.6475C36.1114 42.1165 33.9828 42.118 31.9328 41.6517C30.7337 42.6147 29.4127 43.4149 28.0039 44.0317C30.3878 45.0718 32.9736 45.5673 35.5731 45.4822C38.1726 45.3971 40.7204 44.7335 43.0311 43.5397C45.3418 42.3458 47.3573 40.6518 48.9309 38.581C50.5044 36.5101 51.5965 34.1145 52.1276 31.5684C52.6587 29.0223 52.6154 26.3898 52.001 23.8625C51.3865 21.3353 50.2164 18.9768 48.5756 16.9587C46.9349 14.9407 44.8648 13.3138 42.5161 12.1965C40.1674 11.0793 37.5992 10.4997 34.9983 10.5Z" fill="black"/>
<path d="M21 27.9991C21.0052 31.1771 22.0901 34.259 24.0769 36.7394C26.0637 39.2198 28.8343 40.9515 31.9345 41.6505C33.983 40.0134 35.6368 37.9363 36.7734 35.5731C37.9099 33.21 38.5 30.6213 38.5 27.9991C38.5 25.3768 37.9099 22.7881 36.7734 20.425C35.6368 18.0618 33.983 15.9847 31.9345 14.3477C28.8343 15.0466 26.0637 16.7783 24.0769 19.2587C22.0901 21.7391 21.0052 24.8211 21 27.9991Z" fill="black"/>
<path d="M17.5009 28C17.5053 24.5962 18.5012 21.2673 20.3669 18.4203C22.2326 15.5733 24.8873 13.3315 28.0065 11.969C25.3431 10.803 22.4312 10.3189 19.5338 10.5606C16.6364 10.8022 13.8449 11.7619 11.4115 13.353C8.97801 14.9441 6.97934 17.1164 5.596 19.6737C4.21267 22.2309 3.48828 25.0926 3.48828 28C3.48828 30.9074 4.21267 33.7691 5.596 36.3263C6.97934 38.8836 8.97801 41.0559 11.4115 42.647C13.8449 44.2381 16.6364 45.1978 19.5338 45.4395C22.4312 45.6811 25.3431 45.1971 28.0065 44.0311C24.8873 42.6685 22.2326 40.4267 20.3669 37.5797C18.5012 34.7327 17.5053 31.4039 17.5009 28Z" fill="black"/>
</g>
<defs>
<clipPath id="clip0_2167_21672">
<rect width="56" height="56" fill="white"/>
</clipPath>
</defs>
</svg>
