<svg width="1004" height="493" viewBox="0 0 1004 493" fill="none" xmlns="http://www.w3.org/2000/svg">
<circle cx="922.5" cy="245.5" r="81" stroke="black"/>
<circle cx="249.5" cy="411.5" r="81" stroke="black"/>
<circle cx="249.5" cy="81.5" r="81" stroke="black"/>
<circle cx="759.5" cy="411.5" r="81" stroke="black"/>
<circle cx="759.5" cy="82.5" r="81" stroke="black"/>
<path d="M727.398 81.5156V82.7422H722.469V81.5156H727.398ZM722.664 76.625V88H721.227V76.625H722.664ZM728.672 76.625V88H727.234V76.625H728.672ZM732.605 79.5469V88H731.23V79.5469H732.605ZM731.152 77.3047C731.152 77.0703 731.217 76.8724 731.347 76.7109C731.478 76.5495 731.673 76.4688 731.933 76.4688C732.194 76.4688 732.389 76.5495 732.519 76.7109C732.655 76.8724 732.722 77.0703 732.722 77.3047C732.722 77.5286 732.655 77.7214 732.519 77.8828C732.389 78.0391 732.194 78.1172 731.933 78.1172C731.673 78.1172 731.478 78.0391 731.347 77.8828C731.217 77.7214 731.152 77.5286 731.152 77.3047ZM739.531 79.5469H740.773V88.0703C740.773 88.8151 740.643 89.4297 740.382 89.9141C740.127 90.3984 739.771 90.7552 739.312 90.9844C738.854 91.2188 738.325 91.3359 737.726 91.3359C737.513 91.3359 737.244 91.2969 736.922 91.2188C736.599 91.1406 736.276 91.0208 735.953 90.8594C735.63 90.7031 735.364 90.5052 735.156 90.2656L735.726 89.3047C736.023 89.6068 736.338 89.8229 736.672 89.9531C737.005 90.0833 737.323 90.1484 737.625 90.1484C737.984 90.1484 738.297 90.0833 738.562 89.9531C738.828 89.8229 739.034 89.6094 739.179 89.3125C739.325 89.0208 739.398 88.6302 739.398 88.1406V81.4062L739.531 79.5469ZM734.672 84.1797V83.3906C734.672 82.6927 734.737 82.0938 734.867 81.5938C734.997 81.0885 735.185 80.6745 735.429 80.3516C735.679 80.0234 735.979 79.7812 736.328 79.625C736.677 79.4688 737.067 79.3906 737.5 79.3906C737.937 79.3906 738.315 79.4792 738.632 79.6562C738.95 79.8333 739.213 80.0911 739.422 80.4297C739.635 80.763 739.802 81.1693 739.922 81.6484C740.047 82.1224 740.132 82.6589 740.179 83.2578V84.3125C740.132 84.9062 740.047 85.4401 739.922 85.9141C739.802 86.388 739.632 86.7917 739.414 87.125C739.2 87.4583 738.935 87.7135 738.617 87.8906C738.299 88.0677 737.922 88.1562 737.484 88.1562C737.057 88.1562 736.672 88.0755 736.328 87.9141C735.984 87.7474 735.687 87.5 735.437 87.1719C735.192 86.8385 735.002 86.4245 734.867 85.9297C734.737 85.4297 734.672 84.8464 734.672 84.1797ZM736.054 83.3906V84.1797C736.054 84.6484 736.088 85.0573 736.156 85.4062C736.224 85.75 736.328 86.0365 736.468 86.2656C736.614 86.4896 736.799 86.6562 737.023 86.7656C737.252 86.875 737.526 86.9297 737.843 86.9297C738.229 86.9297 738.544 86.8359 738.789 86.6484C739.034 86.4609 739.229 86.2135 739.375 85.9062C739.526 85.5938 739.646 85.2578 739.734 84.8984V82.6797C739.682 82.4141 739.606 82.1589 739.507 81.9141C739.414 81.6641 739.291 81.4427 739.14 81.25C738.989 81.0521 738.807 80.8958 738.593 80.7812C738.385 80.6667 738.14 80.6094 737.859 80.6094C737.541 80.6094 737.268 80.6667 737.039 80.7812C736.81 80.8958 736.622 81.0677 736.476 81.2969C736.33 81.526 736.224 81.8151 736.156 82.1641C736.088 82.513 736.054 82.9219 736.054 83.3906ZM744.386 76V88H743.003V76H744.386ZM744.05 83.4531L743.488 83.4297C743.483 82.8516 743.548 82.3177 743.683 81.8281C743.824 81.3333 744.022 80.9036 744.277 80.5391C744.537 80.1745 744.847 79.8932 745.207 79.6953C745.566 79.4922 745.964 79.3906 746.402 79.3906C746.746 79.3906 747.058 79.4479 747.339 79.5625C747.621 79.6719 747.86 79.849 748.058 80.0938C748.256 80.3385 748.407 80.6562 748.511 81.0469C748.621 81.4323 748.675 81.9036 748.675 82.4609V88H747.292V82.4453C747.292 82.0026 747.243 81.6484 747.144 81.3828C747.05 81.112 746.904 80.9167 746.707 80.7969C746.514 80.6719 746.269 80.6094 745.972 80.6094C745.701 80.6094 745.449 80.6849 745.214 80.8359C744.98 80.987 744.774 81.1953 744.597 81.4609C744.425 81.7266 744.29 82.0312 744.191 82.375C744.097 82.7135 744.05 83.0729 744.05 83.4531ZM761.089 81.5156V82.7422H756.159V81.5156H761.089ZM756.355 76.625V88H754.917V76.625H756.355ZM762.362 76.625V88H760.925V76.625H762.362ZM766.296 79.5469V88H764.921V79.5469H766.296ZM764.843 77.3047C764.843 77.0703 764.908 76.8724 765.038 76.7109C765.168 76.5495 765.364 76.4688 765.624 76.4688C765.884 76.4688 766.08 76.5495 766.21 76.7109C766.345 76.8724 766.413 77.0703 766.413 77.3047C766.413 77.5286 766.345 77.7214 766.21 77.8828C766.08 78.0391 765.884 78.1172 765.624 78.1172C765.364 78.1172 765.168 78.0391 765.038 77.8828C764.908 77.7214 764.843 77.5286 764.843 77.3047ZM773.073 86.3594V76H774.448V88H773.19L773.073 86.3594ZM768.347 84.1797V83.3906C768.347 82.6927 768.414 82.0938 768.55 81.5938C768.685 81.0885 768.878 80.6745 769.128 80.3516C769.378 80.0234 769.677 79.7812 770.026 79.625C770.375 79.4688 770.761 79.3906 771.182 79.3906C771.62 79.3906 771.995 79.4792 772.307 79.6562C772.625 79.8333 772.891 80.0911 773.104 80.4297C773.318 80.763 773.485 81.1693 773.604 81.6484C773.729 82.1224 773.813 82.6589 773.854 83.2578V84.3125C773.807 84.9062 773.722 85.4401 773.597 85.9141C773.477 86.388 773.31 86.7917 773.097 87.125C772.883 87.4583 772.617 87.7135 772.3 87.8906C771.982 88.0677 771.604 88.1562 771.167 88.1562C770.75 88.1562 770.37 88.0755 770.026 87.9141C769.682 87.7474 769.383 87.5 769.128 87.1719C768.878 86.8385 768.685 86.4245 768.55 85.9297C768.414 85.4297 768.347 84.8464 768.347 84.1797ZM769.729 83.3906V84.1797C769.729 84.6484 769.763 85.0573 769.831 85.4062C769.899 85.75 770.005 86.0365 770.151 86.2656C770.297 86.4896 770.482 86.6562 770.706 86.7656C770.935 86.875 771.209 86.9297 771.526 86.9297C771.912 86.9297 772.227 86.8359 772.472 86.6484C772.716 86.4609 772.912 86.2135 773.057 85.9062C773.209 85.5938 773.328 85.2578 773.417 84.8984V82.6797C773.365 82.4141 773.289 82.1589 773.19 81.9141C773.091 81.6641 772.966 81.4427 772.815 81.25C772.669 81.0521 772.49 80.8958 772.276 80.7812C772.068 80.6667 771.823 80.6094 771.542 80.6094C771.224 80.6094 770.948 80.6667 770.714 80.7812C770.485 80.8958 770.297 81.0677 770.151 81.2969C770.011 81.526 769.904 81.8151 769.831 82.1641C769.763 82.513 769.729 82.9219 769.729 83.3906ZM778.225 79.5469V88H776.85V79.5469H778.225ZM776.772 77.3047C776.772 77.0703 776.837 76.8724 776.967 76.7109C777.098 76.5495 777.293 76.4688 777.553 76.4688C777.814 76.4688 778.009 76.5495 778.139 76.7109C778.275 76.8724 778.342 77.0703 778.342 77.3047C778.342 77.5286 778.275 77.7214 778.139 77.8828C778.009 78.0391 777.814 78.1172 777.553 78.1172C777.293 78.1172 777.098 78.0391 776.967 77.8828C776.837 77.7214 776.772 77.5286 776.772 77.3047ZM782.057 76V88H780.682V76H782.057ZM785.889 79.5469V88H784.514V79.5469H785.889ZM784.436 77.3047C784.436 77.0703 784.501 76.8724 784.631 76.7109C784.761 76.5495 784.957 76.4688 785.217 76.4688C785.478 76.4688 785.673 76.5495 785.803 76.7109C785.939 76.8724 786.006 77.0703 786.006 77.3047C786.006 77.5286 785.939 77.7214 785.803 77.8828C785.673 78.0391 785.478 78.1172 785.217 78.1172C784.957 78.1172 784.761 78.0391 784.631 77.8828C784.501 77.7214 784.436 77.5286 784.436 77.3047ZM791.323 79.5469V80.6562H787.377V79.5469H791.323ZM788.666 77.4922H790.049V85.9062C790.049 86.1927 790.083 86.4089 790.151 86.5547C790.224 86.7005 790.315 86.7969 790.424 86.8438C790.533 86.8906 790.651 86.9141 790.776 86.9141C790.869 86.9141 790.974 86.9036 791.088 86.8828C791.203 86.8568 791.281 86.8359 791.323 86.8203L791.315 88C791.221 88.0365 791.096 88.0703 790.94 88.1016C790.783 88.138 790.586 88.1562 790.346 88.1562C790.049 88.1562 789.773 88.0859 789.518 87.9453C789.263 87.8047 789.057 87.5703 788.901 87.2422C788.744 86.9089 788.666 86.4609 788.666 85.8984V77.4922ZM795.092 87.125L796.975 79.5469H798.443L795.654 89.3047C795.587 89.513 795.496 89.737 795.381 89.9766C795.272 90.2214 795.131 90.4531 794.959 90.6719C794.787 90.8906 794.581 91.0677 794.342 91.2031C794.102 91.3438 793.821 91.4141 793.498 91.4141C793.399 91.4141 793.272 91.3984 793.115 91.3672C792.964 91.3359 792.855 91.3099 792.787 91.2891V90.1172C792.818 90.1224 792.868 90.1276 792.936 90.1328C793.003 90.1432 793.053 90.1484 793.084 90.1484C793.355 90.1484 793.584 90.1042 793.772 90.0156C793.964 89.9323 794.128 89.7891 794.264 89.5859C794.399 89.388 794.514 89.1146 794.607 88.7656L795.092 87.125ZM793.873 79.5469L795.553 86.1094L795.912 87.6328L794.928 88.1641L792.365 79.5469H793.873Z" fill="#242429"/>
<path d="M221.805 87H219.867L219.883 85.7734H221.805C222.487 85.7734 223.042 85.6432 223.469 85.3828C223.896 85.1172 224.211 84.7266 224.414 84.2109C224.617 83.6901 224.719 83.0469 224.719 82.2812V80.3359C224.719 79.7318 224.661 79.2109 224.547 78.7734C224.432 78.3359 224.26 77.9766 224.031 77.6953C223.802 77.4141 223.513 77.2057 223.164 77.0703C222.815 76.9297 222.406 76.8594 221.938 76.8594H219.828V75.625H221.938C222.578 75.625 223.156 75.7266 223.672 75.9297C224.188 76.1276 224.63 76.4271 225 76.8281C225.37 77.224 225.651 77.7161 225.844 78.3047C226.042 78.8932 226.141 79.5755 226.141 80.3516V82.2812C226.141 83.0573 226.042 83.7396 225.844 84.3281C225.651 84.9167 225.367 85.4089 224.992 85.8047C224.617 86.2005 224.161 86.5 223.625 86.7031C223.094 86.901 222.487 87 221.805 87ZM220.664 75.625V87H219.227V75.625H220.664ZM229.824 78.5469V87H228.449V78.5469H229.824ZM228.371 76.3047C228.371 76.0703 228.436 75.8724 228.566 75.7109C228.696 75.5495 228.892 75.4688 229.152 75.4688C229.413 75.4688 229.608 75.5495 229.738 75.7109C229.874 75.8724 229.941 76.0703 229.941 76.3047C229.941 76.5286 229.874 76.7214 229.738 76.8828C229.608 77.0391 229.413 77.1172 229.152 77.1172C228.892 77.1172 228.696 77.0391 228.566 76.8828C228.436 76.7214 228.371 76.5286 228.371 76.3047ZM236.273 84.8359C236.273 84.6224 236.221 84.4349 236.117 84.2734C236.013 84.112 235.841 83.9557 235.601 83.8047C235.367 83.6536 235.049 83.4922 234.648 83.3203C234.257 83.1589 233.906 83 233.593 82.8438C233.286 82.6823 233.026 82.5078 232.812 82.3203C232.599 82.1328 232.435 81.9167 232.32 81.6719C232.211 81.4219 232.156 81.1276 232.156 80.7891C232.156 80.4505 232.218 80.138 232.343 79.8516C232.474 79.5599 232.656 79.3047 232.89 79.0859C233.125 78.8672 233.406 78.6979 233.734 78.5781C234.062 78.4531 234.429 78.3906 234.836 78.3906C235.414 78.3906 235.906 78.5026 236.312 78.7266C236.718 78.9505 237.028 79.2578 237.242 79.6484C237.461 80.0339 237.57 80.4688 237.57 80.9531H236.195C236.195 80.7188 236.143 80.4974 236.039 80.2891C235.935 80.0807 235.781 79.9115 235.578 79.7812C235.375 79.6458 235.127 79.5781 234.836 79.5781C234.528 79.5781 234.278 79.6328 234.086 79.7422C233.893 79.8516 233.752 79.9948 233.664 80.1719C233.58 80.3438 233.539 80.5339 233.539 80.7422C233.539 80.8984 233.56 81.0339 233.601 81.1484C233.648 81.2578 233.726 81.362 233.836 81.4609C233.945 81.5547 234.093 81.6536 234.281 81.7578C234.474 81.8568 234.718 81.9714 235.015 82.1016C235.588 82.3255 236.07 82.5521 236.461 82.7812C236.851 83.0104 237.148 83.2786 237.351 83.5859C237.554 83.8932 237.656 84.2734 237.656 84.7266C237.656 85.0964 237.588 85.4323 237.453 85.7344C237.323 86.0312 237.135 86.2865 236.89 86.5C236.646 86.7135 236.351 86.8776 236.007 86.9922C235.669 87.1016 235.289 87.1562 234.867 87.1562C234.231 87.1562 233.692 87.0312 233.25 86.7812C232.812 86.526 232.479 86.1953 232.25 85.7891C232.026 85.3776 231.914 84.9375 231.914 84.4688H233.297C233.312 84.8646 233.401 85.1719 233.562 85.3906C233.729 85.6094 233.929 85.7604 234.164 85.8438C234.398 85.9271 234.632 85.9688 234.867 85.9688C235.174 85.9688 235.432 85.9245 235.64 85.8359C235.849 85.7422 236.005 85.6094 236.109 85.4375C236.218 85.2656 236.273 85.0651 236.273 84.8359ZM242.558 85.9766C242.834 85.9766 243.084 85.9219 243.308 85.8125C243.537 85.6979 243.725 85.5208 243.871 85.2812C244.016 85.0365 244.1 84.7188 244.121 84.3281H245.417C245.397 84.8906 245.253 85.3854 244.988 85.8125C244.727 86.2344 244.384 86.5651 243.957 86.8047C243.535 87.0391 243.069 87.1562 242.558 87.1562C242.011 87.1562 241.535 87.0677 241.128 86.8906C240.727 86.7135 240.394 86.4583 240.128 86.125C239.868 85.7865 239.673 85.3776 239.542 84.8984C239.412 84.4141 239.347 83.8646 239.347 83.25V82.2969C239.347 81.6823 239.412 81.1354 239.542 80.6562C239.673 80.1719 239.868 79.763 240.128 79.4297C240.394 79.0911 240.727 78.8333 241.128 78.6562C241.535 78.4792 242.011 78.3906 242.558 78.3906C243.131 78.3906 243.626 78.513 244.042 78.7578C244.464 78.9974 244.792 79.3464 245.027 79.8047C245.266 80.2578 245.397 80.8073 245.417 81.4531H244.121C244.1 81.0365 244.024 80.6901 243.894 80.4141C243.764 80.1328 243.587 79.9245 243.363 79.7891C243.139 79.6484 242.871 79.5781 242.558 79.5781C242.194 79.5781 241.891 79.6432 241.652 79.7734C241.417 79.8984 241.233 80.0807 241.097 80.3203C240.962 80.5599 240.865 80.8464 240.808 81.1797C240.756 81.513 240.73 81.8854 240.73 82.2969V83.25C240.73 83.6615 240.756 84.0365 240.808 84.375C240.865 84.7083 240.959 84.9948 241.089 85.2344C241.225 85.474 241.412 85.6589 241.652 85.7891C241.891 85.9141 242.194 85.9766 242.558 85.9766ZM246.89 83.1797V82.375C246.89 81.7188 246.973 81.1432 247.14 80.6484C247.307 80.1484 247.538 79.7318 247.835 79.3984C248.132 79.0651 248.479 78.8151 248.874 78.6484C249.27 78.4766 249.695 78.3906 250.148 78.3906C250.611 78.3906 251.041 78.4766 251.437 78.6484C251.833 78.8151 252.179 79.0651 252.476 79.3984C252.778 79.7318 253.012 80.1484 253.179 80.6484C253.346 81.1432 253.429 81.7188 253.429 82.375V83.1797C253.429 83.8359 253.346 84.4141 253.179 84.9141C253.012 85.4089 252.781 85.8229 252.484 86.1562C252.187 86.4896 251.841 86.7396 251.445 86.9062C251.049 87.0729 250.622 87.1562 250.163 87.1562C249.705 87.1562 249.278 87.0729 248.882 86.9062C248.486 86.7396 248.137 86.4896 247.835 86.1562C247.538 85.8229 247.307 85.4089 247.14 84.9141C246.973 84.4141 246.89 83.8359 246.89 83.1797ZM248.273 82.375V83.1797C248.273 83.6432 248.32 84.0495 248.413 84.3984C248.507 84.7474 248.64 85.0391 248.812 85.2734C248.984 85.5078 249.184 85.6849 249.413 85.8047C249.643 85.9193 249.893 85.9766 250.163 85.9766C250.476 85.9766 250.749 85.9193 250.984 85.8047C251.223 85.6849 251.421 85.5078 251.577 85.2734C251.734 85.0391 251.851 84.7474 251.929 84.3984C252.007 84.0495 252.046 83.6432 252.046 83.1797V82.375C252.046 81.9115 251.999 81.5078 251.906 81.1641C251.812 80.8151 251.679 80.5234 251.507 80.2891C251.335 80.0495 251.132 79.8724 250.898 79.7578C250.669 79.638 250.419 79.5781 250.148 79.5781C249.882 79.5781 249.635 79.638 249.406 79.7578C249.176 79.8724 248.976 80.0495 248.804 80.2891C248.637 80.5234 248.507 80.8151 248.413 81.1641C248.32 81.5078 248.273 81.9115 248.273 82.375ZM257.433 85.6953L259.245 78.5469H260.652L258.144 87H257.23L257.433 85.6953ZM255.972 78.5469L257.862 85.7344L258.011 87H257.105L254.566 78.5469H255.972ZM265.163 87.1562C264.658 87.1562 264.202 87.0807 263.796 86.9297C263.39 86.7786 263.043 86.5495 262.757 86.2422C262.47 85.9297 262.252 85.5365 262.101 85.0625C261.95 84.5885 261.874 84.0286 261.874 83.3828V82.4297C261.874 81.6849 261.96 81.0547 262.132 80.5391C262.309 80.0234 262.546 79.6094 262.843 79.2969C263.14 78.9792 263.476 78.75 263.851 78.6094C264.226 78.4635 264.611 78.3906 265.007 78.3906C265.538 78.3906 265.991 78.4766 266.366 78.6484C266.741 78.8203 267.046 79.0755 267.28 79.4141C267.515 79.7526 267.687 80.1693 267.796 80.6641C267.911 81.1589 267.968 81.7292 267.968 82.375V83.1797H262.687V82H266.585V81.8047C266.564 81.3672 266.504 80.9818 266.405 80.6484C266.312 80.3151 266.155 80.0547 265.937 79.8672C265.718 79.6745 265.408 79.5781 265.007 79.5781C264.752 79.5781 264.515 79.6224 264.296 79.7109C264.082 79.7943 263.897 79.9427 263.741 80.1562C263.59 80.3646 263.47 80.6536 263.382 81.0234C263.299 81.3932 263.257 81.862 263.257 82.4297V83.3828C263.257 83.8359 263.299 84.2266 263.382 84.5547C263.47 84.8776 263.598 85.1458 263.765 85.3594C263.937 85.5677 264.145 85.724 264.39 85.8281C264.64 85.9271 264.924 85.9766 265.241 85.9766C265.705 85.9766 266.088 85.888 266.39 85.7109C266.692 85.5286 266.955 85.2969 267.179 85.0156L267.905 85.8828C267.754 86.0964 267.556 86.3021 267.312 86.5C267.072 86.6927 266.775 86.8516 266.421 86.9766C266.072 87.0964 265.653 87.1562 265.163 87.1562ZM271.182 79.875V87H269.8V78.5469H271.136L271.182 79.875ZM273.284 78.5L273.292 79.8438C273.177 79.8177 273.073 79.8021 272.979 79.7969C272.891 79.7865 272.787 79.7812 272.667 79.7812C272.406 79.7812 272.177 79.8333 271.979 79.9375C271.787 80.0417 271.62 80.1875 271.479 80.375C271.339 80.5625 271.227 80.7865 271.143 81.0469C271.06 81.3021 271.003 81.5833 270.972 81.8906L270.612 82.125C270.612 81.6146 270.651 81.1354 270.729 80.6875C270.813 80.2396 270.94 79.8438 271.112 79.5C271.284 79.151 271.503 78.8802 271.768 78.6875C272.039 78.4896 272.362 78.3906 272.737 78.3906C272.821 78.3906 272.922 78.4036 273.042 78.4297C273.167 78.4505 273.248 78.474 273.284 78.5ZM276.936 86.125L278.819 78.5469H280.288L277.499 88.3047C277.431 88.513 277.34 88.737 277.225 88.9766C277.116 89.2214 276.975 89.4531 276.803 89.6719C276.632 89.8906 276.426 90.0677 276.186 90.2031C275.947 90.3438 275.665 90.4141 275.342 90.4141C275.244 90.4141 275.116 90.3984 274.96 90.3672C274.809 90.3359 274.699 90.3099 274.632 90.2891V89.1172C274.663 89.1224 274.712 89.1276 274.78 89.1328C274.848 89.1432 274.897 89.1484 274.928 89.1484C275.199 89.1484 275.428 89.1042 275.616 89.0156C275.809 88.9323 275.973 88.7891 276.108 88.5859C276.244 88.388 276.358 88.1146 276.452 87.7656L276.936 86.125ZM275.717 78.5469L277.397 85.1094L277.757 86.6328L276.772 87.1641L274.21 78.5469H275.717Z" fill="#242429"/>
<path d="M715.805 417H713.867L713.883 415.773H715.805C716.487 415.773 717.042 415.643 717.469 415.383C717.896 415.117 718.211 414.727 718.414 414.211C718.617 413.69 718.719 413.047 718.719 412.281V410.336C718.719 409.732 718.661 409.211 718.547 408.773C718.432 408.336 718.26 407.977 718.031 407.695C717.802 407.414 717.513 407.206 717.164 407.07C716.815 406.93 716.406 406.859 715.938 406.859H713.828V405.625H715.938C716.578 405.625 717.156 405.727 717.672 405.93C718.188 406.128 718.63 406.427 719 406.828C719.37 407.224 719.651 407.716 719.844 408.305C720.042 408.893 720.141 409.576 720.141 410.352V412.281C720.141 413.057 720.042 413.74 719.844 414.328C719.651 414.917 719.367 415.409 718.992 415.805C718.617 416.201 718.161 416.5 717.625 416.703C717.094 416.901 716.487 417 715.805 417ZM714.664 405.625V417H713.227V405.625H714.664ZM725.363 417.156C724.858 417.156 724.402 417.081 723.996 416.93C723.59 416.779 723.243 416.549 722.957 416.242C722.67 415.93 722.452 415.536 722.301 415.062C722.15 414.589 722.074 414.029 722.074 413.383V412.43C722.074 411.685 722.16 411.055 722.332 410.539C722.509 410.023 722.746 409.609 723.043 409.297C723.34 408.979 723.676 408.75 724.051 408.609C724.426 408.464 724.811 408.391 725.207 408.391C725.738 408.391 726.191 408.477 726.566 408.648C726.941 408.82 727.246 409.076 727.48 409.414C727.715 409.753 727.887 410.169 727.996 410.664C728.111 411.159 728.168 411.729 728.168 412.375V413.18H722.887V412H726.785V411.805C726.764 411.367 726.704 410.982 726.605 410.648C726.512 410.315 726.355 410.055 726.137 409.867C725.918 409.674 725.608 409.578 725.207 409.578C724.952 409.578 724.715 409.622 724.496 409.711C724.282 409.794 724.097 409.943 723.941 410.156C723.79 410.365 723.67 410.654 723.582 411.023C723.499 411.393 723.457 411.862 723.457 412.43V413.383C723.457 413.836 723.499 414.227 723.582 414.555C723.67 414.878 723.798 415.146 723.965 415.359C724.137 415.568 724.345 415.724 724.59 415.828C724.84 415.927 725.124 415.977 725.441 415.977C725.905 415.977 726.288 415.888 726.59 415.711C726.892 415.529 727.155 415.297 727.379 415.016L728.105 415.883C727.954 416.096 727.756 416.302 727.512 416.5C727.272 416.693 726.975 416.852 726.621 416.977C726.272 417.096 725.853 417.156 725.363 417.156ZM734.101 414.836C734.101 414.622 734.049 414.435 733.945 414.273C733.841 414.112 733.669 413.956 733.429 413.805C733.195 413.654 732.877 413.492 732.476 413.32C732.086 413.159 731.734 413 731.422 412.844C731.114 412.682 730.854 412.508 730.64 412.32C730.427 412.133 730.263 411.917 730.148 411.672C730.039 411.422 729.984 411.128 729.984 410.789C729.984 410.451 730.047 410.138 730.172 409.852C730.302 409.56 730.484 409.305 730.718 409.086C730.953 408.867 731.234 408.698 731.562 408.578C731.89 408.453 732.257 408.391 732.664 408.391C733.242 408.391 733.734 408.503 734.14 408.727C734.547 408.951 734.856 409.258 735.07 409.648C735.289 410.034 735.398 410.469 735.398 410.953H734.023C734.023 410.719 733.971 410.497 733.867 410.289C733.763 410.081 733.609 409.911 733.406 409.781C733.203 409.646 732.955 409.578 732.664 409.578C732.356 409.578 732.106 409.633 731.914 409.742C731.721 409.852 731.58 409.995 731.492 410.172C731.409 410.344 731.367 410.534 731.367 410.742C731.367 410.898 731.388 411.034 731.429 411.148C731.476 411.258 731.554 411.362 731.664 411.461C731.773 411.555 731.922 411.654 732.109 411.758C732.302 411.857 732.547 411.971 732.843 412.102C733.416 412.326 733.898 412.552 734.289 412.781C734.679 413.01 734.976 413.279 735.179 413.586C735.382 413.893 735.484 414.273 735.484 414.727C735.484 415.096 735.416 415.432 735.281 415.734C735.151 416.031 734.963 416.286 734.718 416.5C734.474 416.714 734.179 416.878 733.836 416.992C733.497 417.102 733.117 417.156 732.695 417.156C732.06 417.156 731.521 417.031 731.078 416.781C730.64 416.526 730.307 416.195 730.078 415.789C729.854 415.378 729.742 414.938 729.742 414.469H731.125C731.14 414.865 731.229 415.172 731.39 415.391C731.557 415.609 731.757 415.76 731.992 415.844C732.226 415.927 732.461 415.969 732.695 415.969C733.002 415.969 733.26 415.924 733.468 415.836C733.677 415.742 733.833 415.609 733.937 415.438C734.047 415.266 734.101 415.065 734.101 414.836ZM738.941 408.547V417H737.566V408.547H738.941ZM737.488 406.305C737.488 406.07 737.553 405.872 737.683 405.711C737.813 405.549 738.009 405.469 738.269 405.469C738.529 405.469 738.725 405.549 738.855 405.711C738.99 405.872 739.058 406.07 739.058 406.305C739.058 406.529 738.99 406.721 738.855 406.883C738.725 407.039 738.529 407.117 738.269 407.117C738.009 407.117 737.813 407.039 737.683 406.883C737.553 406.721 737.488 406.529 737.488 406.305ZM745.867 408.547H747.109V417.07C747.109 417.815 746.979 418.43 746.718 418.914C746.463 419.398 746.106 419.755 745.648 419.984C745.189 420.219 744.661 420.336 744.062 420.336C743.848 420.336 743.58 420.297 743.257 420.219C742.934 420.141 742.611 420.021 742.288 419.859C741.966 419.703 741.7 419.505 741.492 419.266L742.062 418.305C742.359 418.607 742.674 418.823 743.007 418.953C743.341 419.083 743.658 419.148 743.96 419.148C744.32 419.148 744.632 419.083 744.898 418.953C745.163 418.823 745.369 418.609 745.515 418.312C745.661 418.021 745.734 417.63 745.734 417.141V410.406L745.867 408.547ZM741.007 413.18V412.391C741.007 411.693 741.072 411.094 741.202 410.594C741.333 410.089 741.52 409.674 741.765 409.352C742.015 409.023 742.314 408.781 742.663 408.625C743.012 408.469 743.403 408.391 743.835 408.391C744.273 408.391 744.65 408.479 744.968 408.656C745.286 408.833 745.549 409.091 745.757 409.43C745.971 409.763 746.137 410.169 746.257 410.648C746.382 411.122 746.468 411.659 746.515 412.258V413.312C746.468 413.906 746.382 414.44 746.257 414.914C746.137 415.388 745.968 415.792 745.749 416.125C745.536 416.458 745.27 416.714 744.952 416.891C744.635 417.068 744.257 417.156 743.82 417.156C743.393 417.156 743.007 417.076 742.663 416.914C742.32 416.747 742.023 416.5 741.773 416.172C741.528 415.839 741.338 415.424 741.202 414.93C741.072 414.43 741.007 413.846 741.007 413.18ZM742.39 412.391V413.18C742.39 413.648 742.424 414.057 742.492 414.406C742.559 414.75 742.663 415.036 742.804 415.266C742.95 415.49 743.135 415.656 743.359 415.766C743.588 415.875 743.861 415.93 744.179 415.93C744.564 415.93 744.88 415.836 745.124 415.648C745.369 415.461 745.564 415.214 745.71 414.906C745.861 414.594 745.981 414.258 746.07 413.898V411.68C746.018 411.414 745.942 411.159 745.843 410.914C745.749 410.664 745.627 410.443 745.476 410.25C745.325 410.052 745.143 409.896 744.929 409.781C744.721 409.667 744.476 409.609 744.195 409.609C743.877 409.609 743.604 409.667 743.374 409.781C743.145 409.896 742.958 410.068 742.812 410.297C742.666 410.526 742.559 410.815 742.492 411.164C742.424 411.513 742.39 411.922 742.39 412.391ZM750.722 410.352V417H749.339V408.547H750.644L750.722 410.352ZM750.386 412.453L749.823 412.43C749.818 411.852 749.883 411.318 750.019 410.828C750.159 410.333 750.357 409.904 750.612 409.539C750.873 409.174 751.183 408.893 751.542 408.695C751.902 408.492 752.3 408.391 752.737 408.391C753.081 408.391 753.394 408.448 753.675 408.562C753.956 408.672 754.196 408.849 754.394 409.094C754.592 409.339 754.743 409.656 754.847 410.047C754.956 410.432 755.011 410.904 755.011 411.461V417H753.628V411.445C753.628 411.003 753.579 410.648 753.48 410.383C753.386 410.112 753.24 409.917 753.042 409.797C752.849 409.672 752.605 409.609 752.308 409.609C752.037 409.609 751.784 409.685 751.55 409.836C751.316 409.987 751.11 410.195 750.933 410.461C750.761 410.727 750.626 411.031 750.527 411.375C750.433 411.714 750.386 412.073 750.386 412.453ZM765.182 414.836C765.182 414.622 765.13 414.435 765.026 414.273C764.922 414.112 764.75 413.956 764.511 413.805C764.276 413.654 763.959 413.492 763.557 413.32C763.167 413.159 762.815 413 762.503 412.844C762.196 412.682 761.935 412.508 761.722 412.32C761.508 412.133 761.344 411.917 761.229 411.672C761.12 411.422 761.065 411.128 761.065 410.789C761.065 410.451 761.128 410.138 761.253 409.852C761.383 409.56 761.565 409.305 761.8 409.086C762.034 408.867 762.315 408.698 762.643 408.578C762.972 408.453 763.339 408.391 763.745 408.391C764.323 408.391 764.815 408.503 765.222 408.727C765.628 408.951 765.938 409.258 766.151 409.648C766.37 410.034 766.479 410.469 766.479 410.953H765.104C765.104 410.719 765.052 410.497 764.948 410.289C764.844 410.081 764.69 409.911 764.487 409.781C764.284 409.646 764.037 409.578 763.745 409.578C763.438 409.578 763.188 409.633 762.995 409.742C762.802 409.852 762.662 409.995 762.573 410.172C762.49 410.344 762.448 410.534 762.448 410.742C762.448 410.898 762.469 411.034 762.511 411.148C762.557 411.258 762.636 411.362 762.745 411.461C762.854 411.555 763.003 411.654 763.19 411.758C763.383 411.857 763.628 411.971 763.925 412.102C764.498 412.326 764.979 412.552 765.37 412.781C765.761 413.01 766.057 413.279 766.261 413.586C766.464 413.893 766.565 414.273 766.565 414.727C766.565 415.096 766.498 415.432 766.362 415.734C766.232 416.031 766.044 416.286 765.8 416.5C765.555 416.714 765.261 416.878 764.917 416.992C764.578 417.102 764.198 417.156 763.776 417.156C763.141 417.156 762.602 417.031 762.159 416.781C761.722 416.526 761.388 416.195 761.159 415.789C760.935 415.378 760.823 414.938 760.823 414.469H762.206C762.222 414.865 762.31 415.172 762.472 415.391C762.638 415.609 762.839 415.76 763.073 415.844C763.307 415.927 763.542 415.969 763.776 415.969C764.084 415.969 764.341 415.924 764.55 415.836C764.758 415.742 764.914 415.609 765.018 415.438C765.128 415.266 765.182 415.065 765.182 414.836ZM770.499 416.125L772.382 408.547H773.85L771.061 418.305C770.994 418.513 770.902 418.737 770.788 418.977C770.678 419.221 770.538 419.453 770.366 419.672C770.194 419.891 769.988 420.068 769.749 420.203C769.509 420.344 769.228 420.414 768.905 420.414C768.806 420.414 768.678 420.398 768.522 420.367C768.371 420.336 768.262 420.31 768.194 420.289V419.117C768.225 419.122 768.275 419.128 768.342 419.133C768.41 419.143 768.46 419.148 768.491 419.148C768.762 419.148 768.991 419.104 769.178 419.016C769.371 418.932 769.535 418.789 769.671 418.586C769.806 418.388 769.921 418.115 770.014 417.766L770.499 416.125ZM769.28 408.547L770.96 415.109L771.319 416.633L770.335 417.164L767.772 408.547H769.28ZM779.471 414.836C779.471 414.622 779.419 414.435 779.315 414.273C779.211 414.112 779.039 413.956 778.799 413.805C778.565 413.654 778.247 413.492 777.846 413.32C777.456 413.159 777.104 413 776.792 412.844C776.484 412.682 776.224 412.508 776.01 412.32C775.797 412.133 775.633 411.917 775.518 411.672C775.409 411.422 775.354 411.128 775.354 410.789C775.354 410.451 775.417 410.138 775.542 409.852C775.672 409.56 775.854 409.305 776.088 409.086C776.323 408.867 776.604 408.698 776.932 408.578C777.26 408.453 777.627 408.391 778.034 408.391C778.612 408.391 779.104 408.503 779.51 408.727C779.917 408.951 780.226 409.258 780.44 409.648C780.659 410.034 780.768 410.469 780.768 410.953H779.393C779.393 410.719 779.341 410.497 779.237 410.289C779.133 410.081 778.979 409.911 778.776 409.781C778.573 409.646 778.325 409.578 778.034 409.578C777.726 409.578 777.476 409.633 777.284 409.742C777.091 409.852 776.95 409.995 776.862 410.172C776.779 410.344 776.737 410.534 776.737 410.742C776.737 410.898 776.758 411.034 776.799 411.148C776.846 411.258 776.924 411.362 777.034 411.461C777.143 411.555 777.292 411.654 777.479 411.758C777.672 411.857 777.917 411.971 778.213 412.102C778.786 412.326 779.268 412.552 779.659 412.781C780.049 413.01 780.346 413.279 780.549 413.586C780.752 413.893 780.854 414.273 780.854 414.727C780.854 415.096 780.786 415.432 780.651 415.734C780.521 416.031 780.333 416.286 780.088 416.5C779.844 416.714 779.549 416.878 779.206 416.992C778.867 417.102 778.487 417.156 778.065 417.156C777.43 417.156 776.891 417.031 776.448 416.781C776.01 416.526 775.677 416.195 775.448 415.789C775.224 415.378 775.112 414.938 775.112 414.469H776.495C776.51 414.865 776.599 415.172 776.76 415.391C776.927 415.609 777.127 415.76 777.362 415.844C777.596 415.927 777.831 415.969 778.065 415.969C778.372 415.969 778.63 415.924 778.838 415.836C779.047 415.742 779.203 415.609 779.307 415.438C779.417 415.266 779.471 415.065 779.471 414.836ZM785.912 408.547V409.656H781.967V408.547H785.912ZM783.256 406.492H784.639V414.906C784.639 415.193 784.673 415.409 784.741 415.555C784.814 415.701 784.905 415.797 785.014 415.844C785.123 415.891 785.241 415.914 785.366 415.914C785.459 415.914 785.564 415.904 785.678 415.883C785.793 415.857 785.871 415.836 785.912 415.82L785.905 417C785.811 417.036 785.686 417.07 785.53 417.102C785.373 417.138 785.176 417.156 784.936 417.156C784.639 417.156 784.363 417.086 784.108 416.945C783.853 416.805 783.647 416.57 783.491 416.242C783.334 415.909 783.256 415.461 783.256 414.898V406.492ZM790.744 417.156C790.239 417.156 789.783 417.081 789.377 416.93C788.971 416.779 788.625 416.549 788.338 416.242C788.052 415.93 787.833 415.536 787.682 415.062C787.531 414.589 787.455 414.029 787.455 413.383V412.43C787.455 411.685 787.541 411.055 787.713 410.539C787.89 410.023 788.127 409.609 788.424 409.297C788.721 408.979 789.057 408.75 789.432 408.609C789.807 408.464 790.192 408.391 790.588 408.391C791.119 408.391 791.573 408.477 791.948 408.648C792.323 408.82 792.627 409.076 792.862 409.414C793.096 409.753 793.268 410.169 793.377 410.664C793.492 411.159 793.549 411.729 793.549 412.375V413.18H788.268V412H792.166V411.805C792.145 411.367 792.086 410.982 791.987 410.648C791.893 410.315 791.737 410.055 791.518 409.867C791.299 409.674 790.989 409.578 790.588 409.578C790.333 409.578 790.096 409.622 789.877 409.711C789.664 409.794 789.479 409.943 789.323 410.156C789.171 410.365 789.052 410.654 788.963 411.023C788.88 411.393 788.838 411.862 788.838 412.43V413.383C788.838 413.836 788.88 414.227 788.963 414.555C789.052 414.878 789.179 415.146 789.346 415.359C789.518 415.568 789.726 415.724 789.971 415.828C790.221 415.927 790.505 415.977 790.823 415.977C791.286 415.977 791.669 415.888 791.971 415.711C792.273 415.529 792.536 415.297 792.76 415.016L793.487 415.883C793.336 416.096 793.138 416.302 792.893 416.5C792.653 416.693 792.356 416.852 792.002 416.977C791.653 417.096 791.234 417.156 790.744 417.156ZM796.764 410.227V417H795.389V408.547H796.686L796.764 410.227ZM796.482 412.453L795.842 412.43C795.837 411.852 795.894 411.318 796.014 410.828C796.134 410.333 796.313 409.904 796.553 409.539C796.798 409.174 797.102 408.893 797.467 408.695C797.837 408.492 798.266 408.391 798.756 408.391C799.079 408.391 799.378 408.448 799.654 408.562C799.936 408.672 800.18 408.846 800.389 409.086C800.597 409.326 800.759 409.633 800.873 410.008C800.993 410.383 801.053 410.836 801.053 411.367V417H799.67V411.438C799.67 410.995 799.61 410.641 799.49 410.375C799.376 410.109 799.212 409.917 798.998 409.797C798.785 409.672 798.529 409.609 798.232 409.609C797.894 409.609 797.61 409.685 797.381 409.836C797.157 409.987 796.977 410.195 796.842 410.461C796.712 410.727 796.618 411.031 796.561 411.375C796.509 411.714 796.482 412.073 796.482 412.453ZM801.037 411.656L800.115 411.953C800.11 411.49 800.167 411.044 800.287 410.617C800.407 410.19 800.584 409.81 800.818 409.477C801.058 409.143 801.355 408.88 801.709 408.688C802.063 408.49 802.475 408.391 802.943 408.391C803.329 408.391 803.67 408.451 803.967 408.57C804.264 408.69 804.514 408.875 804.717 409.125C804.925 409.37 805.081 409.685 805.186 410.07C805.29 410.456 805.342 410.914 805.342 411.445V417H803.959V411.43C803.959 410.956 803.899 410.589 803.779 410.328C803.665 410.062 803.501 409.878 803.287 409.773C803.074 409.664 802.818 409.609 802.522 409.609C802.282 409.609 802.068 409.664 801.881 409.773C801.699 409.883 801.545 410.034 801.42 410.227C801.295 410.414 801.199 410.63 801.131 410.875C801.068 411.12 801.037 411.38 801.037 411.656Z" fill="#242429"/>
<path d="M221.805 417H219.867L219.883 415.773H221.805C222.487 415.773 223.042 415.643 223.469 415.383C223.896 415.117 224.211 414.727 224.414 414.211C224.617 413.69 224.719 413.047 224.719 412.281V410.336C224.719 409.732 224.661 409.211 224.547 408.773C224.432 408.336 224.26 407.977 224.031 407.695C223.802 407.414 223.513 407.206 223.164 407.07C222.815 406.93 222.406 406.859 221.938 406.859H219.828V405.625H221.938C222.578 405.625 223.156 405.727 223.672 405.93C224.188 406.128 224.63 406.427 225 406.828C225.37 407.224 225.651 407.716 225.844 408.305C226.042 408.893 226.141 409.576 226.141 410.352V412.281C226.141 413.057 226.042 413.74 225.844 414.328C225.651 414.917 225.367 415.409 224.992 415.805C224.617 416.201 224.161 416.5 223.625 416.703C223.094 416.901 222.487 417 221.805 417ZM220.664 405.625V417H219.227V405.625H220.664ZM231.363 417.156C230.858 417.156 230.402 417.081 229.996 416.93C229.59 416.779 229.243 416.549 228.957 416.242C228.67 415.93 228.452 415.536 228.301 415.062C228.15 414.589 228.074 414.029 228.074 413.383V412.43C228.074 411.685 228.16 411.055 228.332 410.539C228.509 410.023 228.746 409.609 229.043 409.297C229.34 408.979 229.676 408.75 230.051 408.609C230.426 408.464 230.811 408.391 231.207 408.391C231.738 408.391 232.191 408.477 232.566 408.648C232.941 408.82 233.246 409.076 233.48 409.414C233.715 409.753 233.887 410.169 233.996 410.664C234.111 411.159 234.168 411.729 234.168 412.375V413.18H228.887V412H232.785V411.805C232.764 411.367 232.704 410.982 232.605 410.648C232.512 410.315 232.355 410.055 232.137 409.867C231.918 409.674 231.608 409.578 231.207 409.578C230.952 409.578 230.715 409.622 230.496 409.711C230.282 409.794 230.097 409.943 229.941 410.156C229.79 410.365 229.67 410.654 229.582 411.023C229.499 411.393 229.457 411.862 229.457 412.43V413.383C229.457 413.836 229.499 414.227 229.582 414.555C229.67 414.878 229.798 415.146 229.965 415.359C230.137 415.568 230.345 415.724 230.59 415.828C230.84 415.927 231.124 415.977 231.441 415.977C231.905 415.977 232.288 415.888 232.59 415.711C232.892 415.529 233.155 415.297 233.379 415.016L234.105 415.883C233.954 416.096 233.756 416.302 233.512 416.5C233.272 416.693 232.975 416.852 232.621 416.977C232.272 417.096 231.853 417.156 231.363 417.156ZM237.765 417H236.382V407.812C236.382 407.172 236.489 406.63 236.703 406.188C236.922 405.745 237.231 405.409 237.632 405.18C238.039 404.951 238.518 404.836 239.07 404.836C239.398 404.836 239.713 404.883 240.015 404.977C240.317 405.065 240.63 405.177 240.953 405.312L240.718 406.531C240.531 406.438 240.302 406.349 240.031 406.266C239.76 406.177 239.476 406.133 239.179 406.133C238.659 406.133 238.291 406.273 238.078 406.555C237.869 406.831 237.765 407.25 237.765 407.812V417ZM239.132 408.547V409.656H235.281V408.547H239.132ZM241.617 408.547V417H240.234V408.547H241.617ZM245.386 410.352V417H244.003V408.547H245.308L245.386 410.352ZM245.05 412.453L244.488 412.43C244.483 411.852 244.548 411.318 244.683 410.828C244.824 410.333 245.022 409.904 245.277 409.539C245.537 409.174 245.847 408.893 246.207 408.695C246.566 408.492 246.964 408.391 247.402 408.391C247.746 408.391 248.058 408.448 248.339 408.562C248.621 408.672 248.86 408.849 249.058 409.094C249.256 409.339 249.407 409.656 249.511 410.047C249.621 410.432 249.675 410.904 249.675 411.461V417H248.292V411.445C248.292 411.003 248.243 410.648 248.144 410.383C248.05 410.112 247.904 409.917 247.707 409.797C247.514 409.672 247.269 409.609 246.972 409.609C246.701 409.609 246.449 409.685 246.214 409.836C245.98 409.987 245.774 410.195 245.597 410.461C245.425 410.727 245.29 411.031 245.191 411.375C245.097 411.714 245.05 412.073 245.05 412.453ZM253.398 408.547V417H252.023V408.547H253.398ZM251.945 406.305C251.945 406.07 252.01 405.872 252.14 405.711C252.27 405.549 252.466 405.469 252.726 405.469C252.986 405.469 253.182 405.549 253.312 405.711C253.447 405.872 253.515 406.07 253.515 406.305C253.515 406.529 253.447 406.721 253.312 406.883C253.182 407.039 252.986 407.117 252.726 407.117C252.466 407.117 252.27 407.039 252.14 406.883C252.01 406.721 251.945 406.529 251.945 406.305ZM258.831 408.547V409.656H254.886V408.547H258.831ZM256.175 406.492H257.558V414.906C257.558 415.193 257.592 415.409 257.659 415.555C257.732 415.701 257.823 415.797 257.933 415.844C258.042 415.891 258.159 415.914 258.284 415.914C258.378 415.914 258.482 415.904 258.597 415.883C258.711 415.857 258.79 415.836 258.831 415.82L258.823 417C258.73 417.036 258.605 417.07 258.448 417.102C258.292 417.138 258.094 417.156 257.855 417.156C257.558 417.156 257.282 417.086 257.027 416.945C256.771 416.805 256.566 416.57 256.409 416.242C256.253 415.909 256.175 415.461 256.175 414.898V406.492ZM262.124 408.547V417H260.749V408.547H262.124ZM260.671 406.305C260.671 406.07 260.736 405.872 260.866 405.711C260.996 405.549 261.192 405.469 261.452 405.469C261.713 405.469 261.908 405.549 262.038 405.711C262.174 405.872 262.241 406.07 262.241 406.305C262.241 406.529 262.174 406.721 262.038 406.883C261.908 407.039 261.713 407.117 261.452 407.117C261.192 407.117 260.996 407.039 260.866 406.883C260.736 406.721 260.671 406.529 260.671 406.305ZM264.182 413.18V412.375C264.182 411.719 264.266 411.143 264.432 410.648C264.599 410.148 264.831 409.732 265.128 409.398C265.425 409.065 265.771 408.815 266.167 408.648C266.563 408.477 266.987 408.391 267.44 408.391C267.904 408.391 268.334 408.477 268.729 408.648C269.125 408.815 269.472 409.065 269.768 409.398C270.071 409.732 270.305 410.148 270.472 410.648C270.638 411.143 270.722 411.719 270.722 412.375V413.18C270.722 413.836 270.638 414.414 270.472 414.914C270.305 415.409 270.073 415.823 269.776 416.156C269.479 416.49 269.133 416.74 268.737 416.906C268.341 417.073 267.914 417.156 267.456 417.156C266.998 417.156 266.571 417.073 266.175 416.906C265.779 416.74 265.43 416.49 265.128 416.156C264.831 415.823 264.599 415.409 264.432 414.914C264.266 414.414 264.182 413.836 264.182 413.18ZM265.565 412.375V413.18C265.565 413.643 265.612 414.049 265.706 414.398C265.8 414.747 265.932 415.039 266.104 415.273C266.276 415.508 266.477 415.685 266.706 415.805C266.935 415.919 267.185 415.977 267.456 415.977C267.768 415.977 268.042 415.919 268.276 415.805C268.516 415.685 268.714 415.508 268.87 415.273C269.026 415.039 269.143 414.747 269.222 414.398C269.3 414.049 269.339 413.643 269.339 413.18V412.375C269.339 411.911 269.292 411.508 269.198 411.164C269.104 410.815 268.972 410.523 268.8 410.289C268.628 410.049 268.425 409.872 268.19 409.758C267.961 409.638 267.711 409.578 267.44 409.578C267.175 409.578 266.927 409.638 266.698 409.758C266.469 409.872 266.268 410.049 266.097 410.289C265.93 410.523 265.8 410.815 265.706 411.164C265.612 411.508 265.565 411.911 265.565 412.375ZM274.046 410.352V417H272.663V408.547H273.967L274.046 410.352ZM273.71 412.453L273.147 412.43C273.142 411.852 273.207 411.318 273.342 410.828C273.483 410.333 273.681 409.904 273.936 409.539C274.197 409.174 274.507 408.893 274.866 408.695C275.225 408.492 275.624 408.391 276.061 408.391C276.405 408.391 276.717 408.448 276.999 408.562C277.28 408.672 277.52 408.849 277.717 409.094C277.915 409.339 278.066 409.656 278.171 410.047C278.28 410.432 278.335 410.904 278.335 411.461V417H276.952V411.445C276.952 411.003 276.902 410.648 276.803 410.383C276.71 410.112 276.564 409.917 276.366 409.797C276.173 409.672 275.928 409.609 275.632 409.609C275.361 409.609 275.108 409.685 274.874 409.836C274.639 409.987 274.434 410.195 274.257 410.461C274.085 410.727 273.949 411.031 273.85 411.375C273.757 411.714 273.71 412.073 273.71 412.453Z" fill="#242429"/>
<path d="M899.203 248.125C899.203 247.859 899.172 247.625 899.109 247.422C899.047 247.214 898.938 247.026 898.781 246.859C898.625 246.693 898.406 246.534 898.125 246.383C897.844 246.232 897.487 246.078 897.055 245.922C896.586 245.755 896.161 245.57 895.781 245.367C895.401 245.159 895.076 244.922 894.805 244.656C894.539 244.391 894.333 244.086 894.188 243.742C894.042 243.398 893.969 243.005 893.969 242.562C893.969 242.12 894.044 241.711 894.195 241.336C894.352 240.961 894.57 240.635 894.852 240.359C895.138 240.078 895.482 239.859 895.883 239.703C896.284 239.547 896.732 239.469 897.227 239.469C897.966 239.469 898.589 239.633 899.094 239.961C899.604 240.284 899.99 240.708 900.25 241.234C900.51 241.755 900.641 242.312 900.641 242.906H899.203C899.203 242.479 899.133 242.102 898.992 241.773C898.857 241.44 898.643 241.18 898.352 240.992C898.065 240.799 897.69 240.703 897.227 240.703C896.81 240.703 896.466 240.784 896.195 240.945C895.93 241.107 895.732 241.326 895.602 241.602C895.477 241.878 895.414 242.193 895.414 242.547C895.414 242.786 895.456 243.005 895.539 243.203C895.622 243.396 895.75 243.576 895.922 243.742C896.099 243.909 896.318 244.062 896.578 244.203C896.844 244.344 897.156 244.479 897.516 244.609C898.073 244.792 898.549 244.995 898.945 245.219C899.341 245.443 899.664 245.695 899.914 245.977C900.164 246.253 900.346 246.568 900.461 246.922C900.581 247.271 900.641 247.667 900.641 248.109C900.641 248.573 900.562 248.992 900.406 249.367C900.255 249.742 900.034 250.062 899.742 250.328C899.451 250.594 899.099 250.799 898.688 250.945C898.276 251.086 897.812 251.156 897.297 251.156C896.849 251.156 896.409 251.083 895.977 250.938C895.549 250.792 895.161 250.573 894.812 250.281C894.464 249.99 894.185 249.63 893.977 249.203C893.768 248.771 893.664 248.271 893.664 247.703H895.102C895.102 248.094 895.159 248.43 895.273 248.711C895.388 248.987 895.547 249.216 895.75 249.398C895.953 249.581 896.185 249.716 896.445 249.805C896.711 249.888 896.995 249.93 897.297 249.93C897.714 249.93 898.062 249.857 898.344 249.711C898.63 249.565 898.844 249.357 898.984 249.086C899.13 248.815 899.203 248.495 899.203 248.125ZM906.637 249.555V244.969C906.637 244.635 906.584 244.367 906.48 244.164C906.381 243.961 906.23 243.812 906.027 243.719C905.829 243.625 905.579 243.578 905.277 243.578C904.986 243.578 904.733 243.638 904.519 243.758C904.311 243.878 904.15 244.036 904.035 244.234C903.926 244.432 903.871 244.651 903.871 244.891H902.488C902.488 244.589 902.553 244.289 902.683 243.992C902.819 243.695 903.012 243.427 903.262 243.188C903.512 242.943 903.811 242.75 904.16 242.609C904.514 242.464 904.91 242.391 905.347 242.391C905.868 242.391 906.329 242.477 906.73 242.648C907.131 242.815 907.446 243.089 907.676 243.469C907.905 243.849 908.019 244.354 908.019 244.984V249.156C908.019 249.438 908.04 249.737 908.082 250.055C908.129 250.372 908.194 250.646 908.277 250.875V251H906.847C906.78 250.833 906.728 250.612 906.691 250.336C906.655 250.055 906.637 249.794 906.637 249.555ZM906.855 245.875L906.871 246.891H905.91C905.582 246.891 905.282 246.927 905.012 247C904.746 247.073 904.517 247.18 904.324 247.32C904.131 247.456 903.983 247.625 903.879 247.828C903.78 248.031 903.73 248.263 903.73 248.523C903.73 248.862 903.777 249.133 903.871 249.336C903.965 249.534 904.105 249.677 904.293 249.766C904.48 249.854 904.717 249.898 905.004 249.898C905.353 249.898 905.66 249.818 905.926 249.656C906.191 249.495 906.397 249.299 906.543 249.07C906.694 248.841 906.764 248.628 906.754 248.43L907.058 249.078C907.038 249.281 906.97 249.503 906.855 249.742C906.746 249.977 906.592 250.203 906.394 250.422C906.196 250.635 905.962 250.812 905.691 250.953C905.426 251.089 905.126 251.156 904.793 251.156C904.303 251.156 903.874 251.062 903.504 250.875C903.139 250.688 902.855 250.411 902.652 250.047C902.449 249.682 902.347 249.232 902.347 248.695C902.347 248.289 902.418 247.914 902.558 247.57C902.699 247.227 902.907 246.93 903.183 246.68C903.459 246.424 903.806 246.227 904.222 246.086C904.644 245.945 905.131 245.875 905.683 245.875H906.855ZM912.164 250.125L914.047 242.547H915.515L912.726 252.305C912.659 252.513 912.567 252.737 912.453 252.977C912.343 253.221 912.203 253.453 912.031 253.672C911.859 253.891 911.653 254.068 911.414 254.203C911.174 254.344 910.893 254.414 910.57 254.414C910.471 254.414 910.343 254.398 910.187 254.367C910.036 254.336 909.927 254.31 909.859 254.289V253.117C909.89 253.122 909.94 253.128 910.007 253.133C910.075 253.143 910.125 253.148 910.156 253.148C910.427 253.148 910.656 253.104 910.843 253.016C911.036 252.932 911.2 252.789 911.336 252.586C911.471 252.388 911.586 252.115 911.679 251.766L912.164 250.125ZM910.945 242.547L912.625 249.109L912.984 250.633L912 251.164L909.437 242.547H910.945ZM922.249 239V251H920.867V239H922.249ZM921.913 246.453L921.351 246.43C921.346 245.852 921.411 245.318 921.546 244.828C921.687 244.333 921.885 243.904 922.14 243.539C922.4 243.174 922.71 242.893 923.07 242.695C923.429 242.492 923.827 242.391 924.265 242.391C924.609 242.391 924.921 242.448 925.202 242.562C925.484 242.672 925.723 242.849 925.921 243.094C926.119 243.339 926.27 243.656 926.374 244.047C926.484 244.432 926.538 244.904 926.538 245.461V251H925.156V245.445C925.156 245.003 925.106 244.648 925.007 244.383C924.913 244.112 924.768 243.917 924.57 243.797C924.377 243.672 924.132 243.609 923.835 243.609C923.564 243.609 923.312 243.685 923.077 243.836C922.843 243.987 922.637 244.195 922.46 244.461C922.288 244.727 922.153 245.031 922.054 245.375C921.96 245.714 921.913 246.073 921.913 246.453ZM931.784 251.156C931.279 251.156 930.823 251.081 930.417 250.93C930.011 250.779 929.665 250.549 929.378 250.242C929.092 249.93 928.873 249.536 928.722 249.062C928.571 248.589 928.495 248.029 928.495 247.383V246.43C928.495 245.685 928.581 245.055 928.753 244.539C928.93 244.023 929.167 243.609 929.464 243.297C929.761 242.979 930.097 242.75 930.472 242.609C930.847 242.464 931.232 242.391 931.628 242.391C932.159 242.391 932.612 242.477 932.987 242.648C933.362 242.82 933.667 243.076 933.902 243.414C934.136 243.753 934.308 244.169 934.417 244.664C934.532 245.159 934.589 245.729 934.589 246.375V247.18H929.308V246H933.206V245.805C933.185 245.367 933.126 244.982 933.027 244.648C932.933 244.315 932.777 244.055 932.558 243.867C932.339 243.674 932.029 243.578 931.628 243.578C931.373 243.578 931.136 243.622 930.917 243.711C930.704 243.794 930.519 243.943 930.362 244.156C930.211 244.365 930.092 244.654 930.003 245.023C929.92 245.393 929.878 245.862 929.878 246.43V247.383C929.878 247.836 929.92 248.227 930.003 248.555C930.092 248.878 930.219 249.146 930.386 249.359C930.558 249.568 930.766 249.724 931.011 249.828C931.261 249.927 931.545 249.977 931.862 249.977C932.326 249.977 932.709 249.888 933.011 249.711C933.313 249.529 933.576 249.297 933.8 249.016L934.527 249.883C934.376 250.096 934.178 250.302 933.933 250.5C933.693 250.693 933.396 250.852 933.042 250.977C932.693 251.096 932.274 251.156 931.784 251.156ZM937.905 239V251H936.53V239H937.905ZM941.737 239V251H940.362V239H941.737ZM943.796 247.18V246.375C943.796 245.719 943.879 245.143 944.046 244.648C944.212 244.148 944.444 243.732 944.741 243.398C945.038 243.065 945.384 242.815 945.78 242.648C946.176 242.477 946.6 242.391 947.053 242.391C947.517 242.391 947.947 242.477 948.342 242.648C948.738 242.815 949.085 243.065 949.382 243.398C949.684 243.732 949.918 244.148 950.085 244.648C950.251 245.143 950.335 245.719 950.335 246.375V247.18C950.335 247.836 950.251 248.414 950.085 248.914C949.918 249.409 949.686 249.823 949.389 250.156C949.092 250.49 948.746 250.74 948.35 250.906C947.954 251.073 947.527 251.156 947.069 251.156C946.611 251.156 946.184 251.073 945.788 250.906C945.392 250.74 945.043 250.49 944.741 250.156C944.444 249.823 944.212 249.409 944.046 248.914C943.879 248.414 943.796 247.836 943.796 247.18ZM945.178 246.375V247.18C945.178 247.643 945.225 248.049 945.319 248.398C945.413 248.747 945.546 249.039 945.717 249.273C945.889 249.508 946.09 249.685 946.319 249.805C946.548 249.919 946.798 249.977 947.069 249.977C947.382 249.977 947.655 249.919 947.889 249.805C948.129 249.685 948.327 249.508 948.483 249.273C948.639 249.039 948.757 248.747 948.835 248.398C948.913 248.049 948.952 247.643 948.952 247.18V246.375C948.952 245.911 948.905 245.508 948.811 245.164C948.717 244.815 948.585 244.523 948.413 244.289C948.241 244.049 948.038 243.872 947.803 243.758C947.574 243.638 947.324 243.578 947.053 243.578C946.788 243.578 946.54 243.638 946.311 243.758C946.082 243.872 945.882 244.049 945.71 244.289C945.543 244.523 945.413 244.815 945.319 245.164C945.225 245.508 945.178 245.911 945.178 246.375Z" fill="#242429"/>
<path fill-rule="evenodd" clip-rule="evenodd" d="M108.241 112.025C101.506 121.847 97 134.965 97 152.5C97 199.928 76.5306 223.718 56.0008 235.62C45.7522 241.562 35.5081 244.53 27.8292 246.014C26.8791 246.198 25.9681 246.359 25.101 246.5H204.308L524.002 246.5H524.005L524.017 246.5L524.019 246.5L524.021 246.5L524.054 246.5C524.092 246.499 524.149 246.499 524.224 246.497C524.29 246.496 524.37 246.494 524.463 246.492C524.585 246.488 524.729 246.484 524.896 246.477C525.486 246.455 526.354 246.409 527.461 246.317C529.674 246.134 532.839 245.767 536.64 245.033C544.242 243.563 554.373 240.626 564.499 234.755C584.719 223.032 605 199.572 605 152.5C605 134.785 609.556 121.465 616.416 111.459C623.273 101.458 632.411 94.7974 641.531 90.3629C650.65 85.9291 659.763 83.7147 666.592 82.608C670.007 82.0545 672.855 81.7775 674.85 81.6389C675.848 81.5696 676.633 81.5349 677.17 81.5175C677.438 81.5088 677.644 81.5044 677.784 81.5022C677.854 81.5011 677.907 81.5006 677.944 81.5003L677.985 81.5L677.996 81.5L677.999 81.5C677.999 81.5 678 81.5 678 82C678 82.5 678 82.5 678 82.5L677.998 82.5L677.989 82.5L677.951 82.5003C677.918 82.5005 677.867 82.501 677.8 82.5021C677.665 82.5042 677.465 82.5084 677.202 82.517C676.677 82.534 675.904 82.5681 674.919 82.6365C672.95 82.7733 670.133 83.0471 666.752 83.5951C659.987 84.6916 650.975 86.8834 641.969 91.2622C632.964 95.6402 623.977 102.199 617.24 112.025C610.506 121.847 606 134.965 606 152.5C606 199.928 585.531 223.718 565.001 235.62C554.752 241.562 544.508 244.53 536.829 246.014C535.879 246.198 534.968 246.359 534.101 246.5H841V247.5H534.101C534.968 247.641 535.879 247.802 536.829 247.986C544.508 249.47 554.752 252.438 565.001 258.38C585.531 270.282 606 294.072 606 341.5C606 359.035 610.506 372.153 617.24 381.975C623.977 391.801 632.964 398.36 641.969 402.738C650.975 407.117 659.987 409.308 666.752 410.405C670.133 410.953 672.95 411.227 674.919 411.363C675.904 411.432 676.677 411.466 677.202 411.483C677.465 411.492 677.665 411.496 677.8 411.498C677.867 411.499 677.918 411.499 677.951 411.5L677.989 411.5L677.998 411.5H678C678 411.5 678 411.5 678 412C678 412.28 678 412.403 678 412.457C677.999 412.5 677.999 412.5 677.999 412.5H677.996L677.985 412.5L677.944 412.5C677.907 412.499 677.854 412.499 677.784 412.498C677.644 412.496 677.438 412.491 677.17 412.483C676.633 412.465 675.848 412.43 674.85 412.361C672.855 412.223 670.007 411.946 666.592 411.392C659.763 410.285 650.65 408.071 641.531 403.637C632.411 399.203 623.273 392.542 616.416 382.541C609.556 372.535 605 359.215 605 341.5C605 294.428 584.719 270.968 564.499 259.245C554.373 253.374 544.242 250.437 536.64 248.967C532.839 248.233 529.674 247.866 527.461 247.683C526.354 247.591 525.486 247.545 524.896 247.523C524.601 247.511 524.375 247.506 524.224 247.503C524.149 247.501 524.092 247.501 524.054 247.5L524.023 247.5L524.017 247.5L524.005 247.5H524.002L204.308 247.5H25.101C25.9681 247.641 26.8791 247.802 27.8292 247.986C35.5081 249.47 45.7522 252.438 56.0008 258.38C76.5306 270.282 97 294.072 97 341.5C97 359.035 101.506 372.153 108.241 381.975C114.977 391.801 123.964 398.36 132.969 402.738C141.975 407.117 150.987 409.308 157.752 410.405C161.133 410.953 163.95 411.227 165.919 411.363C166.904 411.432 167.677 411.466 168.202 411.483C168.465 411.492 168.665 411.496 168.8 411.498L168.897 411.499L168.951 411.5L168.989 411.5L168.998 411.5H169C169 411.5 169 411.5 169 412C169 412.143 169 412.245 169 412.318L169 412.427C168.999 412.5 168.999 412.5 168.999 412.5H168.996L168.985 412.5L168.944 412.5C168.907 412.499 168.854 412.499 168.784 412.498C168.644 412.496 168.438 412.491 168.17 412.483C167.633 412.465 166.848 412.43 165.85 412.361C163.855 412.223 161.007 411.946 157.592 411.392C150.763 410.285 141.65 408.071 132.531 403.637C123.411 399.203 114.273 392.542 107.416 382.541C100.556 372.535 96 359.215 96 341.5C96 294.428 75.7194 270.968 55.4992 259.245C45.3728 253.374 35.2419 250.437 27.6395 248.967C23.8393 248.233 20.6738 247.866 18.4607 247.683C17.3542 247.591 16.4861 247.545 15.896 247.523C15.6009 247.511 15.3754 247.506 15.2244 247.503C15.149 247.501 15.0921 247.501 15.0545 247.5L15.0235 247.5L15.0171 247.5L15.0049 247.5H15.0015L15.0013 247.5H0V246.5H15.0013L15.0015 246.5H15.0049L15.0171 246.5L15.0192 246.5L15.0214 246.5L15.0545 246.5C15.0921 246.499 15.149 246.499 15.2244 246.497C15.3754 246.494 15.6009 246.489 15.896 246.477C16.4861 246.455 17.3542 246.409 18.4607 246.317C20.6738 246.134 23.8393 245.767 27.6395 245.033C35.2419 243.563 45.3728 240.626 55.4992 234.755C75.7194 223.032 96 199.572 96 152.5C96 134.785 100.556 121.465 107.416 111.459C114.273 101.458 123.411 94.7974 132.531 90.3629C141.65 85.9291 150.763 83.7147 157.592 82.608C161.007 82.0545 163.855 81.7775 165.85 81.6389C166.848 81.5696 167.633 81.5349 168.17 81.5175C168.438 81.5088 168.644 81.5044 168.784 81.5022C168.854 81.5011 168.907 81.5006 168.944 81.5003L168.985 81.5L168.996 81.5L168.999 81.5C168.999 81.5 169 81.5 169 82C169 82.5 169 82.5 169 82.5L168.998 82.5L168.989 82.5L168.951 82.5003C168.918 82.5005 168.867 82.501 168.8 82.5021C168.665 82.5042 168.465 82.5084 168.202 82.517C167.677 82.534 166.904 82.5681 165.919 82.6365C163.95 82.7733 161.133 83.0471 157.752 83.5951C150.987 84.6916 141.975 86.8834 132.969 91.2622C123.964 95.6402 114.977 102.199 108.241 112.025Z" fill="black"/>
<circle cx="14.9609" cy="247" r="2.5" fill="#F2F2F2" stroke="black"/>
<circle cx="524" cy="247" r="2.5" fill="#F2F2F2" stroke="black"/>
<circle cx="404.5" cy="245.5" r="81" fill="#F2F2F2" stroke="black"/>
<path d="M374.781 247.562L376.602 239.625H377.625L377.086 242.711L375.109 251H374.086L374.781 247.562ZM372.984 239.625L374.406 247.406L374.828 251H373.82L371.555 239.625H372.984ZM379.945 247.398L381.336 239.625H382.766L380.508 251H379.5L379.945 247.398ZM377.789 239.625L379.555 247.562L380.234 251H379.211L377.32 242.711L376.781 239.625H377.789ZM385.871 242.547V251H384.496V242.547H385.871ZM384.418 240.305C384.418 240.07 384.483 239.872 384.613 239.711C384.743 239.549 384.939 239.469 385.199 239.469C385.459 239.469 385.655 239.549 385.785 239.711C385.92 239.872 385.988 240.07 385.988 240.305C385.988 240.529 385.92 240.721 385.785 240.883C385.655 241.039 385.459 241.117 385.199 241.117C384.939 241.117 384.743 241.039 384.613 240.883C384.483 240.721 384.418 240.529 384.418 240.305ZM389.601 243.875V251H388.218V242.547H389.554L389.601 243.875ZM391.703 242.5L391.711 243.844C391.596 243.818 391.492 243.802 391.398 243.797C391.31 243.786 391.205 243.781 391.086 243.781C390.825 243.781 390.596 243.833 390.398 243.938C390.205 244.042 390.039 244.188 389.898 244.375C389.757 244.562 389.646 244.786 389.562 245.047C389.479 245.302 389.422 245.583 389.39 245.891L389.031 246.125C389.031 245.615 389.07 245.135 389.148 244.688C389.231 244.24 389.359 243.844 389.531 243.5C389.703 243.151 389.922 242.88 390.187 242.688C390.458 242.49 390.781 242.391 391.156 242.391C391.239 242.391 391.341 242.404 391.461 242.43C391.586 242.451 391.666 242.474 391.703 242.5ZM396.121 251.156C395.615 251.156 395.16 251.081 394.753 250.93C394.347 250.779 394.001 250.549 393.714 250.242C393.428 249.93 393.209 249.536 393.058 249.062C392.907 248.589 392.832 248.029 392.832 247.383V246.43C392.832 245.685 392.917 245.055 393.089 244.539C393.266 244.023 393.503 243.609 393.8 243.297C394.097 242.979 394.433 242.75 394.808 242.609C395.183 242.464 395.569 242.391 395.964 242.391C396.496 242.391 396.949 242.477 397.324 242.648C397.699 242.82 398.003 243.076 398.238 243.414C398.472 243.753 398.644 244.169 398.753 244.664C398.868 245.159 398.925 245.729 398.925 246.375V247.18H393.644V246H397.542V245.805C397.522 245.367 397.462 244.982 397.363 244.648C397.269 244.315 397.113 244.055 396.894 243.867C396.675 243.674 396.365 243.578 395.964 243.578C395.709 243.578 395.472 243.622 395.253 243.711C395.04 243.794 394.855 243.943 394.699 244.156C394.548 244.365 394.428 244.654 394.339 245.023C394.256 245.393 394.214 245.862 394.214 246.43V247.383C394.214 247.836 394.256 248.227 394.339 248.555C394.428 248.878 394.556 249.146 394.722 249.359C394.894 249.568 395.102 249.724 395.347 249.828C395.597 249.927 395.881 249.977 396.199 249.977C396.662 249.977 397.045 249.888 397.347 249.711C397.649 249.529 397.912 249.297 398.136 249.016L398.863 249.883C398.712 250.096 398.514 250.302 398.269 250.5C398.029 250.693 397.733 250.852 397.378 250.977C397.029 251.096 396.61 251.156 396.121 251.156ZM402.749 251H401.367V241.656C401.367 241.047 401.463 240.534 401.656 240.117C401.854 239.695 402.132 239.378 402.492 239.164C402.856 238.945 403.288 238.836 403.788 238.836C403.929 238.836 404.07 238.846 404.21 238.867C404.356 238.888 404.494 238.919 404.624 238.961L404.562 240.141C404.479 240.115 404.377 240.096 404.257 240.086C404.143 240.076 404.033 240.07 403.929 240.07C403.679 240.07 403.466 240.133 403.288 240.258C403.111 240.378 402.976 240.555 402.882 240.789C402.794 241.023 402.749 241.312 402.749 241.656V251ZM404.187 242.547V243.656H400.265V242.547H404.187ZM407.362 243.875V251H405.98V242.547H407.316L407.362 243.875ZM409.464 242.5L409.472 243.844C409.357 243.818 409.253 243.802 409.159 243.797C409.071 243.786 408.967 243.781 408.847 243.781C408.586 243.781 408.357 243.833 408.159 243.938C407.967 244.042 407.8 244.188 407.659 244.375C407.519 244.562 407.407 244.786 407.323 245.047C407.24 245.302 407.183 245.583 407.152 245.891L406.792 246.125C406.792 245.615 406.831 245.135 406.909 244.688C406.993 244.24 407.12 243.844 407.292 243.5C407.464 243.151 407.683 242.88 407.948 242.688C408.219 242.49 408.542 242.391 408.917 242.391C409.001 242.391 409.102 242.404 409.222 242.43C409.347 242.451 409.428 242.474 409.464 242.5ZM414.843 249.555V244.969C414.843 244.635 414.791 244.367 414.687 244.164C414.588 243.961 414.437 243.812 414.233 243.719C414.036 243.625 413.786 243.578 413.483 243.578C413.192 243.578 412.939 243.638 412.726 243.758C412.517 243.878 412.356 244.036 412.241 244.234C412.132 244.432 412.077 244.651 412.077 244.891H410.694C410.694 244.589 410.759 244.289 410.89 243.992C411.025 243.695 411.218 243.427 411.468 243.188C411.718 242.943 412.017 242.75 412.366 242.609C412.72 242.464 413.116 242.391 413.554 242.391C414.075 242.391 414.536 242.477 414.937 242.648C415.338 242.815 415.653 243.089 415.882 243.469C416.111 243.849 416.226 244.354 416.226 244.984V249.156C416.226 249.438 416.246 249.737 416.288 250.055C416.335 250.372 416.4 250.646 416.483 250.875V251H415.054C414.986 250.833 414.934 250.612 414.897 250.336C414.861 250.055 414.843 249.794 414.843 249.555ZM415.062 245.875L415.077 246.891H414.116C413.788 246.891 413.489 246.927 413.218 247C412.952 247.073 412.723 247.18 412.53 247.32C412.338 247.456 412.189 247.625 412.085 247.828C411.986 248.031 411.937 248.263 411.937 248.523C411.937 248.862 411.983 249.133 412.077 249.336C412.171 249.534 412.312 249.677 412.499 249.766C412.687 249.854 412.924 249.898 413.21 249.898C413.559 249.898 413.866 249.818 414.132 249.656C414.397 249.495 414.603 249.299 414.749 249.07C414.9 248.841 414.97 248.628 414.96 248.43L415.265 249.078C415.244 249.281 415.176 249.503 415.062 249.742C414.952 249.977 414.799 250.203 414.601 250.422C414.403 250.635 414.168 250.812 413.897 250.953C413.632 251.089 413.332 251.156 412.999 251.156C412.509 251.156 412.08 251.062 411.71 250.875C411.345 250.688 411.062 250.411 410.858 250.047C410.655 249.682 410.554 249.232 410.554 248.695C410.554 248.289 410.624 247.914 410.765 247.57C410.905 247.227 411.114 246.93 411.39 246.68C411.666 246.424 412.012 246.227 412.429 246.086C412.851 245.945 413.338 245.875 413.89 245.875H415.062ZM419.917 244.227V251H418.542V242.547H419.839L419.917 244.227ZM419.636 246.453L418.995 246.43C418.99 245.852 419.047 245.318 419.167 244.828C419.287 244.333 419.466 243.904 419.706 243.539C419.951 243.174 420.255 242.893 420.62 242.695C420.99 242.492 421.419 242.391 421.909 242.391C422.232 242.391 422.531 242.448 422.807 242.562C423.089 242.672 423.334 242.846 423.542 243.086C423.75 243.326 423.912 243.633 424.026 244.008C424.146 244.383 424.206 244.836 424.206 245.367V251H422.823V245.438C422.823 244.995 422.763 244.641 422.643 244.375C422.529 244.109 422.365 243.917 422.151 243.797C421.938 243.672 421.682 243.609 421.386 243.609C421.047 243.609 420.763 243.685 420.534 243.836C420.31 243.987 420.13 244.195 419.995 244.461C419.865 244.727 419.771 245.031 419.714 245.375C419.662 245.714 419.636 246.073 419.636 246.453ZM424.19 245.656L423.268 245.953C423.263 245.49 423.321 245.044 423.44 244.617C423.56 244.19 423.737 243.81 423.972 243.477C424.211 243.143 424.508 242.88 424.862 242.688C425.216 242.49 425.628 242.391 426.097 242.391C426.482 242.391 426.823 242.451 427.12 242.57C427.417 242.69 427.667 242.875 427.87 243.125C428.078 243.37 428.235 243.685 428.339 244.07C428.443 244.456 428.495 244.914 428.495 245.445V251H427.112V245.43C427.112 244.956 427.052 244.589 426.932 244.328C426.818 244.062 426.654 243.878 426.44 243.773C426.227 243.664 425.972 243.609 425.675 243.609C425.435 243.609 425.222 243.664 425.034 243.773C424.852 243.883 424.698 244.034 424.573 244.227C424.448 244.414 424.352 244.63 424.284 244.875C424.222 245.12 424.19 245.38 424.19 245.656ZM433.764 251.156C433.259 251.156 432.803 251.081 432.397 250.93C431.991 250.779 431.645 250.549 431.358 250.242C431.072 249.93 430.853 249.536 430.702 249.062C430.551 248.589 430.475 248.029 430.475 247.383V246.43C430.475 245.685 430.561 245.055 430.733 244.539C430.91 244.023 431.147 243.609 431.444 243.297C431.741 242.979 432.077 242.75 432.452 242.609C432.827 242.464 433.212 242.391 433.608 242.391C434.139 242.391 434.592 242.477 434.967 242.648C435.342 242.82 435.647 243.076 435.882 243.414C436.116 243.753 436.288 244.169 436.397 244.664C436.512 245.159 436.569 245.729 436.569 246.375V247.18H431.288V246H435.186V245.805C435.165 245.367 435.106 244.982 435.007 244.648C434.913 244.315 434.757 244.055 434.538 243.867C434.319 243.674 434.009 243.578 433.608 243.578C433.353 243.578 433.116 243.622 432.897 243.711C432.684 243.794 432.499 243.943 432.342 244.156C432.191 244.365 432.072 244.654 431.983 245.023C431.9 245.393 431.858 245.862 431.858 246.43V247.383C431.858 247.836 431.9 248.227 431.983 248.555C432.072 248.878 432.199 249.146 432.366 249.359C432.538 249.568 432.746 249.724 432.991 249.828C433.241 249.927 433.525 249.977 433.842 249.977C434.306 249.977 434.689 249.888 434.991 249.711C435.293 249.529 435.556 249.297 435.78 249.016L436.507 249.883C436.356 250.096 436.158 250.302 435.913 250.5C435.673 250.693 435.376 250.852 435.022 250.977C434.673 251.096 434.254 251.156 433.764 251.156Z" fill="#242429"/>
</svg>
