<svg width="1022" height="495" viewBox="0 0 1022 495" fill="none" xmlns="http://www.w3.org/2000/svg">
<path d="M0 247.499H26M26 247.499C26 247.499 114 237.499 114 157.499C114 77.4992 186 82.4992 186 82.4992M26 247.499C26 247.499 114 259.499 114 339.499C114 419.499 186.5 414.499 186.5 414.499M26 247.499H538M538 247.499C538 247.499 606.5 237.499 606.5 157.499C606.5 77.4992 695.5 82.4992 695.5 82.4992M538 247.499C538 247.499 606.5 262.499 606.5 338.499C606.5 414.499 695.5 414.499 695.5 414.499M538 247.499H858.5" stroke="black"/>
<circle cx="940" cy="245.5" r="81" stroke="black"/>
<circle cx="267" cy="413.5" r="81" stroke="black"/>
<circle cx="267" cy="81.5" r="81" stroke="black"/>
<circle cx="777" cy="413.5" r="81" stroke="black"/>
<circle cx="777" cy="81.5" r="81" stroke="black"/>
<path d="M744.898 81.5156V82.7422H739.969V81.5156H744.898ZM740.164 76.625V88H738.727V76.625H740.164ZM746.172 76.625V88H744.734V76.625H746.172ZM750.105 79.5469V88H748.73V79.5469H750.105ZM748.652 77.3047C748.652 77.0703 748.717 76.8724 748.847 76.7109C748.978 76.5495 749.173 76.4688 749.433 76.4688C749.694 76.4688 749.889 76.5495 750.019 76.7109C750.155 76.8724 750.222 77.0703 750.222 77.3047C750.222 77.5286 750.155 77.7214 750.019 77.8828C749.889 78.0391 749.694 78.1172 749.433 78.1172C749.173 78.1172 748.978 78.0391 748.847 77.8828C748.717 77.7214 748.652 77.5286 748.652 77.3047ZM757.031 79.5469H758.273V88.0703C758.273 88.8151 758.143 89.4297 757.882 89.9141C757.627 90.3984 757.271 90.7552 756.812 90.9844C756.354 91.2188 755.825 91.3359 755.226 91.3359C755.013 91.3359 754.744 91.2969 754.422 91.2188C754.099 91.1406 753.776 91.0208 753.453 90.8594C753.13 90.7031 752.864 90.5052 752.656 90.2656L753.226 89.3047C753.523 89.6068 753.838 89.8229 754.172 89.9531C754.505 90.0833 754.823 90.1484 755.125 90.1484C755.484 90.1484 755.797 90.0833 756.062 89.9531C756.328 89.8229 756.534 89.6094 756.679 89.3125C756.825 89.0208 756.898 88.6302 756.898 88.1406V81.4062L757.031 79.5469ZM752.172 84.1797V83.3906C752.172 82.6927 752.237 82.0938 752.367 81.5938C752.497 81.0885 752.685 80.6745 752.929 80.3516C753.179 80.0234 753.479 79.7812 753.828 79.625C754.177 79.4688 754.567 79.3906 755 79.3906C755.437 79.3906 755.815 79.4792 756.132 79.6562C756.45 79.8333 756.713 80.0911 756.922 80.4297C757.135 80.763 757.302 81.1693 757.422 81.6484C757.547 82.1224 757.632 82.6589 757.679 83.2578V84.3125C757.632 84.9062 757.547 85.4401 757.422 85.9141C757.302 86.388 757.132 86.7917 756.914 87.125C756.7 87.4583 756.435 87.7135 756.117 87.8906C755.799 88.0677 755.422 88.1562 754.984 88.1562C754.557 88.1562 754.172 88.0755 753.828 87.9141C753.484 87.7474 753.187 87.5 752.937 87.1719C752.692 86.8385 752.502 86.4245 752.367 85.9297C752.237 85.4297 752.172 84.8464 752.172 84.1797ZM753.554 83.3906V84.1797C753.554 84.6484 753.588 85.0573 753.656 85.4062C753.724 85.75 753.828 86.0365 753.968 86.2656C754.114 86.4896 754.299 86.6562 754.523 86.7656C754.752 86.875 755.026 86.9297 755.343 86.9297C755.729 86.9297 756.044 86.8359 756.289 86.6484C756.534 86.4609 756.729 86.2135 756.875 85.9062C757.026 85.5938 757.146 85.2578 757.234 84.8984V82.6797C757.182 82.4141 757.106 82.1589 757.007 81.9141C756.914 81.6641 756.791 81.4427 756.64 81.25C756.489 81.0521 756.307 80.8958 756.093 80.7812C755.885 80.6667 755.64 80.6094 755.359 80.6094C755.041 80.6094 754.768 80.6667 754.539 80.7812C754.31 80.8958 754.122 81.0677 753.976 81.2969C753.83 81.526 753.724 81.8151 753.656 82.1641C753.588 82.513 753.554 82.9219 753.554 83.3906ZM761.886 76V88H760.503V76H761.886ZM761.55 83.4531L760.988 83.4297C760.983 82.8516 761.048 82.3177 761.183 81.8281C761.324 81.3333 761.522 80.9036 761.777 80.5391C762.037 80.1745 762.347 79.8932 762.707 79.6953C763.066 79.4922 763.464 79.3906 763.902 79.3906C764.246 79.3906 764.558 79.4479 764.839 79.5625C765.121 79.6719 765.36 79.849 765.558 80.0938C765.756 80.3385 765.907 80.6562 766.011 81.0469C766.121 81.4323 766.175 81.9036 766.175 82.4609V88H764.792V82.4453C764.792 82.0026 764.743 81.6484 764.644 81.3828C764.55 81.112 764.404 80.9167 764.207 80.7969C764.014 80.6719 763.769 80.6094 763.472 80.6094C763.201 80.6094 762.949 80.6849 762.714 80.8359C762.48 80.987 762.274 81.1953 762.097 81.4609C761.925 81.7266 761.79 82.0312 761.691 82.375C761.597 82.7135 761.55 83.0729 761.55 83.4531ZM778.589 81.5156V82.7422H773.659V81.5156H778.589ZM773.855 76.625V88H772.417V76.625H773.855ZM779.862 76.625V88H778.425V76.625H779.862ZM783.796 79.5469V88H782.421V79.5469H783.796ZM782.343 77.3047C782.343 77.0703 782.408 76.8724 782.538 76.7109C782.668 76.5495 782.864 76.4688 783.124 76.4688C783.384 76.4688 783.58 76.5495 783.71 76.7109C783.845 76.8724 783.913 77.0703 783.913 77.3047C783.913 77.5286 783.845 77.7214 783.71 77.8828C783.58 78.0391 783.384 78.1172 783.124 78.1172C782.864 78.1172 782.668 78.0391 782.538 77.8828C782.408 77.7214 782.343 77.5286 782.343 77.3047ZM790.573 86.3594V76H791.948V88H790.69L790.573 86.3594ZM785.847 84.1797V83.3906C785.847 82.6927 785.914 82.0938 786.05 81.5938C786.185 81.0885 786.378 80.6745 786.628 80.3516C786.878 80.0234 787.177 79.7812 787.526 79.625C787.875 79.4688 788.261 79.3906 788.682 79.3906C789.12 79.3906 789.495 79.4792 789.807 79.6562C790.125 79.8333 790.391 80.0911 790.604 80.4297C790.818 80.763 790.985 81.1693 791.104 81.6484C791.229 82.1224 791.313 82.6589 791.354 83.2578V84.3125C791.307 84.9062 791.222 85.4401 791.097 85.9141C790.977 86.388 790.81 86.7917 790.597 87.125C790.383 87.4583 790.117 87.7135 789.8 87.8906C789.482 88.0677 789.104 88.1562 788.667 88.1562C788.25 88.1562 787.87 88.0755 787.526 87.9141C787.182 87.7474 786.883 87.5 786.628 87.1719C786.378 86.8385 786.185 86.4245 786.05 85.9297C785.914 85.4297 785.847 84.8464 785.847 84.1797ZM787.229 83.3906V84.1797C787.229 84.6484 787.263 85.0573 787.331 85.4062C787.399 85.75 787.505 86.0365 787.651 86.2656C787.797 86.4896 787.982 86.6562 788.206 86.7656C788.435 86.875 788.709 86.9297 789.026 86.9297C789.412 86.9297 789.727 86.8359 789.972 86.6484C790.216 86.4609 790.412 86.2135 790.557 85.9062C790.709 85.5938 790.828 85.2578 790.917 84.8984V82.6797C790.865 82.4141 790.789 82.1589 790.69 81.9141C790.591 81.6641 790.466 81.4427 790.315 81.25C790.169 81.0521 789.99 80.8958 789.776 80.7812C789.568 80.6667 789.323 80.6094 789.042 80.6094C788.724 80.6094 788.448 80.6667 788.214 80.7812C787.985 80.8958 787.797 81.0677 787.651 81.2969C787.511 81.526 787.404 81.8151 787.331 82.1641C787.263 82.513 787.229 82.9219 787.229 83.3906ZM795.725 79.5469V88H794.35V79.5469H795.725ZM794.272 77.3047C794.272 77.0703 794.337 76.8724 794.467 76.7109C794.598 76.5495 794.793 76.4688 795.053 76.4688C795.314 76.4688 795.509 76.5495 795.639 76.7109C795.775 76.8724 795.842 77.0703 795.842 77.3047C795.842 77.5286 795.775 77.7214 795.639 77.8828C795.509 78.0391 795.314 78.1172 795.053 78.1172C794.793 78.1172 794.598 78.0391 794.467 77.8828C794.337 77.7214 794.272 77.5286 794.272 77.3047ZM799.557 76V88H798.182V76H799.557ZM803.389 79.5469V88H802.014V79.5469H803.389ZM801.936 77.3047C801.936 77.0703 802.001 76.8724 802.131 76.7109C802.261 76.5495 802.457 76.4688 802.717 76.4688C802.978 76.4688 803.173 76.5495 803.303 76.7109C803.439 76.8724 803.506 77.0703 803.506 77.3047C803.506 77.5286 803.439 77.7214 803.303 77.8828C803.173 78.0391 802.978 78.1172 802.717 78.1172C802.457 78.1172 802.261 78.0391 802.131 77.8828C802.001 77.7214 801.936 77.5286 801.936 77.3047ZM808.823 79.5469V80.6562H804.877V79.5469H808.823ZM806.166 77.4922H807.549V85.9062C807.549 86.1927 807.583 86.4089 807.651 86.5547C807.724 86.7005 807.815 86.7969 807.924 86.8438C808.033 86.8906 808.151 86.9141 808.276 86.9141C808.369 86.9141 808.474 86.9036 808.588 86.8828C808.703 86.8568 808.781 86.8359 808.823 86.8203L808.815 88C808.721 88.0365 808.596 88.0703 808.44 88.1016C808.283 88.138 808.086 88.1562 807.846 88.1562C807.549 88.1562 807.273 88.0859 807.018 87.9453C806.763 87.8047 806.557 87.5703 806.401 87.2422C806.244 86.9089 806.166 86.4609 806.166 85.8984V77.4922ZM812.592 87.125L814.475 79.5469H815.943L813.154 89.3047C813.087 89.513 812.996 89.737 812.881 89.9766C812.772 90.2214 812.631 90.4531 812.459 90.6719C812.287 90.8906 812.081 91.0677 811.842 91.2031C811.602 91.3438 811.321 91.4141 810.998 91.4141C810.899 91.4141 810.772 91.3984 810.615 91.3672C810.464 91.3359 810.355 91.3099 810.287 91.2891V90.1172C810.318 90.1224 810.368 90.1276 810.436 90.1328C810.503 90.1432 810.553 90.1484 810.584 90.1484C810.855 90.1484 811.084 90.1042 811.272 90.0156C811.464 89.9323 811.628 89.7891 811.764 89.5859C811.899 89.388 812.014 89.1146 812.107 88.7656L812.592 87.125ZM811.373 79.5469L813.053 86.1094L813.412 87.6328L812.428 88.1641L809.865 79.5469H811.373Z" fill="#242429"/>
<path d="M239.305 87H237.367L237.383 85.7734H239.305C239.987 85.7734 240.542 85.6432 240.969 85.3828C241.396 85.1172 241.711 84.7266 241.914 84.2109C242.117 83.6901 242.219 83.0469 242.219 82.2812V80.3359C242.219 79.7318 242.161 79.2109 242.047 78.7734C241.932 78.3359 241.76 77.9766 241.531 77.6953C241.302 77.4141 241.013 77.2057 240.664 77.0703C240.315 76.9297 239.906 76.8594 239.438 76.8594H237.328V75.625H239.438C240.078 75.625 240.656 75.7266 241.172 75.9297C241.688 76.1276 242.13 76.4271 242.5 76.8281C242.87 77.224 243.151 77.7161 243.344 78.3047C243.542 78.8932 243.641 79.5755 243.641 80.3516V82.2812C243.641 83.0573 243.542 83.7396 243.344 84.3281C243.151 84.9167 242.867 85.4089 242.492 85.8047C242.117 86.2005 241.661 86.5 241.125 86.7031C240.594 86.901 239.987 87 239.305 87ZM238.164 75.625V87H236.727V75.625H238.164ZM247.324 78.5469V87H245.949V78.5469H247.324ZM245.871 76.3047C245.871 76.0703 245.936 75.8724 246.066 75.7109C246.196 75.5495 246.392 75.4688 246.652 75.4688C246.913 75.4688 247.108 75.5495 247.238 75.7109C247.374 75.8724 247.441 76.0703 247.441 76.3047C247.441 76.5286 247.374 76.7214 247.238 76.8828C247.108 77.0391 246.913 77.1172 246.652 77.1172C246.392 77.1172 246.196 77.0391 246.066 76.8828C245.936 76.7214 245.871 76.5286 245.871 76.3047ZM253.773 84.8359C253.773 84.6224 253.721 84.4349 253.617 84.2734C253.513 84.112 253.341 83.9557 253.101 83.8047C252.867 83.6536 252.549 83.4922 252.148 83.3203C251.757 83.1589 251.406 83 251.093 82.8438C250.786 82.6823 250.526 82.5078 250.312 82.3203C250.099 82.1328 249.935 81.9167 249.82 81.6719C249.711 81.4219 249.656 81.1276 249.656 80.7891C249.656 80.4505 249.718 80.138 249.843 79.8516C249.974 79.5599 250.156 79.3047 250.39 79.0859C250.625 78.8672 250.906 78.6979 251.234 78.5781C251.562 78.4531 251.929 78.3906 252.336 78.3906C252.914 78.3906 253.406 78.5026 253.812 78.7266C254.218 78.9505 254.528 79.2578 254.742 79.6484C254.961 80.0339 255.07 80.4688 255.07 80.9531H253.695C253.695 80.7188 253.643 80.4974 253.539 80.2891C253.435 80.0807 253.281 79.9115 253.078 79.7812C252.875 79.6458 252.627 79.5781 252.336 79.5781C252.028 79.5781 251.778 79.6328 251.586 79.7422C251.393 79.8516 251.252 79.9948 251.164 80.1719C251.08 80.3438 251.039 80.5339 251.039 80.7422C251.039 80.8984 251.06 81.0339 251.101 81.1484C251.148 81.2578 251.226 81.362 251.336 81.4609C251.445 81.5547 251.593 81.6536 251.781 81.7578C251.974 81.8568 252.218 81.9714 252.515 82.1016C253.088 82.3255 253.57 82.5521 253.961 82.7812C254.351 83.0104 254.648 83.2786 254.851 83.5859C255.054 83.8932 255.156 84.2734 255.156 84.7266C255.156 85.0964 255.088 85.4323 254.953 85.7344C254.823 86.0312 254.635 86.2865 254.39 86.5C254.146 86.7135 253.851 86.8776 253.507 86.9922C253.169 87.1016 252.789 87.1562 252.367 87.1562C251.731 87.1562 251.192 87.0312 250.75 86.7812C250.312 86.526 249.979 86.1953 249.75 85.7891C249.526 85.3776 249.414 84.9375 249.414 84.4688H250.797C250.812 84.8646 250.901 85.1719 251.062 85.3906C251.229 85.6094 251.429 85.7604 251.664 85.8438C251.898 85.9271 252.132 85.9688 252.367 85.9688C252.674 85.9688 252.932 85.9245 253.14 85.8359C253.349 85.7422 253.505 85.6094 253.609 85.4375C253.718 85.2656 253.773 85.0651 253.773 84.8359ZM260.058 85.9766C260.334 85.9766 260.584 85.9219 260.808 85.8125C261.037 85.6979 261.225 85.5208 261.371 85.2812C261.516 85.0365 261.6 84.7188 261.621 84.3281H262.917C262.897 84.8906 262.753 85.3854 262.488 85.8125C262.227 86.2344 261.884 86.5651 261.457 86.8047C261.035 87.0391 260.569 87.1562 260.058 87.1562C259.511 87.1562 259.035 87.0677 258.628 86.8906C258.227 86.7135 257.894 86.4583 257.628 86.125C257.368 85.7865 257.173 85.3776 257.042 84.8984C256.912 84.4141 256.847 83.8646 256.847 83.25V82.2969C256.847 81.6823 256.912 81.1354 257.042 80.6562C257.173 80.1719 257.368 79.763 257.628 79.4297C257.894 79.0911 258.227 78.8333 258.628 78.6562C259.035 78.4792 259.511 78.3906 260.058 78.3906C260.631 78.3906 261.126 78.513 261.542 78.7578C261.964 78.9974 262.292 79.3464 262.527 79.8047C262.766 80.2578 262.897 80.8073 262.917 81.4531H261.621C261.6 81.0365 261.524 80.6901 261.394 80.4141C261.264 80.1328 261.087 79.9245 260.863 79.7891C260.639 79.6484 260.371 79.5781 260.058 79.5781C259.694 79.5781 259.391 79.6432 259.152 79.7734C258.917 79.8984 258.733 80.0807 258.597 80.3203C258.462 80.5599 258.365 80.8464 258.308 81.1797C258.256 81.513 258.23 81.8854 258.23 82.2969V83.25C258.23 83.6615 258.256 84.0365 258.308 84.375C258.365 84.7083 258.459 84.9948 258.589 85.2344C258.725 85.474 258.912 85.6589 259.152 85.7891C259.391 85.9141 259.694 85.9766 260.058 85.9766ZM264.39 83.1797V82.375C264.39 81.7188 264.473 81.1432 264.64 80.6484C264.807 80.1484 265.038 79.7318 265.335 79.3984C265.632 79.0651 265.979 78.8151 266.374 78.6484C266.77 78.4766 267.195 78.3906 267.648 78.3906C268.111 78.3906 268.541 78.4766 268.937 78.6484C269.333 78.8151 269.679 79.0651 269.976 79.3984C270.278 79.7318 270.512 80.1484 270.679 80.6484C270.846 81.1432 270.929 81.7188 270.929 82.375V83.1797C270.929 83.8359 270.846 84.4141 270.679 84.9141C270.512 85.4089 270.281 85.8229 269.984 86.1562C269.687 86.4896 269.341 86.7396 268.945 86.9062C268.549 87.0729 268.122 87.1562 267.663 87.1562C267.205 87.1562 266.778 87.0729 266.382 86.9062C265.986 86.7396 265.637 86.4896 265.335 86.1562C265.038 85.8229 264.807 85.4089 264.64 84.9141C264.473 84.4141 264.39 83.8359 264.39 83.1797ZM265.773 82.375V83.1797C265.773 83.6432 265.82 84.0495 265.913 84.3984C266.007 84.7474 266.14 85.0391 266.312 85.2734C266.484 85.5078 266.684 85.6849 266.913 85.8047C267.143 85.9193 267.393 85.9766 267.663 85.9766C267.976 85.9766 268.249 85.9193 268.484 85.8047C268.723 85.6849 268.921 85.5078 269.077 85.2734C269.234 85.0391 269.351 84.7474 269.429 84.3984C269.507 84.0495 269.546 83.6432 269.546 83.1797V82.375C269.546 81.9115 269.499 81.5078 269.406 81.1641C269.312 80.8151 269.179 80.5234 269.007 80.2891C268.835 80.0495 268.632 79.8724 268.398 79.7578C268.169 79.638 267.919 79.5781 267.648 79.5781C267.382 79.5781 267.135 79.638 266.906 79.7578C266.676 79.8724 266.476 80.0495 266.304 80.2891C266.137 80.5234 266.007 80.8151 265.913 81.1641C265.82 81.5078 265.773 81.9115 265.773 82.375ZM274.933 85.6953L276.745 78.5469H278.152L275.644 87H274.73L274.933 85.6953ZM273.472 78.5469L275.362 85.7344L275.511 87H274.605L272.066 78.5469H273.472ZM282.663 87.1562C282.158 87.1562 281.702 87.0807 281.296 86.9297C280.89 86.7786 280.543 86.5495 280.257 86.2422C279.97 85.9297 279.752 85.5365 279.601 85.0625C279.45 84.5885 279.374 84.0286 279.374 83.3828V82.4297C279.374 81.6849 279.46 81.0547 279.632 80.5391C279.809 80.0234 280.046 79.6094 280.343 79.2969C280.64 78.9792 280.976 78.75 281.351 78.6094C281.726 78.4635 282.111 78.3906 282.507 78.3906C283.038 78.3906 283.491 78.4766 283.866 78.6484C284.241 78.8203 284.546 79.0755 284.78 79.4141C285.015 79.7526 285.187 80.1693 285.296 80.6641C285.411 81.1589 285.468 81.7292 285.468 82.375V83.1797H280.187V82H284.085V81.8047C284.064 81.3672 284.004 80.9818 283.905 80.6484C283.812 80.3151 283.655 80.0547 283.437 79.8672C283.218 79.6745 282.908 79.5781 282.507 79.5781C282.252 79.5781 282.015 79.6224 281.796 79.7109C281.582 79.7943 281.397 79.9427 281.241 80.1562C281.09 80.3646 280.97 80.6536 280.882 81.0234C280.799 81.3932 280.757 81.862 280.757 82.4297V83.3828C280.757 83.8359 280.799 84.2266 280.882 84.5547C280.97 84.8776 281.098 85.1458 281.265 85.3594C281.437 85.5677 281.645 85.724 281.89 85.8281C282.14 85.9271 282.424 85.9766 282.741 85.9766C283.205 85.9766 283.588 85.888 283.89 85.7109C284.192 85.5286 284.455 85.2969 284.679 85.0156L285.405 85.8828C285.254 86.0964 285.056 86.3021 284.812 86.5C284.572 86.6927 284.275 86.8516 283.921 86.9766C283.572 87.0964 283.153 87.1562 282.663 87.1562ZM288.682 79.875V87H287.3V78.5469H288.636L288.682 79.875ZM290.784 78.5L290.792 79.8438C290.677 79.8177 290.573 79.8021 290.479 79.7969C290.391 79.7865 290.287 79.7812 290.167 79.7812C289.906 79.7812 289.677 79.8333 289.479 79.9375C289.287 80.0417 289.12 80.1875 288.979 80.375C288.839 80.5625 288.727 80.7865 288.643 81.0469C288.56 81.3021 288.503 81.5833 288.472 81.8906L288.112 82.125C288.112 81.6146 288.151 81.1354 288.229 80.6875C288.313 80.2396 288.44 79.8438 288.612 79.5C288.784 79.151 289.003 78.8802 289.268 78.6875C289.539 78.4896 289.862 78.3906 290.237 78.3906C290.321 78.3906 290.422 78.4036 290.542 78.4297C290.667 78.4505 290.748 78.474 290.784 78.5ZM294.436 86.125L296.319 78.5469H297.788L294.999 88.3047C294.931 88.513 294.84 88.737 294.725 88.9766C294.616 89.2214 294.475 89.4531 294.303 89.6719C294.132 89.8906 293.926 90.0677 293.686 90.2031C293.447 90.3438 293.165 90.4141 292.842 90.4141C292.744 90.4141 292.616 90.3984 292.46 90.3672C292.309 90.3359 292.199 90.3099 292.132 90.2891V89.1172C292.163 89.1224 292.212 89.1276 292.28 89.1328C292.348 89.1432 292.397 89.1484 292.428 89.1484C292.699 89.1484 292.928 89.1042 293.116 89.0156C293.309 88.9323 293.473 88.7891 293.608 88.5859C293.744 88.388 293.858 88.1146 293.952 87.7656L294.436 86.125ZM293.217 78.5469L294.897 85.1094L295.257 86.6328L294.272 87.1641L291.71 78.5469H293.217Z" fill="#242429"/>
<path d="M733.305 417H731.367L731.383 415.773H733.305C733.987 415.773 734.542 415.643 734.969 415.383C735.396 415.117 735.711 414.727 735.914 414.211C736.117 413.69 736.219 413.047 736.219 412.281V410.336C736.219 409.732 736.161 409.211 736.047 408.773C735.932 408.336 735.76 407.977 735.531 407.695C735.302 407.414 735.013 407.206 734.664 407.07C734.315 406.93 733.906 406.859 733.438 406.859H731.328V405.625H733.438C734.078 405.625 734.656 405.727 735.172 405.93C735.688 406.128 736.13 406.427 736.5 406.828C736.87 407.224 737.151 407.716 737.344 408.305C737.542 408.893 737.641 409.576 737.641 410.352V412.281C737.641 413.057 737.542 413.74 737.344 414.328C737.151 414.917 736.867 415.409 736.492 415.805C736.117 416.201 735.661 416.5 735.125 416.703C734.594 416.901 733.987 417 733.305 417ZM732.164 405.625V417H730.727V405.625H732.164ZM742.863 417.156C742.358 417.156 741.902 417.081 741.496 416.93C741.09 416.779 740.743 416.549 740.457 416.242C740.17 415.93 739.952 415.536 739.801 415.062C739.65 414.589 739.574 414.029 739.574 413.383V412.43C739.574 411.685 739.66 411.055 739.832 410.539C740.009 410.023 740.246 409.609 740.543 409.297C740.84 408.979 741.176 408.75 741.551 408.609C741.926 408.464 742.311 408.391 742.707 408.391C743.238 408.391 743.691 408.477 744.066 408.648C744.441 408.82 744.746 409.076 744.98 409.414C745.215 409.753 745.387 410.169 745.496 410.664C745.611 411.159 745.668 411.729 745.668 412.375V413.18H740.387V412H744.285V411.805C744.264 411.367 744.204 410.982 744.105 410.648C744.012 410.315 743.855 410.055 743.637 409.867C743.418 409.674 743.108 409.578 742.707 409.578C742.452 409.578 742.215 409.622 741.996 409.711C741.782 409.794 741.597 409.943 741.441 410.156C741.29 410.365 741.17 410.654 741.082 411.023C740.999 411.393 740.957 411.862 740.957 412.43V413.383C740.957 413.836 740.999 414.227 741.082 414.555C741.17 414.878 741.298 415.146 741.465 415.359C741.637 415.568 741.845 415.724 742.09 415.828C742.34 415.927 742.624 415.977 742.941 415.977C743.405 415.977 743.788 415.888 744.09 415.711C744.392 415.529 744.655 415.297 744.879 415.016L745.605 415.883C745.454 416.096 745.256 416.302 745.012 416.5C744.772 416.693 744.475 416.852 744.121 416.977C743.772 417.096 743.353 417.156 742.863 417.156ZM751.601 414.836C751.601 414.622 751.549 414.435 751.445 414.273C751.341 414.112 751.169 413.956 750.929 413.805C750.695 413.654 750.377 413.492 749.976 413.32C749.586 413.159 749.234 413 748.922 412.844C748.614 412.682 748.354 412.508 748.14 412.32C747.927 412.133 747.763 411.917 747.648 411.672C747.539 411.422 747.484 411.128 747.484 410.789C747.484 410.451 747.547 410.138 747.672 409.852C747.802 409.56 747.984 409.305 748.218 409.086C748.453 408.867 748.734 408.698 749.062 408.578C749.39 408.453 749.757 408.391 750.164 408.391C750.742 408.391 751.234 408.503 751.64 408.727C752.047 408.951 752.356 409.258 752.57 409.648C752.789 410.034 752.898 410.469 752.898 410.953H751.523C751.523 410.719 751.471 410.497 751.367 410.289C751.263 410.081 751.109 409.911 750.906 409.781C750.703 409.646 750.455 409.578 750.164 409.578C749.856 409.578 749.606 409.633 749.414 409.742C749.221 409.852 749.08 409.995 748.992 410.172C748.909 410.344 748.867 410.534 748.867 410.742C748.867 410.898 748.888 411.034 748.929 411.148C748.976 411.258 749.054 411.362 749.164 411.461C749.273 411.555 749.422 411.654 749.609 411.758C749.802 411.857 750.047 411.971 750.343 412.102C750.916 412.326 751.398 412.552 751.789 412.781C752.179 413.01 752.476 413.279 752.679 413.586C752.882 413.893 752.984 414.273 752.984 414.727C752.984 415.096 752.916 415.432 752.781 415.734C752.651 416.031 752.463 416.286 752.218 416.5C751.974 416.714 751.679 416.878 751.336 416.992C750.997 417.102 750.617 417.156 750.195 417.156C749.56 417.156 749.021 417.031 748.578 416.781C748.14 416.526 747.807 416.195 747.578 415.789C747.354 415.378 747.242 414.938 747.242 414.469H748.625C748.64 414.865 748.729 415.172 748.89 415.391C749.057 415.609 749.257 415.76 749.492 415.844C749.726 415.927 749.961 415.969 750.195 415.969C750.502 415.969 750.76 415.924 750.968 415.836C751.177 415.742 751.333 415.609 751.437 415.438C751.547 415.266 751.601 415.065 751.601 414.836ZM756.441 408.547V417H755.066V408.547H756.441ZM754.988 406.305C754.988 406.07 755.053 405.872 755.183 405.711C755.313 405.549 755.509 405.469 755.769 405.469C756.029 405.469 756.225 405.549 756.355 405.711C756.49 405.872 756.558 406.07 756.558 406.305C756.558 406.529 756.49 406.721 756.355 406.883C756.225 407.039 756.029 407.117 755.769 407.117C755.509 407.117 755.313 407.039 755.183 406.883C755.053 406.721 754.988 406.529 754.988 406.305ZM763.367 408.547H764.609V417.07C764.609 417.815 764.479 418.43 764.218 418.914C763.963 419.398 763.606 419.755 763.148 419.984C762.689 420.219 762.161 420.336 761.562 420.336C761.348 420.336 761.08 420.297 760.757 420.219C760.434 420.141 760.111 420.021 759.788 419.859C759.466 419.703 759.2 419.505 758.992 419.266L759.562 418.305C759.859 418.607 760.174 418.823 760.507 418.953C760.841 419.083 761.158 419.148 761.46 419.148C761.82 419.148 762.132 419.083 762.398 418.953C762.663 418.823 762.869 418.609 763.015 418.312C763.161 418.021 763.234 417.63 763.234 417.141V410.406L763.367 408.547ZM758.507 413.18V412.391C758.507 411.693 758.572 411.094 758.702 410.594C758.833 410.089 759.02 409.674 759.265 409.352C759.515 409.023 759.814 408.781 760.163 408.625C760.512 408.469 760.903 408.391 761.335 408.391C761.773 408.391 762.15 408.479 762.468 408.656C762.786 408.833 763.049 409.091 763.257 409.43C763.471 409.763 763.637 410.169 763.757 410.648C763.882 411.122 763.968 411.659 764.015 412.258V413.312C763.968 413.906 763.882 414.44 763.757 414.914C763.637 415.388 763.468 415.792 763.249 416.125C763.036 416.458 762.77 416.714 762.452 416.891C762.135 417.068 761.757 417.156 761.32 417.156C760.893 417.156 760.507 417.076 760.163 416.914C759.82 416.747 759.523 416.5 759.273 416.172C759.028 415.839 758.838 415.424 758.702 414.93C758.572 414.43 758.507 413.846 758.507 413.18ZM759.89 412.391V413.18C759.89 413.648 759.924 414.057 759.992 414.406C760.059 414.75 760.163 415.036 760.304 415.266C760.45 415.49 760.635 415.656 760.859 415.766C761.088 415.875 761.361 415.93 761.679 415.93C762.064 415.93 762.38 415.836 762.624 415.648C762.869 415.461 763.064 415.214 763.21 414.906C763.361 414.594 763.481 414.258 763.57 413.898V411.68C763.518 411.414 763.442 411.159 763.343 410.914C763.249 410.664 763.127 410.443 762.976 410.25C762.825 410.052 762.643 409.896 762.429 409.781C762.221 409.667 761.976 409.609 761.695 409.609C761.377 409.609 761.104 409.667 760.874 409.781C760.645 409.896 760.458 410.068 760.312 410.297C760.166 410.526 760.059 410.815 759.992 411.164C759.924 411.513 759.89 411.922 759.89 412.391ZM768.222 410.352V417H766.839V408.547H768.144L768.222 410.352ZM767.886 412.453L767.323 412.43C767.318 411.852 767.383 411.318 767.519 410.828C767.659 410.333 767.857 409.904 768.112 409.539C768.373 409.174 768.683 408.893 769.042 408.695C769.402 408.492 769.8 408.391 770.237 408.391C770.581 408.391 770.894 408.448 771.175 408.562C771.456 408.672 771.696 408.849 771.894 409.094C772.092 409.339 772.243 409.656 772.347 410.047C772.456 410.432 772.511 410.904 772.511 411.461V417H771.128V411.445C771.128 411.003 771.079 410.648 770.98 410.383C770.886 410.112 770.74 409.917 770.542 409.797C770.349 409.672 770.105 409.609 769.808 409.609C769.537 409.609 769.284 409.685 769.05 409.836C768.816 409.987 768.61 410.195 768.433 410.461C768.261 410.727 768.126 411.031 768.027 411.375C767.933 411.714 767.886 412.073 767.886 412.453ZM782.682 414.836C782.682 414.622 782.63 414.435 782.526 414.273C782.422 414.112 782.25 413.956 782.011 413.805C781.776 413.654 781.459 413.492 781.057 413.32C780.667 413.159 780.315 413 780.003 412.844C779.696 412.682 779.435 412.508 779.222 412.32C779.008 412.133 778.844 411.917 778.729 411.672C778.62 411.422 778.565 411.128 778.565 410.789C778.565 410.451 778.628 410.138 778.753 409.852C778.883 409.56 779.065 409.305 779.3 409.086C779.534 408.867 779.815 408.698 780.143 408.578C780.472 408.453 780.839 408.391 781.245 408.391C781.823 408.391 782.315 408.503 782.722 408.727C783.128 408.951 783.438 409.258 783.651 409.648C783.87 410.034 783.979 410.469 783.979 410.953H782.604C782.604 410.719 782.552 410.497 782.448 410.289C782.344 410.081 782.19 409.911 781.987 409.781C781.784 409.646 781.537 409.578 781.245 409.578C780.938 409.578 780.688 409.633 780.495 409.742C780.302 409.852 780.162 409.995 780.073 410.172C779.99 410.344 779.948 410.534 779.948 410.742C779.948 410.898 779.969 411.034 780.011 411.148C780.057 411.258 780.136 411.362 780.245 411.461C780.354 411.555 780.503 411.654 780.69 411.758C780.883 411.857 781.128 411.971 781.425 412.102C781.998 412.326 782.479 412.552 782.87 412.781C783.261 413.01 783.557 413.279 783.761 413.586C783.964 413.893 784.065 414.273 784.065 414.727C784.065 415.096 783.998 415.432 783.862 415.734C783.732 416.031 783.544 416.286 783.3 416.5C783.055 416.714 782.761 416.878 782.417 416.992C782.078 417.102 781.698 417.156 781.276 417.156C780.641 417.156 780.102 417.031 779.659 416.781C779.222 416.526 778.888 416.195 778.659 415.789C778.435 415.378 778.323 414.938 778.323 414.469H779.706C779.722 414.865 779.81 415.172 779.972 415.391C780.138 415.609 780.339 415.76 780.573 415.844C780.807 415.927 781.042 415.969 781.276 415.969C781.584 415.969 781.841 415.924 782.05 415.836C782.258 415.742 782.414 415.609 782.518 415.438C782.628 415.266 782.682 415.065 782.682 414.836ZM787.999 416.125L789.882 408.547H791.35L788.561 418.305C788.494 418.513 788.402 418.737 788.288 418.977C788.178 419.221 788.038 419.453 787.866 419.672C787.694 419.891 787.488 420.068 787.249 420.203C787.009 420.344 786.728 420.414 786.405 420.414C786.306 420.414 786.178 420.398 786.022 420.367C785.871 420.336 785.762 420.31 785.694 420.289V419.117C785.725 419.122 785.775 419.128 785.842 419.133C785.91 419.143 785.96 419.148 785.991 419.148C786.262 419.148 786.491 419.104 786.678 419.016C786.871 418.932 787.035 418.789 787.171 418.586C787.306 418.388 787.421 418.115 787.514 417.766L787.999 416.125ZM786.78 408.547L788.46 415.109L788.819 416.633L787.835 417.164L785.272 408.547H786.78ZM796.971 414.836C796.971 414.622 796.919 414.435 796.815 414.273C796.711 414.112 796.539 413.956 796.299 413.805C796.065 413.654 795.747 413.492 795.346 413.32C794.956 413.159 794.604 413 794.292 412.844C793.984 412.682 793.724 412.508 793.51 412.32C793.297 412.133 793.133 411.917 793.018 411.672C792.909 411.422 792.854 411.128 792.854 410.789C792.854 410.451 792.917 410.138 793.042 409.852C793.172 409.56 793.354 409.305 793.588 409.086C793.823 408.867 794.104 408.698 794.432 408.578C794.76 408.453 795.127 408.391 795.534 408.391C796.112 408.391 796.604 408.503 797.01 408.727C797.417 408.951 797.726 409.258 797.94 409.648C798.159 410.034 798.268 410.469 798.268 410.953H796.893C796.893 410.719 796.841 410.497 796.737 410.289C796.633 410.081 796.479 409.911 796.276 409.781C796.073 409.646 795.825 409.578 795.534 409.578C795.226 409.578 794.976 409.633 794.784 409.742C794.591 409.852 794.45 409.995 794.362 410.172C794.279 410.344 794.237 410.534 794.237 410.742C794.237 410.898 794.258 411.034 794.299 411.148C794.346 411.258 794.424 411.362 794.534 411.461C794.643 411.555 794.792 411.654 794.979 411.758C795.172 411.857 795.417 411.971 795.713 412.102C796.286 412.326 796.768 412.552 797.159 412.781C797.549 413.01 797.846 413.279 798.049 413.586C798.252 413.893 798.354 414.273 798.354 414.727C798.354 415.096 798.286 415.432 798.151 415.734C798.021 416.031 797.833 416.286 797.588 416.5C797.344 416.714 797.049 416.878 796.706 416.992C796.367 417.102 795.987 417.156 795.565 417.156C794.93 417.156 794.391 417.031 793.948 416.781C793.51 416.526 793.177 416.195 792.948 415.789C792.724 415.378 792.612 414.938 792.612 414.469H793.995C794.01 414.865 794.099 415.172 794.26 415.391C794.427 415.609 794.627 415.76 794.862 415.844C795.096 415.927 795.331 415.969 795.565 415.969C795.872 415.969 796.13 415.924 796.338 415.836C796.547 415.742 796.703 415.609 796.807 415.438C796.917 415.266 796.971 415.065 796.971 414.836ZM803.412 408.547V409.656H799.467V408.547H803.412ZM800.756 406.492H802.139V414.906C802.139 415.193 802.173 415.409 802.241 415.555C802.314 415.701 802.405 415.797 802.514 415.844C802.623 415.891 802.741 415.914 802.866 415.914C802.959 415.914 803.064 415.904 803.178 415.883C803.293 415.857 803.371 415.836 803.412 415.82L803.405 417C803.311 417.036 803.186 417.07 803.03 417.102C802.873 417.138 802.676 417.156 802.436 417.156C802.139 417.156 801.863 417.086 801.608 416.945C801.353 416.805 801.147 416.57 800.991 416.242C800.834 415.909 800.756 415.461 800.756 414.898V406.492ZM808.244 417.156C807.739 417.156 807.283 417.081 806.877 416.93C806.471 416.779 806.125 416.549 805.838 416.242C805.552 415.93 805.333 415.536 805.182 415.062C805.031 414.589 804.955 414.029 804.955 413.383V412.43C804.955 411.685 805.041 411.055 805.213 410.539C805.39 410.023 805.627 409.609 805.924 409.297C806.221 408.979 806.557 408.75 806.932 408.609C807.307 408.464 807.692 408.391 808.088 408.391C808.619 408.391 809.073 408.477 809.448 408.648C809.823 408.82 810.127 409.076 810.362 409.414C810.596 409.753 810.768 410.169 810.877 410.664C810.992 411.159 811.049 411.729 811.049 412.375V413.18H805.768V412H809.666V411.805C809.645 411.367 809.586 410.982 809.487 410.648C809.393 410.315 809.237 410.055 809.018 409.867C808.799 409.674 808.489 409.578 808.088 409.578C807.833 409.578 807.596 409.622 807.377 409.711C807.164 409.794 806.979 409.943 806.823 410.156C806.671 410.365 806.552 410.654 806.463 411.023C806.38 411.393 806.338 411.862 806.338 412.43V413.383C806.338 413.836 806.38 414.227 806.463 414.555C806.552 414.878 806.679 415.146 806.846 415.359C807.018 415.568 807.226 415.724 807.471 415.828C807.721 415.927 808.005 415.977 808.323 415.977C808.786 415.977 809.169 415.888 809.471 415.711C809.773 415.529 810.036 415.297 810.26 415.016L810.987 415.883C810.836 416.096 810.638 416.302 810.393 416.5C810.153 416.693 809.856 416.852 809.502 416.977C809.153 417.096 808.734 417.156 808.244 417.156ZM814.264 410.227V417H812.889V408.547H814.186L814.264 410.227ZM813.982 412.453L813.342 412.43C813.337 411.852 813.394 411.318 813.514 410.828C813.634 410.333 813.813 409.904 814.053 409.539C814.298 409.174 814.602 408.893 814.967 408.695C815.337 408.492 815.766 408.391 816.256 408.391C816.579 408.391 816.878 408.448 817.154 408.562C817.436 408.672 817.68 408.846 817.889 409.086C818.097 409.326 818.259 409.633 818.373 410.008C818.493 410.383 818.553 410.836 818.553 411.367V417H817.17V411.438C817.17 410.995 817.11 410.641 816.99 410.375C816.876 410.109 816.712 409.917 816.498 409.797C816.285 409.672 816.029 409.609 815.732 409.609C815.394 409.609 815.11 409.685 814.881 409.836C814.657 409.987 814.477 410.195 814.342 410.461C814.212 410.727 814.118 411.031 814.061 411.375C814.009 411.714 813.982 412.073 813.982 412.453ZM818.537 411.656L817.615 411.953C817.61 411.49 817.667 411.044 817.787 410.617C817.907 410.19 818.084 409.81 818.318 409.477C818.558 409.143 818.855 408.88 819.209 408.688C819.563 408.49 819.975 408.391 820.443 408.391C820.829 408.391 821.17 408.451 821.467 408.57C821.764 408.69 822.014 408.875 822.217 409.125C822.425 409.37 822.581 409.685 822.686 410.07C822.79 410.456 822.842 410.914 822.842 411.445V417H821.459V411.43C821.459 410.956 821.399 410.589 821.279 410.328C821.165 410.062 821.001 409.878 820.787 409.773C820.574 409.664 820.318 409.609 820.022 409.609C819.782 409.609 819.568 409.664 819.381 409.773C819.199 409.883 819.045 410.034 818.92 410.227C818.795 410.414 818.699 410.63 818.631 410.875C818.568 411.12 818.537 411.38 818.537 411.656Z" fill="#242429"/>
<path d="M239.305 419H237.367L237.383 417.773H239.305C239.987 417.773 240.542 417.643 240.969 417.383C241.396 417.117 241.711 416.727 241.914 416.211C242.117 415.69 242.219 415.047 242.219 414.281V412.336C242.219 411.732 242.161 411.211 242.047 410.773C241.932 410.336 241.76 409.977 241.531 409.695C241.302 409.414 241.013 409.206 240.664 409.07C240.315 408.93 239.906 408.859 239.438 408.859H237.328V407.625H239.438C240.078 407.625 240.656 407.727 241.172 407.93C241.688 408.128 242.13 408.427 242.5 408.828C242.87 409.224 243.151 409.716 243.344 410.305C243.542 410.893 243.641 411.576 243.641 412.352V414.281C243.641 415.057 243.542 415.74 243.344 416.328C243.151 416.917 242.867 417.409 242.492 417.805C242.117 418.201 241.661 418.5 241.125 418.703C240.594 418.901 239.987 419 239.305 419ZM238.164 407.625V419H236.727V407.625H238.164ZM248.863 419.156C248.358 419.156 247.902 419.081 247.496 418.93C247.09 418.779 246.743 418.549 246.457 418.242C246.17 417.93 245.952 417.536 245.801 417.062C245.65 416.589 245.574 416.029 245.574 415.383V414.43C245.574 413.685 245.66 413.055 245.832 412.539C246.009 412.023 246.246 411.609 246.543 411.297C246.84 410.979 247.176 410.75 247.551 410.609C247.926 410.464 248.311 410.391 248.707 410.391C249.238 410.391 249.691 410.477 250.066 410.648C250.441 410.82 250.746 411.076 250.98 411.414C251.215 411.753 251.387 412.169 251.496 412.664C251.611 413.159 251.668 413.729 251.668 414.375V415.18H246.387V414H250.285V413.805C250.264 413.367 250.204 412.982 250.105 412.648C250.012 412.315 249.855 412.055 249.637 411.867C249.418 411.674 249.108 411.578 248.707 411.578C248.452 411.578 248.215 411.622 247.996 411.711C247.782 411.794 247.597 411.943 247.441 412.156C247.29 412.365 247.17 412.654 247.082 413.023C246.999 413.393 246.957 413.862 246.957 414.43V415.383C246.957 415.836 246.999 416.227 247.082 416.555C247.17 416.878 247.298 417.146 247.465 417.359C247.637 417.568 247.845 417.724 248.09 417.828C248.34 417.927 248.624 417.977 248.941 417.977C249.405 417.977 249.788 417.888 250.09 417.711C250.392 417.529 250.655 417.297 250.879 417.016L251.605 417.883C251.454 418.096 251.256 418.302 251.012 418.5C250.772 418.693 250.475 418.852 250.121 418.977C249.772 419.096 249.353 419.156 248.863 419.156ZM255.265 419H253.882V409.812C253.882 409.172 253.989 408.63 254.203 408.188C254.422 407.745 254.731 407.409 255.132 407.18C255.539 406.951 256.018 406.836 256.57 406.836C256.898 406.836 257.213 406.883 257.515 406.977C257.817 407.065 258.13 407.177 258.453 407.312L258.218 408.531C258.031 408.438 257.802 408.349 257.531 408.266C257.26 408.177 256.976 408.133 256.679 408.133C256.159 408.133 255.791 408.273 255.578 408.555C255.369 408.831 255.265 409.25 255.265 409.812V419ZM256.632 410.547V411.656H252.781V410.547H256.632ZM259.117 410.547V419H257.734V410.547H259.117ZM262.886 412.352V419H261.503V410.547H262.808L262.886 412.352ZM262.55 414.453L261.988 414.43C261.983 413.852 262.048 413.318 262.183 412.828C262.324 412.333 262.522 411.904 262.777 411.539C263.037 411.174 263.347 410.893 263.707 410.695C264.066 410.492 264.464 410.391 264.902 410.391C265.246 410.391 265.558 410.448 265.839 410.562C266.121 410.672 266.36 410.849 266.558 411.094C266.756 411.339 266.907 411.656 267.011 412.047C267.121 412.432 267.175 412.904 267.175 413.461V419H265.792V413.445C265.792 413.003 265.743 412.648 265.644 412.383C265.55 412.112 265.404 411.917 265.207 411.797C265.014 411.672 264.769 411.609 264.472 411.609C264.201 411.609 263.949 411.685 263.714 411.836C263.48 411.987 263.274 412.195 263.097 412.461C262.925 412.727 262.79 413.031 262.691 413.375C262.597 413.714 262.55 414.073 262.55 414.453ZM270.898 410.547V419H269.523V410.547H270.898ZM269.445 408.305C269.445 408.07 269.51 407.872 269.64 407.711C269.77 407.549 269.966 407.469 270.226 407.469C270.486 407.469 270.682 407.549 270.812 407.711C270.947 407.872 271.015 408.07 271.015 408.305C271.015 408.529 270.947 408.721 270.812 408.883C270.682 409.039 270.486 409.117 270.226 409.117C269.966 409.117 269.77 409.039 269.64 408.883C269.51 408.721 269.445 408.529 269.445 408.305ZM276.331 410.547V411.656H272.386V410.547H276.331ZM273.675 408.492H275.058V416.906C275.058 417.193 275.092 417.409 275.159 417.555C275.232 417.701 275.323 417.797 275.433 417.844C275.542 417.891 275.659 417.914 275.784 417.914C275.878 417.914 275.982 417.904 276.097 417.883C276.211 417.857 276.29 417.836 276.331 417.82L276.323 419C276.23 419.036 276.105 419.07 275.948 419.102C275.792 419.138 275.594 419.156 275.355 419.156C275.058 419.156 274.782 419.086 274.527 418.945C274.271 418.805 274.066 418.57 273.909 418.242C273.753 417.909 273.675 417.461 273.675 416.898V408.492ZM279.624 410.547V419H278.249V410.547H279.624ZM278.171 408.305C278.171 408.07 278.236 407.872 278.366 407.711C278.496 407.549 278.692 407.469 278.952 407.469C279.213 407.469 279.408 407.549 279.538 407.711C279.674 407.872 279.741 408.07 279.741 408.305C279.741 408.529 279.674 408.721 279.538 408.883C279.408 409.039 279.213 409.117 278.952 409.117C278.692 409.117 278.496 409.039 278.366 408.883C278.236 408.721 278.171 408.529 278.171 408.305ZM281.682 415.18V414.375C281.682 413.719 281.766 413.143 281.932 412.648C282.099 412.148 282.331 411.732 282.628 411.398C282.925 411.065 283.271 410.815 283.667 410.648C284.063 410.477 284.487 410.391 284.94 410.391C285.404 410.391 285.834 410.477 286.229 410.648C286.625 410.815 286.972 411.065 287.268 411.398C287.571 411.732 287.805 412.148 287.972 412.648C288.138 413.143 288.222 413.719 288.222 414.375V415.18C288.222 415.836 288.138 416.414 287.972 416.914C287.805 417.409 287.573 417.823 287.276 418.156C286.979 418.49 286.633 418.74 286.237 418.906C285.841 419.073 285.414 419.156 284.956 419.156C284.498 419.156 284.071 419.073 283.675 418.906C283.279 418.74 282.93 418.49 282.628 418.156C282.331 417.823 282.099 417.409 281.932 416.914C281.766 416.414 281.682 415.836 281.682 415.18ZM283.065 414.375V415.18C283.065 415.643 283.112 416.049 283.206 416.398C283.3 416.747 283.432 417.039 283.604 417.273C283.776 417.508 283.977 417.685 284.206 417.805C284.435 417.919 284.685 417.977 284.956 417.977C285.268 417.977 285.542 417.919 285.776 417.805C286.016 417.685 286.214 417.508 286.37 417.273C286.526 417.039 286.643 416.747 286.722 416.398C286.8 416.049 286.839 415.643 286.839 415.18V414.375C286.839 413.911 286.792 413.508 286.698 413.164C286.604 412.815 286.472 412.523 286.3 412.289C286.128 412.049 285.925 411.872 285.69 411.758C285.461 411.638 285.211 411.578 284.94 411.578C284.675 411.578 284.427 411.638 284.198 411.758C283.969 411.872 283.768 412.049 283.597 412.289C283.43 412.523 283.3 412.815 283.206 413.164C283.112 413.508 283.065 413.911 283.065 414.375ZM291.546 412.352V419H290.163V410.547H291.467L291.546 412.352ZM291.21 414.453L290.647 414.43C290.642 413.852 290.707 413.318 290.842 412.828C290.983 412.333 291.181 411.904 291.436 411.539C291.697 411.174 292.007 410.893 292.366 410.695C292.725 410.492 293.124 410.391 293.561 410.391C293.905 410.391 294.217 410.448 294.499 410.562C294.78 410.672 295.02 410.849 295.217 411.094C295.415 411.339 295.566 411.656 295.671 412.047C295.78 412.432 295.835 412.904 295.835 413.461V419H294.452V413.445C294.452 413.003 294.402 412.648 294.303 412.383C294.21 412.112 294.064 411.917 293.866 411.797C293.673 411.672 293.428 411.609 293.132 411.609C292.861 411.609 292.608 411.685 292.374 411.836C292.139 411.987 291.934 412.195 291.757 412.461C291.585 412.727 291.449 413.031 291.35 413.375C291.257 413.714 291.21 414.073 291.21 414.453Z" fill="#242429"/>
<path d="M905.305 249.688C905.305 249.289 905.258 248.938 905.164 248.633C905.07 248.32 904.906 248.039 904.672 247.789C904.438 247.539 904.109 247.301 903.688 247.074C903.266 246.848 902.73 246.617 902.082 246.383C901.379 246.133 900.742 245.855 900.172 245.551C899.602 245.238 899.113 244.883 898.707 244.484C898.309 244.086 898 243.629 897.781 243.113C897.562 242.598 897.453 242.008 897.453 241.344C897.453 240.68 897.566 240.066 897.793 239.504C898.027 238.941 898.355 238.453 898.777 238.039C899.207 237.617 899.723 237.289 900.324 237.055C900.926 236.82 901.598 236.703 902.34 236.703C903.449 236.703 904.383 236.949 905.141 237.441C905.906 237.926 906.484 238.562 906.875 239.352C907.266 240.133 907.461 240.969 907.461 241.859H905.305C905.305 241.219 905.199 240.652 904.988 240.16C904.785 239.66 904.465 239.27 904.027 238.988C903.598 238.699 903.035 238.555 902.34 238.555C901.715 238.555 901.199 238.676 900.793 238.918C900.395 239.16 900.098 239.488 899.902 239.902C899.715 240.316 899.621 240.789 899.621 241.32C899.621 241.68 899.684 242.008 899.809 242.305C899.934 242.594 900.125 242.863 900.383 243.113C900.648 243.363 900.977 243.594 901.367 243.805C901.766 244.016 902.234 244.219 902.773 244.414C903.609 244.688 904.324 244.992 904.918 245.328C905.512 245.664 905.996 246.043 906.371 246.465C906.746 246.879 907.02 247.352 907.191 247.883C907.371 248.406 907.461 249 907.461 249.664C907.461 250.359 907.344 250.988 907.109 251.551C906.883 252.113 906.551 252.594 906.113 252.992C905.676 253.391 905.148 253.699 904.531 253.918C903.914 254.129 903.219 254.234 902.445 254.234C901.773 254.234 901.113 254.125 900.465 253.906C899.824 253.688 899.242 253.359 898.719 252.922C898.195 252.484 897.777 251.945 897.465 251.305C897.152 250.656 896.996 249.906 896.996 249.055H899.152C899.152 249.641 899.238 250.145 899.41 250.566C899.582 250.98 899.82 251.324 900.125 251.598C900.43 251.871 900.777 252.074 901.168 252.207C901.566 252.332 901.992 252.395 902.445 252.395C903.07 252.395 903.594 252.285 904.016 252.066C904.445 251.848 904.766 251.535 904.977 251.129C905.195 250.723 905.305 250.242 905.305 249.688ZM916.455 251.832V244.953C916.455 244.453 916.377 244.051 916.22 243.746C916.072 243.441 915.845 243.219 915.541 243.078C915.244 242.938 914.869 242.867 914.416 242.867C913.978 242.867 913.599 242.957 913.279 243.137C912.967 243.316 912.724 243.555 912.552 243.852C912.388 244.148 912.306 244.477 912.306 244.836H910.232C910.232 244.383 910.33 243.934 910.525 243.488C910.728 243.043 911.017 242.641 911.392 242.281C911.767 241.914 912.217 241.625 912.74 241.414C913.271 241.195 913.865 241.086 914.521 241.086C915.302 241.086 915.994 241.215 916.595 241.473C917.197 241.723 917.67 242.133 918.013 242.703C918.357 243.273 918.529 244.031 918.529 244.977V251.234C918.529 251.656 918.56 252.105 918.623 252.582C918.693 253.059 918.791 253.469 918.916 253.812V254H916.771C916.67 253.75 916.592 253.418 916.537 253.004C916.482 252.582 916.455 252.191 916.455 251.832ZM916.783 246.312L916.806 247.836H915.365C914.873 247.836 914.424 247.891 914.017 248C913.619 248.109 913.275 248.27 912.986 248.48C912.697 248.684 912.474 248.938 912.318 249.242C912.17 249.547 912.095 249.895 912.095 250.285C912.095 250.793 912.166 251.199 912.306 251.504C912.447 251.801 912.658 252.016 912.939 252.148C913.22 252.281 913.576 252.348 914.006 252.348C914.529 252.348 914.99 252.227 915.388 251.984C915.787 251.742 916.095 251.449 916.314 251.105C916.541 250.762 916.646 250.441 916.631 250.145L917.088 251.117C917.056 251.422 916.955 251.754 916.783 252.113C916.619 252.465 916.388 252.805 916.092 253.133C915.795 253.453 915.443 253.719 915.037 253.93C914.638 254.133 914.189 254.234 913.689 254.234C912.955 254.234 912.31 254.094 911.756 253.812C911.209 253.531 910.783 253.117 910.478 252.57C910.174 252.023 910.021 251.348 910.021 250.543C910.021 249.934 910.127 249.371 910.338 248.855C910.549 248.34 910.861 247.895 911.275 247.52C911.689 247.137 912.209 246.84 912.834 246.629C913.467 246.418 914.197 246.312 915.025 246.312H916.783ZM924.746 252.688L927.57 241.32H929.773L925.589 255.957C925.488 256.27 925.351 256.605 925.179 256.965C925.015 257.332 924.804 257.68 924.546 258.008C924.289 258.336 923.98 258.602 923.621 258.805C923.261 259.016 922.839 259.121 922.355 259.121C922.207 259.121 922.015 259.098 921.781 259.051C921.554 259.004 921.39 258.965 921.289 258.934V257.176C921.335 257.184 921.41 257.191 921.511 257.199C921.613 257.215 921.687 257.223 921.734 257.223C922.14 257.223 922.484 257.156 922.765 257.023C923.054 256.898 923.3 256.684 923.503 256.379C923.707 256.082 923.878 255.672 924.019 255.148L924.746 252.688ZM922.917 241.32L925.437 251.164L925.976 253.449L924.5 254.246L920.656 241.32H922.917ZM939.874 236V254H937.8V236H939.874ZM939.37 247.18L938.526 247.145C938.519 246.277 938.616 245.477 938.819 244.742C939.03 244 939.327 243.355 939.71 242.809C940.101 242.262 940.565 241.84 941.105 241.543C941.644 241.238 942.241 241.086 942.897 241.086C943.413 241.086 943.882 241.172 944.304 241.344C944.726 241.508 945.085 241.773 945.382 242.141C945.679 242.508 945.905 242.984 946.062 243.57C946.226 244.148 946.308 244.855 946.308 245.691V254H944.233V245.668C944.233 245.004 944.159 244.473 944.011 244.074C943.87 243.668 943.651 243.375 943.355 243.195C943.065 243.008 942.698 242.914 942.253 242.914C941.847 242.914 941.468 243.027 941.116 243.254C940.765 243.48 940.456 243.793 940.19 244.191C939.933 244.59 939.73 245.047 939.581 245.562C939.44 246.07 939.37 246.609 939.37 247.18ZM954.177 254.234C953.419 254.234 952.735 254.121 952.126 253.895C951.516 253.668 950.997 253.324 950.567 252.863C950.138 252.395 949.809 251.805 949.583 251.094C949.356 250.383 949.243 249.543 949.243 248.574V247.145C949.243 246.027 949.372 245.082 949.63 244.309C949.895 243.535 950.251 242.914 950.696 242.445C951.141 241.969 951.645 241.625 952.208 241.414C952.77 241.195 953.348 241.086 953.942 241.086C954.739 241.086 955.419 241.215 955.981 241.473C956.544 241.73 957.001 242.113 957.352 242.621C957.704 243.129 957.962 243.754 958.126 244.496C958.298 245.238 958.384 246.094 958.384 247.062V248.27H950.462V246.5H956.309V246.207C956.278 245.551 956.188 244.973 956.04 244.473C955.899 243.973 955.665 243.582 955.337 243.301C955.009 243.012 954.544 242.867 953.942 242.867C953.559 242.867 953.204 242.934 952.876 243.066C952.555 243.191 952.278 243.414 952.044 243.734C951.817 244.047 951.638 244.48 951.505 245.035C951.38 245.59 951.317 246.293 951.317 247.145V248.574C951.317 249.254 951.38 249.84 951.505 250.332C951.638 250.816 951.829 251.219 952.079 251.539C952.337 251.852 952.649 252.086 953.016 252.242C953.391 252.391 953.817 252.465 954.294 252.465C954.989 252.465 955.563 252.332 956.016 252.066C956.47 251.793 956.864 251.445 957.2 251.023L958.29 252.324C958.063 252.645 957.766 252.953 957.399 253.25C957.04 253.539 956.595 253.777 956.063 253.965C955.54 254.145 954.911 254.234 954.177 254.234ZM963.358 236V254H961.295V236H963.358ZM969.106 236V254H967.043V236H969.106ZM972.193 248.27V247.062C972.193 246.078 972.318 245.215 972.568 244.473C972.818 243.723 973.166 243.098 973.611 242.598C974.057 242.098 974.576 241.723 975.17 241.473C975.764 241.215 976.4 241.086 977.08 241.086C977.775 241.086 978.42 241.215 979.014 241.473C979.607 241.723 980.127 242.098 980.572 242.598C981.025 243.098 981.377 243.723 981.627 244.473C981.877 245.215 982.002 246.078 982.002 247.062V248.27C982.002 249.254 981.877 250.121 981.627 250.871C981.377 251.613 981.029 252.234 980.584 252.734C980.139 253.234 979.619 253.609 979.025 253.859C978.432 254.109 977.791 254.234 977.104 254.234C976.416 254.234 975.775 254.109 975.182 253.859C974.588 253.609 974.065 253.234 973.611 252.734C973.166 252.234 972.818 251.613 972.568 250.871C972.318 250.121 972.193 249.254 972.193 248.27ZM974.268 247.062V248.27C974.268 248.965 974.338 249.574 974.479 250.098C974.619 250.621 974.818 251.059 975.076 251.41C975.334 251.762 975.635 252.027 975.979 252.207C976.322 252.379 976.697 252.465 977.104 252.465C977.572 252.465 977.982 252.379 978.334 252.207C978.693 252.027 978.99 251.762 979.225 251.41C979.459 251.059 979.635 250.621 979.752 250.098C979.869 249.574 979.928 248.965 979.928 248.27V247.062C979.928 246.367 979.857 245.762 979.717 245.246C979.576 244.723 979.377 244.285 979.119 243.934C978.861 243.574 978.557 243.309 978.205 243.137C977.861 242.957 977.486 242.867 977.08 242.867C976.682 242.867 976.311 242.957 975.967 243.137C975.623 243.309 975.322 243.574 975.065 243.934C974.815 244.285 974.619 244.723 974.479 245.246C974.338 245.762 974.268 246.367 974.268 247.062Z" fill="#242429"/>
<circle cx="30" cy="247.5" r="3" fill="#F2F2F2" stroke="black"/>
<circle cx="541" cy="247.5" r="3" fill="#F2F2F2" stroke="black"/>
<circle cx="415" cy="245.5" r="81" fill="#F2F2F2" stroke="black"/>
<path d="M385.281 247.562L387.102 239.625H388.125L387.586 242.711L385.609 251H384.586L385.281 247.562ZM383.484 239.625L384.906 247.406L385.328 251H384.32L382.055 239.625H383.484ZM390.445 247.398L391.836 239.625H393.266L391.008 251H390L390.445 247.398ZM388.289 239.625L390.055 247.562L390.734 251H389.711L387.82 242.711L387.281 239.625H388.289ZM396.371 242.547V251H394.996V242.547H396.371ZM394.918 240.305C394.918 240.07 394.983 239.872 395.113 239.711C395.243 239.549 395.439 239.469 395.699 239.469C395.959 239.469 396.155 239.549 396.285 239.711C396.42 239.872 396.488 240.07 396.488 240.305C396.488 240.529 396.42 240.721 396.285 240.883C396.155 241.039 395.959 241.117 395.699 241.117C395.439 241.117 395.243 241.039 395.113 240.883C394.983 240.721 394.918 240.529 394.918 240.305ZM400.101 243.875V251H398.718V242.547H400.054L400.101 243.875ZM402.203 242.5L402.211 243.844C402.096 243.818 401.992 243.802 401.898 243.797C401.81 243.786 401.705 243.781 401.586 243.781C401.325 243.781 401.096 243.833 400.898 243.938C400.705 244.042 400.539 244.188 400.398 244.375C400.257 244.562 400.146 244.786 400.062 245.047C399.979 245.302 399.922 245.583 399.89 245.891L399.531 246.125C399.531 245.615 399.57 245.135 399.648 244.688C399.731 244.24 399.859 243.844 400.031 243.5C400.203 243.151 400.422 242.88 400.687 242.688C400.958 242.49 401.281 242.391 401.656 242.391C401.739 242.391 401.841 242.404 401.961 242.43C402.086 242.451 402.166 242.474 402.203 242.5ZM406.621 251.156C406.115 251.156 405.66 251.081 405.253 250.93C404.847 250.779 404.501 250.549 404.214 250.242C403.928 249.93 403.709 249.536 403.558 249.062C403.407 248.589 403.332 248.029 403.332 247.383V246.43C403.332 245.685 403.417 245.055 403.589 244.539C403.766 244.023 404.003 243.609 404.3 243.297C404.597 242.979 404.933 242.75 405.308 242.609C405.683 242.464 406.069 242.391 406.464 242.391C406.996 242.391 407.449 242.477 407.824 242.648C408.199 242.82 408.503 243.076 408.738 243.414C408.972 243.753 409.144 244.169 409.253 244.664C409.368 245.159 409.425 245.729 409.425 246.375V247.18H404.144V246H408.042V245.805C408.022 245.367 407.962 244.982 407.863 244.648C407.769 244.315 407.613 244.055 407.394 243.867C407.175 243.674 406.865 243.578 406.464 243.578C406.209 243.578 405.972 243.622 405.753 243.711C405.54 243.794 405.355 243.943 405.199 244.156C405.048 244.365 404.928 244.654 404.839 245.023C404.756 245.393 404.714 245.862 404.714 246.43V247.383C404.714 247.836 404.756 248.227 404.839 248.555C404.928 248.878 405.056 249.146 405.222 249.359C405.394 249.568 405.602 249.724 405.847 249.828C406.097 249.927 406.381 249.977 406.699 249.977C407.162 249.977 407.545 249.888 407.847 249.711C408.149 249.529 408.412 249.297 408.636 249.016L409.363 249.883C409.212 250.096 409.014 250.302 408.769 250.5C408.529 250.693 408.233 250.852 407.878 250.977C407.529 251.096 407.11 251.156 406.621 251.156ZM413.249 251H411.867V241.656C411.867 241.047 411.963 240.534 412.156 240.117C412.354 239.695 412.632 239.378 412.992 239.164C413.356 238.945 413.788 238.836 414.288 238.836C414.429 238.836 414.57 238.846 414.71 238.867C414.856 238.888 414.994 238.919 415.124 238.961L415.062 240.141C414.979 240.115 414.877 240.096 414.757 240.086C414.643 240.076 414.533 240.07 414.429 240.07C414.179 240.07 413.966 240.133 413.788 240.258C413.611 240.378 413.476 240.555 413.382 240.789C413.294 241.023 413.249 241.312 413.249 241.656V251ZM414.687 242.547V243.656H410.765V242.547H414.687ZM417.862 243.875V251H416.48V242.547H417.816L417.862 243.875ZM419.964 242.5L419.972 243.844C419.857 243.818 419.753 243.802 419.659 243.797C419.571 243.786 419.467 243.781 419.347 243.781C419.086 243.781 418.857 243.833 418.659 243.938C418.467 244.042 418.3 244.188 418.159 244.375C418.019 244.562 417.907 244.786 417.823 245.047C417.74 245.302 417.683 245.583 417.652 245.891L417.292 246.125C417.292 245.615 417.331 245.135 417.409 244.688C417.493 244.24 417.62 243.844 417.792 243.5C417.964 243.151 418.183 242.88 418.448 242.688C418.719 242.49 419.042 242.391 419.417 242.391C419.501 242.391 419.602 242.404 419.722 242.43C419.847 242.451 419.928 242.474 419.964 242.5ZM425.343 249.555V244.969C425.343 244.635 425.291 244.367 425.187 244.164C425.088 243.961 424.937 243.812 424.733 243.719C424.536 243.625 424.286 243.578 423.983 243.578C423.692 243.578 423.439 243.638 423.226 243.758C423.017 243.878 422.856 244.036 422.741 244.234C422.632 244.432 422.577 244.651 422.577 244.891H421.194C421.194 244.589 421.259 244.289 421.39 243.992C421.525 243.695 421.718 243.427 421.968 243.188C422.218 242.943 422.517 242.75 422.866 242.609C423.22 242.464 423.616 242.391 424.054 242.391C424.575 242.391 425.036 242.477 425.437 242.648C425.838 242.815 426.153 243.089 426.382 243.469C426.611 243.849 426.726 244.354 426.726 244.984V249.156C426.726 249.438 426.746 249.737 426.788 250.055C426.835 250.372 426.9 250.646 426.983 250.875V251H425.554C425.486 250.833 425.434 250.612 425.397 250.336C425.361 250.055 425.343 249.794 425.343 249.555ZM425.562 245.875L425.577 246.891H424.616C424.288 246.891 423.989 246.927 423.718 247C423.452 247.073 423.223 247.18 423.03 247.32C422.838 247.456 422.689 247.625 422.585 247.828C422.486 248.031 422.437 248.263 422.437 248.523C422.437 248.862 422.483 249.133 422.577 249.336C422.671 249.534 422.812 249.677 422.999 249.766C423.187 249.854 423.424 249.898 423.71 249.898C424.059 249.898 424.366 249.818 424.632 249.656C424.897 249.495 425.103 249.299 425.249 249.07C425.4 248.841 425.47 248.628 425.46 248.43L425.765 249.078C425.744 249.281 425.676 249.503 425.562 249.742C425.452 249.977 425.299 250.203 425.101 250.422C424.903 250.635 424.668 250.812 424.397 250.953C424.132 251.089 423.832 251.156 423.499 251.156C423.009 251.156 422.58 251.062 422.21 250.875C421.845 250.688 421.562 250.411 421.358 250.047C421.155 249.682 421.054 249.232 421.054 248.695C421.054 248.289 421.124 247.914 421.265 247.57C421.405 247.227 421.614 246.93 421.89 246.68C422.166 246.424 422.512 246.227 422.929 246.086C423.351 245.945 423.838 245.875 424.39 245.875H425.562ZM430.417 244.227V251H429.042V242.547H430.339L430.417 244.227ZM430.136 246.453L429.495 246.43C429.49 245.852 429.547 245.318 429.667 244.828C429.787 244.333 429.966 243.904 430.206 243.539C430.451 243.174 430.755 242.893 431.12 242.695C431.49 242.492 431.919 242.391 432.409 242.391C432.732 242.391 433.031 242.448 433.307 242.562C433.589 242.672 433.834 242.846 434.042 243.086C434.25 243.326 434.412 243.633 434.526 244.008C434.646 244.383 434.706 244.836 434.706 245.367V251H433.323V245.438C433.323 244.995 433.263 244.641 433.143 244.375C433.029 244.109 432.865 243.917 432.651 243.797C432.438 243.672 432.182 243.609 431.886 243.609C431.547 243.609 431.263 243.685 431.034 243.836C430.81 243.987 430.63 244.195 430.495 244.461C430.365 244.727 430.271 245.031 430.214 245.375C430.162 245.714 430.136 246.073 430.136 246.453ZM434.69 245.656L433.768 245.953C433.763 245.49 433.821 245.044 433.94 244.617C434.06 244.19 434.237 243.81 434.472 243.477C434.711 243.143 435.008 242.88 435.362 242.688C435.716 242.49 436.128 242.391 436.597 242.391C436.982 242.391 437.323 242.451 437.62 242.57C437.917 242.69 438.167 242.875 438.37 243.125C438.578 243.37 438.735 243.685 438.839 244.07C438.943 244.456 438.995 244.914 438.995 245.445V251H437.612V245.43C437.612 244.956 437.552 244.589 437.432 244.328C437.318 244.062 437.154 243.878 436.94 243.773C436.727 243.664 436.472 243.609 436.175 243.609C435.935 243.609 435.722 243.664 435.534 243.773C435.352 243.883 435.198 244.034 435.073 244.227C434.948 244.414 434.852 244.63 434.784 244.875C434.722 245.12 434.69 245.38 434.69 245.656ZM444.264 251.156C443.759 251.156 443.303 251.081 442.897 250.93C442.491 250.779 442.145 250.549 441.858 250.242C441.572 249.93 441.353 249.536 441.202 249.062C441.051 248.589 440.975 248.029 440.975 247.383V246.43C440.975 245.685 441.061 245.055 441.233 244.539C441.41 244.023 441.647 243.609 441.944 243.297C442.241 242.979 442.577 242.75 442.952 242.609C443.327 242.464 443.712 242.391 444.108 242.391C444.639 242.391 445.092 242.477 445.467 242.648C445.842 242.82 446.147 243.076 446.382 243.414C446.616 243.753 446.788 244.169 446.897 244.664C447.012 245.159 447.069 245.729 447.069 246.375V247.18H441.788V246H445.686V245.805C445.665 245.367 445.606 244.982 445.507 244.648C445.413 244.315 445.257 244.055 445.038 243.867C444.819 243.674 444.509 243.578 444.108 243.578C443.853 243.578 443.616 243.622 443.397 243.711C443.184 243.794 442.999 243.943 442.842 244.156C442.691 244.365 442.572 244.654 442.483 245.023C442.4 245.393 442.358 245.862 442.358 246.43V247.383C442.358 247.836 442.4 248.227 442.483 248.555C442.572 248.878 442.699 249.146 442.866 249.359C443.038 249.568 443.246 249.724 443.491 249.828C443.741 249.927 444.025 249.977 444.342 249.977C444.806 249.977 445.189 249.888 445.491 249.711C445.793 249.529 446.056 249.297 446.28 249.016L447.007 249.883C446.856 250.096 446.658 250.302 446.413 250.5C446.173 250.693 445.876 250.852 445.522 250.977C445.173 251.096 444.754 251.156 444.264 251.156Z" fill="#242429"/>
</svg>
