<svg width="48" height="48" viewBox="0 0 48 48" fill="none" xmlns="http://www.w3.org/2000/svg">
<path d="M43.5004 41.3792L32.1722 30.0511C34.8943 26.7831 36.2517 22.5915 35.962 18.3482C35.6723 14.105 33.7579 10.1367 30.617 7.26901C27.476 4.4013 23.3504 2.85491 19.0984 2.95154C14.8463 3.04816 10.7952 4.78036 7.78778 7.78778C4.78036 10.7952 3.04816 14.8463 2.95154 19.0984C2.85491 23.3504 4.4013 27.476 7.26901 30.617C10.1367 33.7579 14.105 35.6723 18.3482 35.962C22.5915 36.2517 26.7831 34.8943 30.0511 32.1722L41.3792 43.5004L43.5004 41.3792ZM6.00035 19.5004C6.00035 16.8303 6.79212 14.2202 8.27552 12.0002C9.75891 9.78009 11.8673 8.04976 14.3341 7.02798C16.8009 6.0062 19.5153 5.73885 22.1341 6.25975C24.7528 6.78065 27.1583 8.0664 29.0463 9.95441C30.9343 11.8424 32.2201 14.2479 32.741 16.8666C33.2619 19.4854 32.9945 22.1998 31.9727 24.6666C30.9509 27.1334 29.2206 29.2418 27.0006 30.7252C24.7805 32.2086 22.1704 33.0004 19.5004 33.0004C15.9212 32.9964 12.4897 31.5728 9.9588 29.0419C7.42792 26.511 6.00433 23.0796 6.00035 19.5004Z" fill="#161616"/>
</svg>
