<svg width="48" height="48" viewBox="0 0 48 48" fill="none" xmlns="http://www.w3.org/2000/svg">
<path d="M33 6V10.5H15V6H3V18H15V13.5H25.5351C24.5436 14.791 24.0042 16.3722 24 18V30C23.9985 31.193 23.524 32.3368 22.6804 33.1804C21.8368 34.024 20.693 34.4985 19.5 34.5H15V30H3V42H15V37.5H19.5C21.4884 37.4975 23.3946 36.7066 24.8006 35.3006C26.2066 33.8946 26.9975 31.9884 27 30V18C26.9996 17.4093 27.1157 16.8244 27.3414 16.2785C27.5672 15.7327 27.8982 15.2366 28.3157 14.8188C28.7332 14.4009 29.2289 14.0693 29.7745 13.8431C30.3201 13.6168 30.905 13.5002 31.4957 13.5H33V18H45V6H33ZM12 15H6V9H12V15ZM12 39H6V33H12V39ZM42 15H36V9H42V15Z" fill="#161616"/>
</svg>
