<svg width="48" height="48" viewBox="0 0 48 48" fill="none" xmlns="http://www.w3.org/2000/svg">
<path d="M46.4094 23.49C44.6451 18.9265 41.5823 14.9799 37.5996 12.1381C33.6168 9.29633 28.8886 7.68386 23.9994 7.5C19.1101 7.68386 14.3819 9.29633 10.3992 12.1381C6.41639 14.9799 3.3536 18.9265 1.58936 23.49C1.47021 23.8196 1.47021 24.1804 1.58936 24.51C3.3536 29.0735 6.41639 33.0201 10.3992 35.8619C14.3819 38.7037 19.1101 40.3161 23.9994 40.5C28.8886 40.3161 33.6168 38.7037 37.5996 35.8619C41.5823 33.0201 44.6451 29.0735 46.4094 24.51C46.5285 24.1804 46.5285 23.8196 46.4094 23.49ZM23.9994 37.5C16.0494 37.5 7.64936 31.605 4.60436 24C7.64936 16.395 16.0494 10.5 23.9994 10.5C31.9494 10.5 40.3494 16.395 43.3944 24C40.3494 31.605 31.9494 37.5 23.9994 37.5Z" fill="#161616"/>
<path d="M23.9994 15C22.2193 15 20.4793 15.5278 18.9992 16.5168C17.5192 17.5057 16.3656 18.9113 15.6844 20.5558C15.0033 22.2004 14.825 24.01 15.1723 25.7558C15.5196 27.5016 16.3767 29.1053 17.6354 30.364C18.8941 31.6226 20.4977 32.4798 22.2436 32.8271C23.9894 33.1743 25.799 32.9961 27.4435 32.3149C29.088 31.6337 30.4937 30.4802 31.4826 29.0001C32.4715 27.5201 32.9994 25.78 32.9994 24C32.9994 21.6131 32.0512 19.3239 30.3633 17.636C28.6755 15.9482 26.3863 15 23.9994 15ZM23.9994 30C22.8127 30 21.6526 29.6481 20.6659 28.9888C19.6792 28.3295 18.9102 27.3925 18.4561 26.2961C18.002 25.1997 17.8831 23.9933 18.1147 22.8295C18.3462 21.6656 18.9176 20.5965 19.7567 19.7574C20.5958 18.9182 21.6649 18.3468 22.8288 18.1153C23.9927 17.8838 25.1991 18.0026 26.2955 18.4567C27.3918 18.9108 28.3289 19.6799 28.9882 20.6666C29.6475 21.6533 29.9994 22.8133 29.9994 24C29.9994 25.5913 29.3672 27.1174 28.242 28.2426C27.1168 29.3679 25.5907 30 23.9994 30Z" fill="#161616"/>
</svg>
