<svg width="48" height="48" viewBox="0 0 48 48" fill="none" xmlns="http://www.w3.org/2000/svg">
<path d="M31.95 7.35L25.2 3.3C24.75 3.15 24.45 3 24 3C23.55 3 23.25 3.15 22.95 3.3L16.2 7.35C15.45 7.8 15 8.55 15 9.3V17.7C15 18.45 15.45 19.2 16.05 19.65L22.8 23.7C23.1 23.85 23.55 24 23.85 24C24.15 24 24.6 23.85 24.9 23.7L31.65 19.65C32.25 19.2 32.7 18.6 32.7 17.7V9.3C33 8.55 32.55 7.8 31.95 7.35ZM30 17.25L24 20.85L18 17.25V9.75L24 6.15L30 9.75V17.25Z" fill="#161616"/>
<path d="M43.95 28.35L37.2 24.3C36.75 24.15 36.45 24 36 24C35.55 24 35.25 24.15 34.95 24.3L28.2 28.35C27.6 28.8 27.15 29.4 27.15 30.3V38.7C27.15 39.45 27.6 40.2 28.2 40.65L34.95 44.7C35.25 44.85 35.7 45 36 45C36.3 45 36.75 44.85 37.05 44.7L43.8 40.65C44.4 40.2 44.85 39.6 44.85 38.7V30.3C45 29.55 44.55 28.8 43.95 28.35ZM42 38.25L36 41.85L30 38.25V30.75L36 27.15L42 30.75V38.25Z" fill="#161616"/>
<path d="M19.95 28.35L13.2 24.3C12.75 24.15 12.45 24 12 24C11.55 24 11.25 24.15 10.95 24.3L4.2 28.35C3.45 28.8 3 29.55 3 30.3V38.7C3 39.45 3.45 40.2 4.05 40.65L10.8 44.7C11.25 44.85 11.55 45 12 45C12.45 45 12.75 44.85 13.05 44.7L19.8 40.65C20.4 40.2 20.85 39.6 20.85 38.7V30.3C21 29.55 20.55 28.8 19.95 28.35ZM18 38.25L12 41.85L6 38.25V30.75L12 27.15L18 30.75V38.25Z" fill="#161616"/>
</svg>
