<svg width="1750" height="554" viewBox="0 0 1750 554" fill="none" xmlns="http://www.w3.org/2000/svg">
<rect width="1748" height="554" transform="translate(2)" fill="#FCFCFC"/>
<rect x="1104" width="646" height="554" fill="#FEF3CB"/>
<line x1="1750" y1="1" x2="2" y2="1" stroke="#3F3F3F" stroke-width="2"/>
<line x1="1750" y1="93" x2="2" y2="93" stroke="#3F3F3F" stroke-width="2"/>
<line x1="737" y1="554" x2="737" y2="-4.51793e-08" stroke="#3F3F3F" stroke-width="2"/>
<line x1="645" y1="554" x2="645" y2="-4.51793e-08" stroke="#3F3F3F" stroke-width="2"/>
<line x1="553" y1="554" x2="553" y2="-4.51793e-08" stroke="#3F3F3F" stroke-width="2"/>
<line x1="461" y1="554" x2="461" y2="-4.51793e-08" stroke="#3F3F3F" stroke-width="2"/>
<line x1="369" y1="554" x2="369" y2="-4.51793e-08" stroke="#3F3F3F" stroke-width="2"/>
<line x1="277" y1="554" x2="277" y2="-4.51793e-08" stroke="#3F3F3F" stroke-width="2"/>
<line x1="185" y1="554" x2="185" y2="-4.51793e-08" stroke="#3F3F3F" stroke-width="2"/>
<line x1="93" y1="554" x2="93" y2="-4.51793e-08" stroke="#3F3F3F" stroke-width="2"/>
<line x1="1" y1="554" x2="1.00002" y2="-4.51793e-08" stroke="#3F3F3F" stroke-width="2"/>
<line x1="1381" y1="554" x2="1381" y2="-4.51793e-08" stroke="#3F3F3F" stroke-width="2"/>
<line x1="1473" y1="554" x2="1473" y2="-4.51793e-08" stroke="#3F3F3F" stroke-width="2"/>
<line x1="1565" y1="554" x2="1565" y2="-4.51793e-08" stroke="#3F3F3F" stroke-width="2"/>
<line x1="1657" y1="554" x2="1657" y2="-4.51793e-08" stroke="#3F3F3F" stroke-width="2"/>
<line x1="1749" y1="554" x2="1749" y2="-4.51793e-08" stroke="#3F3F3F" stroke-width="2"/>
<line x1="1289" y1="554" x2="1289" y2="-4.51793e-08" stroke="#3F3F3F" stroke-width="2"/>
<line x1="1197" y1="554" x2="1197" y2="-4.51793e-08" stroke="#3F3F3F" stroke-width="2"/>
<line x1="1105" y1="554" x2="1105" y2="-4.51793e-08" stroke="#3F3F3F" stroke-width="2"/>
<line x1="1013" y1="554" x2="1013" y2="-4.51793e-08" stroke="#3F3F3F" stroke-width="2"/>
<line x1="921" y1="554" x2="921" y2="-4.51793e-08" stroke="#3F3F3F" stroke-width="2"/>
<line x1="829" y1="554" x2="829" y2="-4.51793e-08" stroke="#3F3F3F" stroke-width="2"/>
<line x1="1750" y1="185" x2="2" y2="185" stroke="#3F3F3F" stroke-width="2"/>
<line x1="1750" y1="277" x2="2" y2="277" stroke="#3F3F3F" stroke-width="2"/>
<line x1="1750" y1="369" x2="2" y2="369" stroke="#3F3F3F" stroke-width="2"/>
<line x1="1750" y1="461" x2="2" y2="461" stroke="#3F3F3F" stroke-width="2"/>
<line x1="1750" y1="553" x2="2" y2="553" stroke="#3F3F3F" stroke-width="2"/>
<rect width="182" height="182" transform="translate(2 370)" fill="#FCFCFC"/>
<path d="M26.1936 441.284C25.8339 441.031 25.642 440.645 25.6177 440.124C25.5934 439.604 25.7077 439.14 25.9605 438.732C33.7966 428.057 43.5764 419.749 55.3 413.809C67.0235 407.868 79.5561 404.898 92.898 404.898C106.283 404.898 118.931 407.781 130.842 413.546C142.753 419.312 152.69 427.58 160.652 438.352C161.031 438.984 161.141 439.539 160.98 440.015C160.82 440.491 160.501 440.919 160.025 441.298C159.646 441.58 159.15 441.702 158.537 441.665C157.924 441.627 157.409 441.281 156.992 440.627C149.632 430.361 140.293 422.52 128.976 417.105C117.658 411.689 105.632 408.982 92.898 408.982C80.2687 408.982 68.3881 411.745 57.2563 417.272C46.1244 422.799 36.8639 430.584 29.475 440.627C28.8722 441.357 28.3011 441.736 27.7615 441.765C27.2218 441.794 26.6992 441.634 26.1936 441.284ZM115.021 535.915C102.392 532.629 91.9233 526.166 83.6156 516.527C75.3079 506.887 71.1541 495.169 71.1541 481.373C71.1541 475.433 73.31 470.465 77.6219 466.469C81.9337 462.473 87.1262 460.475 93.1996 460.475C99.1758 460.475 104.292 462.473 108.549 466.469C112.805 470.465 114.933 475.433 114.933 481.373C114.933 486.131 116.734 490.092 120.336 493.254C123.937 496.417 128.12 497.998 132.885 497.998C137.717 497.998 141.861 496.404 145.318 493.215C148.774 490.026 150.502 486.079 150.502 481.373C150.502 466.067 144.851 453.206 133.548 442.79C122.246 432.375 108.706 427.167 92.9266 427.167C77.1477 427.167 63.6218 432.365 52.3489 442.76C41.0761 453.156 35.4396 466.027 35.4396 481.373C35.4396 484.455 35.8358 488.368 36.6281 493.113C37.4205 497.857 38.8569 503.326 40.9375 509.519C41.1903 510.151 41.2146 510.649 41.0103 511.014C40.8062 511.379 40.4173 511.736 39.8436 512.086C39.2409 512.339 38.6795 512.374 38.1594 512.193C37.6392 512.011 37.2527 511.611 36.9999 510.992C35.1625 505.8 33.7698 500.806 32.8219 496.008C31.8739 491.21 31.4 486.332 31.4 481.373C31.4 464.984 37.4733 451.126 49.6201 439.798C61.7668 428.47 76.195 422.807 92.9046 422.807C109.797 422.807 124.332 428.449 136.509 439.732C148.686 451.016 154.775 464.897 154.775 481.373C154.775 487.174 152.638 492.1 148.365 496.151C144.092 500.202 138.946 502.228 132.929 502.228C126.931 502.228 121.744 500.202 117.369 496.151C112.994 492.1 110.806 487.174 110.806 481.373C110.806 476.639 109.079 472.653 105.625 469.415C102.171 466.177 98.0262 464.559 93.1896 464.559C88.2733 464.559 84.0522 466.164 80.5263 469.376C77.0005 472.587 75.2375 476.586 75.2375 481.373C75.2375 494.322 79.1215 505.116 86.8895 513.755C94.6576 522.394 104.385 528.434 116.071 531.875C116.785 532.134 117.272 532.468 117.532 532.878C117.793 533.288 117.86 533.769 117.733 534.324C117.51 534.937 117.184 535.419 116.756 535.769C116.328 536.119 115.75 536.168 115.021 535.915ZM49.1186 401.311C48.7784 401.369 48.3774 401.328 47.9155 401.187C47.4537 401.046 47.1451 400.786 46.9896 400.407C46.834 400.057 46.7562 399.605 46.7562 399.05C46.7562 398.496 46.9458 398.093 47.325 397.84C54.3346 393.922 61.7405 390.976 69.5426 389.003C77.3448 387.029 85.2271 386.042 93.1896 386.042C101.18 386.042 109.015 387.005 116.695 388.93C124.375 390.855 131.76 393.698 138.85 397.461C139.579 397.811 140.024 398.263 140.184 398.817C140.345 399.371 140.299 399.887 140.046 400.363C139.793 400.742 139.421 401.058 138.93 401.311C138.439 401.564 137.926 401.564 137.392 401.311C130.635 397.509 123.514 394.702 116.031 392.889C108.547 391.076 100.91 390.169 93.1185 390.169C85.4269 390.169 77.9013 391.134 70.5416 393.064C63.1819 394.994 56.041 397.743 49.1186 401.311ZM74.377 533.83C67.241 526.246 61.6434 518.308 57.5843 510.015C53.5253 501.722 51.4958 492.173 51.4958 481.368C51.4958 470.22 55.5887 460.816 63.7746 453.154C71.9604 445.493 81.7677 441.663 93.1964 441.663C104.625 441.663 114.445 445.493 122.655 453.154C130.866 460.816 134.971 470.222 134.971 481.373C134.971 482.034 134.796 482.54 134.446 482.89C134.096 483.24 133.59 483.415 132.929 483.415C132.492 483.415 132.035 483.24 131.558 482.89C131.082 482.54 130.844 482.034 130.844 481.373C130.844 471.33 127.143 462.882 119.742 456.027C112.341 449.173 103.491 445.746 93.193 445.746C82.8948 445.746 74.0586 449.173 66.6843 456.027C59.31 462.882 55.6229 471.326 55.6229 481.362C55.6229 492.015 57.4871 501.036 61.2156 508.425C64.944 515.814 70.3277 523.291 77.3666 530.856C77.9694 531.477 78.1906 532.058 78.0301 532.597C77.8697 533.137 77.6485 533.548 77.3666 533.83C77.0166 534.18 76.5572 534.401 75.9885 534.493C75.4197 534.585 74.8826 534.364 74.377 533.83ZM131.369 520.136C120.441 520.136 110.95 516.459 102.895 509.107C94.84 501.754 90.8126 492.51 90.8126 481.373C90.8126 480.78 90.9848 480.284 91.3292 479.886C91.6736 479.487 92.1719 479.288 92.824 479.288C93.4761 479.288 93.9844 479.487 94.3489 479.886C94.7135 480.284 94.8958 480.78 94.8958 481.373C94.8958 491.52 98.5344 499.837 105.811 506.323C113.089 512.809 121.608 516.053 131.369 516.053C132.672 516.053 134.042 515.989 135.481 515.863C136.92 515.737 138.364 515.547 139.812 515.294C140.25 515.265 140.658 515.36 141.038 515.579C141.417 515.797 141.67 516.203 141.796 516.797C142.019 517.353 141.964 517.827 141.628 518.22C141.293 518.612 140.809 518.872 140.177 518.998C138.777 519.436 137.272 519.735 135.663 519.895C134.055 520.056 132.623 520.136 131.369 520.136Z" fill="#3F3F3F"/>
<rect width="182" height="182" transform="translate(2 186)" fill="#FCFCFC"/>
<path d="M93.0567 300.042C100.437 300.042 106.745 297.405 111.98 292.132C117.216 286.859 119.833 280.532 119.833 273.152C119.833 265.772 117.197 259.464 111.924 254.229C106.65 248.993 100.324 246.375 92.9433 246.375C85.5631 246.375 79.2552 249.012 74.0197 254.285C68.7843 259.558 66.1666 265.885 66.1666 273.265C66.1666 280.646 68.8032 286.953 74.0764 292.189C79.3496 297.424 85.6763 300.042 93.0567 300.042ZM92.9297 294.004C87.1335 294.004 82.2301 291.976 78.2197 287.919C74.2094 283.861 72.2042 278.935 72.2042 273.138C72.2042 267.342 74.2328 262.439 78.29 258.428C82.3474 254.418 87.2741 252.413 93.0703 252.413C98.8665 252.413 103.77 254.441 107.78 258.499C111.791 262.556 113.796 267.483 113.796 273.279C113.796 279.075 111.767 283.979 107.71 287.989C103.653 291.999 98.7259 294.004 92.9297 294.004ZM93.0208 322.5C76.693 322.5 61.8013 318.009 48.3457 309.025C34.8902 300.042 24.6917 288.103 17.75 273.209C24.6917 258.314 34.8832 246.375 48.3247 237.392C61.7665 228.409 76.6513 223.917 92.9791 223.917C109.307 223.917 124.199 228.409 137.654 237.392C151.11 246.375 161.308 258.314 168.25 273.209C161.308 288.103 151.117 300.042 137.675 309.025C124.233 318.009 109.349 322.5 93.0208 322.5ZM92.9679 316.667C107.796 316.667 121.382 312.747 133.724 304.905C146.066 297.065 155.49 286.499 161.994 273.209C155.49 259.918 146.077 249.353 133.756 241.512C121.435 233.671 107.86 229.75 93.032 229.75C78.2037 229.75 64.6184 233.671 52.276 241.512C39.9336 249.353 30.4958 259.918 23.9625 273.209C30.4958 286.499 39.923 297.065 52.2441 304.905C64.5651 312.747 78.1398 316.667 92.9679 316.667Z" fill="#3F3F3F"/>
<path d="M1519 354.333C1511.44 354.333 1504.98 351.736 1499.62 346.541C1494.26 341.346 1491.58 334.968 1491.58 327.406C1491.58 323.549 1492.31 320.041 1493.77 316.88C1495.22 313.719 1497.16 310.853 1499.58 308.282L1519 289.256L1538.42 308.282C1540.84 310.853 1542.78 313.756 1544.23 316.993C1545.69 320.229 1546.42 323.7 1546.42 327.406C1546.42 334.903 1543.75 341.265 1538.43 346.492C1533.1 351.719 1526.63 354.333 1519 354.333ZM1519 351.32V293.564L1501.62 310.654C1499.32 312.904 1497.57 315.427 1496.38 318.224C1495.19 321.021 1494.6 324.082 1494.6 327.406C1494.6 334.039 1496.98 339.683 1501.75 344.338C1506.52 348.993 1512.27 351.32 1519 351.32Z" fill="#3F3F3F"/>
<path d="M1138.15 168.646L1117.44 147.933C1116.9 147.382 1116.48 146.751 1116.19 146.04C1115.9 145.329 1115.75 144.624 1115.75 143.925C1115.75 143.126 1115.9 142.392 1116.19 141.722C1116.48 141.052 1116.9 140.424 1117.44 139.836L1140.11 117.165L1128.49 105.776L1130.67 103.675L1166.82 139.917C1167.43 140.501 1167.88 141.129 1168.15 141.802C1168.43 142.475 1168.57 143.212 1168.57 144.014C1168.57 144.715 1168.43 145.42 1168.15 146.127C1167.88 146.834 1167.43 147.461 1166.81 148.008L1146.25 168.646C1145.66 169.184 1145.03 169.599 1144.36 169.893C1143.69 170.187 1142.96 170.333 1142.16 170.333C1141.46 170.333 1140.75 170.187 1140.04 169.893C1139.33 169.599 1138.7 169.184 1138.15 168.646ZM1142.13 119.191L1119.16 142.239C1118.86 142.54 1118.66 142.841 1118.56 143.143C1118.46 143.444 1118.41 143.745 1118.41 144.047H1165.94C1165.94 143.745 1165.89 143.444 1165.79 143.143C1165.69 142.841 1165.48 142.54 1165.18 142.239L1142.13 119.191ZM1179.96 170.333C1178.24 170.333 1176.79 169.716 1175.6 168.48C1174.41 167.245 1173.82 165.754 1173.82 164.007C1173.82 162.592 1174.07 161.248 1174.58 159.974C1175.08 158.701 1175.8 157.536 1176.74 156.482L1180 152.407L1183.4 156.482C1184.33 157.536 1185.05 158.701 1185.56 159.974C1186.07 161.248 1186.33 162.592 1186.33 164.007C1186.33 165.804 1185.71 167.308 1184.48 168.518C1183.24 169.728 1181.74 170.333 1179.96 170.333Z" fill="#3F3F3F"/>
<path d="M1514.94 143.038V134.918H1523.04V143.038H1514.94ZM1506.82 151.082V143.038H1514.94V151.082H1506.82ZM1523.04 151.082V143.038H1531.08V151.082H1523.04ZM1531.08 143.038V134.918H1539.2V143.038H1531.08ZM1498.8 143.038V134.918H1506.82V143.038H1498.8ZM1493.09 170.334C1491.62 170.334 1490.35 169.796 1489.28 168.721C1488.2 167.646 1487.67 166.376 1487.67 164.911V113.09C1487.67 111.625 1488.2 110.355 1489.28 109.28C1490.35 108.205 1491.62 107.667 1493.09 107.667H1544.91C1546.38 107.667 1547.65 108.205 1548.72 109.28C1549.8 110.355 1550.33 111.625 1550.33 113.09V164.911C1550.33 166.376 1549.8 167.646 1548.72 168.721C1547.65 169.796 1546.38 170.334 1544.91 170.334H1493.09ZM1498.8 167.321H1506.82V159.201H1498.8V167.321ZM1514.94 167.321H1523.04V159.201H1514.94V167.321ZM1490.68 159.201H1498.76V151.119H1506.84V159.201H1514.92V151.082H1523.08V159.201H1531.12V151.082H1539.2V159.201H1547.32V151.107H1539.2V143.012H1547.32V113.09C1547.32 112.487 1547.07 111.935 1546.57 111.433C1546.07 110.931 1545.51 110.68 1544.91 110.68H1493.09C1492.49 110.68 1491.93 110.931 1491.43 111.433C1490.93 111.935 1490.68 112.487 1490.68 113.09V143.077H1498.77V151.119H1490.68V159.201ZM1493.09 167.321H1490.68V110.68H1493.09C1492.49 110.68 1491.93 110.931 1491.43 111.433C1490.93 111.935 1490.68 112.487 1490.68 113.09V164.911C1490.68 165.513 1490.93 166.066 1491.43 166.568C1491.93 167.07 1492.49 167.321 1493.09 167.321ZM1531.08 159.201V167.321H1539.2V159.201H1531.08Z" fill="#3F3F3F"/>
<path d="M1346.75 74.8682V23.0476H1326.71V19.1309H1370.7V23.0476H1350.67V74.8682H1346.75ZM1311.5 74.8682V42.631H1299.3V38.7142H1327.62V42.631H1315.42V74.8682H1311.5Z" fill="#3F3F3F"/>
<path d="M1112.29 546.166V539.237H1189.71V546.166L1112.29 546.166ZM1128.4 524.625L1149.57 473.708H1152.43L1173.6 524.625H1169.79L1163.83 510.088H1137.79L1131.91 524.625H1128.4ZM1139.01 507.06H1162.69L1151.2 478.642H1150.65L1139.01 507.06Z" fill="#3F3F3F"/>
<path d="M1297.34 452.66V437.303H1303.64V392.698H1297.34V377.34H1312.7V383.644H1357.3V377.34H1372.66V392.698H1366.36V437.303H1372.66V452.66H1357.3V446.356H1312.7V452.66H1297.34ZM1312.7 443.343H1357.3V437.303H1363.34V392.698H1357.3V386.657H1312.7V392.698H1306.66V437.303H1312.7V443.343ZM1319.79 431.285L1334.08 394.633H1335.82L1350.43 431.285H1347.1L1342.65 420.333H1327.54L1323.09 431.285H1319.79ZM1328.45 417.486H1341.55L1335.14 401.006H1334.61L1328.45 417.486ZM1300.35 389.685H1309.68V380.353H1300.35V389.685ZM1360.32 389.685H1369.65V380.353H1360.32V389.685ZM1360.32 449.648H1369.65V440.315H1360.32V449.648ZM1300.35 449.648H1309.68V440.315H1300.35V449.648Z" fill="#3F3F3F"/>
<path d="M1335 263.539L1322.04 250.584L1324.24 248.234L1333.49 257.408V204.593L1324.24 213.767L1322.04 211.417L1335 198.462L1347.96 211.417L1345.76 213.767L1336.51 204.593V257.408L1345.76 248.234L1347.96 250.584L1335 263.539Z" fill="#3F3F3F"/>
<path d="M1518.85 542.25C1514.05 542.25 1509.52 541.322 1505.25 539.467C1500.99 537.612 1497.27 535.093 1494.09 531.912C1490.91 528.731 1488.39 524.997 1486.53 520.708C1484.68 516.42 1483.75 511.851 1483.75 507C1483.75 502.054 1484.69 497.437 1486.58 493.149C1488.47 488.86 1491.05 485.129 1494.32 481.956C1497.59 478.782 1501.43 476.288 1505.85 474.473C1510.26 472.658 1514.96 471.75 1519.96 471.75C1524.51 471.75 1528.85 472.502 1532.99 474.006C1537.12 475.51 1540.76 477.62 1543.9 480.337C1547.04 483.053 1549.55 486.278 1551.43 490.011C1553.31 493.745 1554.25 497.823 1554.25 502.247C1554.25 508.092 1552.61 512.854 1549.32 516.532C1546.04 520.21 1541.3 522.049 1535.12 522.049H1528.15C1526.22 522.049 1524.56 522.745 1523.16 524.135C1521.76 525.526 1521.06 527.178 1521.06 529.091C1521.06 531.205 1521.54 532.782 1522.51 533.822C1523.49 534.861 1523.97 536.071 1523.97 537.452C1523.97 538.979 1523.54 540.16 1522.67 540.996C1521.8 541.832 1520.53 542.25 1518.85 542.25ZM1496.86 508.341C1497.77 508.341 1498.57 507.989 1499.27 507.286C1499.98 506.583 1500.33 505.78 1500.33 504.876C1500.33 503.972 1499.98 503.169 1499.27 502.466C1498.57 501.763 1497.77 501.411 1496.86 501.411C1495.96 501.411 1495.16 501.763 1494.45 502.466C1493.75 503.169 1493.4 503.972 1493.4 504.876C1493.4 505.78 1493.75 506.583 1494.45 507.286C1495.16 507.989 1495.96 508.341 1496.86 508.341ZM1508.9 492.222C1509.8 492.222 1510.61 491.871 1511.31 491.168C1512.01 490.465 1512.36 489.661 1512.36 488.757C1512.36 487.854 1512.01 487.05 1511.31 486.347C1510.61 485.644 1509.8 485.293 1508.9 485.293C1508 485.293 1507.19 485.644 1506.49 486.347C1505.79 487.05 1505.43 487.854 1505.43 488.757C1505.43 489.661 1505.79 490.465 1506.49 491.168C1507.19 491.871 1508 492.222 1508.9 492.222ZM1529.1 492.222C1530 492.222 1530.81 491.871 1531.51 491.168C1532.21 490.465 1532.57 489.661 1532.57 488.757C1532.57 487.854 1532.21 487.05 1531.51 486.347C1530.81 485.644 1530 485.293 1529.1 485.293C1528.2 485.293 1527.39 485.644 1526.69 486.347C1525.99 487.05 1525.64 487.854 1525.64 488.757C1525.64 489.661 1525.99 490.465 1526.69 491.168C1527.39 491.871 1528.2 492.222 1529.1 492.222ZM1541.33 508.341C1542.23 508.341 1543.03 507.989 1543.74 507.286C1544.44 506.583 1544.79 505.78 1544.79 504.876C1544.79 503.972 1544.44 503.169 1543.74 502.466C1543.03 501.763 1542.23 501.411 1541.33 501.411C1540.42 501.411 1539.62 501.763 1538.91 502.466C1538.21 503.169 1537.86 503.972 1537.86 504.876C1537.86 505.78 1538.21 506.583 1538.91 507.286C1539.62 507.989 1540.42 508.341 1541.33 508.341ZM1518.85 539.237C1519.57 539.237 1520.1 539.09 1520.44 538.797C1520.79 538.503 1520.96 538.055 1520.96 537.452C1520.96 536.538 1520.47 535.664 1519.5 534.831C1518.53 533.997 1518.04 532.343 1518.04 529.867C1518.04 526.915 1519.01 524.371 1520.94 522.237C1522.88 520.103 1525.27 519.036 1528.12 519.036H1535.12C1540.33 519.036 1544.32 517.496 1547.09 514.415C1549.85 511.335 1551.24 507.279 1551.24 502.247C1551.24 493.982 1548.07 487.335 1541.75 482.306C1535.42 477.277 1528.16 474.763 1519.96 474.763C1510.63 474.763 1502.76 477.877 1496.36 484.106C1489.96 490.335 1486.76 497.967 1486.76 507C1486.76 515.903 1489.9 523.502 1496.17 529.796C1502.44 536.09 1510 539.237 1518.85 539.237Z" fill="#3F3F3F"/>
<path d="M1127.91 352.97C1126.69 352.97 1125.48 352.858 1124.29 352.635C1123.09 352.411 1121.95 351.978 1120.87 351.336C1122.45 350.151 1123.52 348.795 1124.07 347.268C1124.63 345.742 1124.9 343.932 1124.9 341.838C1124.9 339.827 1125.59 338.138 1126.95 336.771C1128.32 335.404 1130.01 334.72 1132.03 334.72C1134.04 334.72 1135.74 335.404 1137.13 336.771C1138.52 338.138 1139.21 339.827 1139.21 341.838C1139.21 345.039 1138.11 347.694 1135.92 349.805C1133.72 351.915 1131.05 352.97 1127.91 352.97ZM1127.91 349.957C1130.1 349.957 1132.03 349.171 1133.7 347.598C1135.36 346.025 1136.2 344.105 1136.2 341.838C1136.2 340.683 1135.8 339.71 1135.01 338.919C1134.22 338.128 1133.22 337.733 1132 337.733C1130.79 337.733 1129.8 338.128 1129.05 338.919C1128.29 339.71 1127.91 340.683 1127.91 341.838C1127.91 343.831 1127.69 345.444 1127.23 346.677C1126.78 347.91 1126.05 348.883 1125.05 349.596C1125.34 349.661 1125.81 349.738 1126.45 349.825C1127.08 349.913 1127.57 349.957 1127.91 349.957ZM1146.97 333.078L1141.17 327.015L1174 294.19C1174.76 293.376 1175.7 292.953 1176.8 292.921C1177.91 292.888 1178.91 293.311 1179.79 294.19L1179.92 294.243C1180.74 295.121 1181.15 296.107 1181.15 297.199C1181.14 298.291 1180.73 299.269 1179.92 300.133L1146.97 333.078Z" fill="#3F3F3F"/>
<path d="M1683.92 446.032L1683.42 442.959L1694.12 413.433C1694.54 413.75 1694.96 414.023 1695.39 414.254C1695.82 414.485 1696.27 414.664 1696.75 414.789L1686.29 443.765L1683.92 446.032ZM1722.08 446.032L1719.71 443.765L1709.21 414.887C1709.63 414.711 1710.08 414.52 1710.54 414.315C1711 414.109 1711.44 413.822 1711.86 413.456L1722.58 442.959L1722.08 446.032ZM1703 409.125C1700.29 409.125 1697.98 408.171 1696.07 406.263C1694.16 404.355 1693.21 402.045 1693.21 399.333C1693.21 396.692 1694.03 394.486 1695.68 392.716C1697.33 390.946 1699.27 389.943 1701.49 389.707V379.75H1704.51V389.707C1706.73 389.943 1708.67 390.946 1710.32 392.716C1711.97 394.486 1712.79 396.692 1712.79 399.333C1712.79 402.045 1711.84 404.355 1709.93 406.263C1708.02 408.171 1705.71 409.125 1703 409.125ZM1703 406.112C1704.88 406.112 1706.48 405.453 1707.8 404.135C1709.12 402.817 1709.78 401.216 1709.78 399.333C1709.78 397.45 1709.12 395.85 1707.8 394.532C1706.48 393.214 1704.88 392.554 1703 392.554C1701.12 392.554 1699.52 393.214 1698.2 394.532C1696.88 395.85 1696.22 397.45 1696.22 399.333C1696.22 401.216 1696.88 402.817 1698.2 404.135C1699.52 405.453 1701.12 406.112 1703 406.112Z" fill="#3F3F3F"/>
<path d="M1671.67 41.1253V15.667H1697.13V41.1253H1671.67ZM1674.68 38.1125H1694.11V18.6798H1674.68V38.1125ZM1671.67 78.3337V52.8753H1697.13V78.3337H1671.67ZM1674.68 75.3209H1694.11V55.8881H1674.68V75.3209ZM1708.88 41.1253V15.667H1734.33V41.1253H1708.88ZM1711.89 38.1125H1731.32V18.6798H1711.89V38.1125ZM1708.88 78.3337V52.8753H1734.33V78.3337H1708.88ZM1711.89 75.3209H1731.32V55.8881H1711.89V75.3209Z" fill="#3F3F3F"/>
<path d="M1717.61 268.209V259.358L1687.33 244.257H1669.71V225.577H1685.64L1698.03 211.492V193.792H1716.71V212.471H1701.21L1688.39 227.008V241.447L1717.61 255.962V249.529H1736.29V268.209L1717.61 268.209ZM1701.04 209.459H1713.7V196.805H1701.04V209.459ZM1672.72 241.244H1685.37V228.59H1672.72V241.244ZM1720.62 265.196H1733.28V252.542H1720.62V265.196Z" fill="#3F3F3F"/>
<rect width="734" height="274" transform="translate(278 186)" fill="#FCFCFC"/>
<path d="M325.406 213.125H334.898V252.617C334.898 256.966 334.078 260.469 332.438 263.125C330.823 265.781 328.635 267.721 325.875 268.945C323.141 270.169 320.094 270.781 316.734 270.781C313.245 270.781 310.133 270.169 307.398 268.945C304.664 267.721 302.516 265.781 300.953 263.125C299.391 260.469 298.609 256.966 298.609 252.617V213.125H308.062V252.617C308.062 255.326 308.401 257.422 309.078 258.906C309.781 260.391 310.771 261.419 312.047 261.992C313.349 262.565 314.911 262.852 316.734 262.852C318.557 262.852 320.107 262.565 321.383 261.992C322.685 261.419 323.674 260.391 324.352 258.906C325.055 257.422 325.406 255.326 325.406 252.617V213.125ZM355.386 213.125V270H345.894V213.125H355.386ZM387.866 213.125L369.428 274.883H362.397L380.873 213.125H387.866ZM422.025 213.125H431.517V252.617C431.517 256.966 430.697 260.469 429.056 263.125C427.442 265.781 425.254 267.721 422.494 268.945C419.759 270.169 416.713 270.781 413.353 270.781C409.864 270.781 406.752 270.169 404.017 268.945C401.283 267.721 399.134 265.781 397.572 263.125C396.009 260.469 395.228 256.966 395.228 252.617V213.125H404.681V252.617C404.681 255.326 405.02 257.422 405.697 258.906C406.4 260.391 407.39 261.419 408.666 261.992C409.968 262.565 411.53 262.852 413.353 262.852C415.176 262.852 416.726 262.565 418.002 261.992C419.304 261.419 420.293 260.391 420.97 258.906C421.673 257.422 422.025 255.326 422.025 252.617V213.125ZM449.973 213.125L459.309 233.398L468.411 213.125H479.075L464.856 241.289L479.387 270H468.372L458.997 249.297L449.583 270H438.762L453.411 241.172L439.075 213.125H449.973ZM527.12 261.172V210H536.222V270L527.98 270.039L527.12 261.172ZM504.425 250.586V247.266C504.425 243.802 504.738 240.807 505.363 238.281C505.988 235.729 506.899 233.607 508.097 231.914C509.321 230.221 510.792 228.971 512.511 228.164C514.23 227.357 516.17 226.953 518.331 226.953C520.441 226.953 522.264 227.435 523.8 228.398C525.336 229.336 526.639 230.677 527.706 232.422C528.774 234.167 529.62 236.25 530.245 238.672C530.896 241.068 531.339 243.75 531.573 246.719V251.328C531.287 254.193 530.831 256.823 530.206 259.219C529.581 261.589 528.735 263.633 527.667 265.352C526.599 267.07 525.284 268.411 523.722 269.375C522.185 270.312 520.376 270.781 518.292 270.781C516.131 270.781 514.191 270.352 512.472 269.492C510.779 268.633 509.321 267.357 508.097 265.664C506.899 263.971 505.988 261.875 505.363 259.375C504.738 256.849 504.425 253.919 504.425 250.586ZM513.527 247.266V250.586C513.527 252.747 513.657 254.609 513.917 256.172C514.178 257.734 514.594 259.023 515.167 260.039C515.74 261.029 516.495 261.771 517.433 262.266C518.37 262.734 519.503 262.969 520.831 262.969C522.498 262.969 523.852 262.552 524.894 261.719C525.961 260.885 526.782 259.766 527.355 258.359C527.954 256.927 528.37 255.339 528.605 253.594V244.492C528.474 243.112 528.214 241.836 527.823 240.664C527.433 239.466 526.925 238.424 526.3 237.539C525.675 236.654 524.907 235.964 523.995 235.469C523.11 234.948 522.068 234.688 520.87 234.688C519.542 234.688 518.409 234.948 517.472 235.469C516.534 235.964 515.779 236.732 515.206 237.773C514.633 238.789 514.204 240.091 513.917 241.68C513.657 243.242 513.527 245.104 513.527 247.266ZM562.53 270.781C559.795 270.781 557.36 270.378 555.225 269.57C553.09 268.737 551.28 267.513 549.795 265.898C548.311 264.258 547.178 262.253 546.397 259.883C545.616 257.487 545.225 254.714 545.225 251.562V247.5C545.225 243.932 545.629 240.859 546.436 238.281C547.269 235.677 548.415 233.542 549.873 231.875C551.332 230.208 553.051 228.971 555.03 228.164C557.035 227.357 559.209 226.953 561.553 226.953C564.209 226.953 566.514 227.383 568.467 228.242C570.42 229.102 572.022 230.391 573.272 232.109C574.548 233.828 575.485 235.951 576.084 238.477C576.709 241.003 577.022 243.906 577.022 247.188V251.758H549.6V244.883H568.038V243.906C567.985 241.979 567.751 240.326 567.334 238.945C566.918 237.539 566.241 236.471 565.303 235.742C564.392 234.987 563.129 234.609 561.514 234.609C560.342 234.609 559.301 234.831 558.389 235.273C557.478 235.716 556.722 236.432 556.123 237.422C555.551 238.411 555.108 239.74 554.795 241.406C554.483 243.047 554.327 245.078 554.327 247.5V251.562C554.327 253.672 554.509 255.456 554.873 256.914C555.264 258.372 555.837 259.57 556.592 260.508C557.347 261.419 558.259 262.096 559.327 262.539C560.42 262.956 561.683 263.164 563.116 263.164C565.225 263.164 567.035 262.773 568.545 261.992C570.082 261.185 571.41 260.143 572.53 258.867L576.553 264.453C575.798 265.469 574.782 266.471 573.506 267.461C572.23 268.424 570.681 269.219 568.858 269.844C567.061 270.469 564.952 270.781 562.53 270.781ZM604.697 258.867C604.697 257.982 604.436 257.201 603.916 256.523C603.421 255.82 602.614 255.13 601.494 254.453C600.374 253.776 598.877 253.047 597.002 252.266C595.048 251.458 593.317 250.651 591.806 249.844C590.296 249.036 589.02 248.151 587.978 247.188C586.936 246.198 586.142 245.065 585.595 243.789C585.048 242.513 584.775 241.029 584.775 239.336C584.775 237.591 585.101 235.977 585.752 234.492C586.403 233.008 587.34 231.706 588.564 230.586C589.788 229.44 591.259 228.555 592.978 227.93C594.697 227.279 596.637 226.953 598.798 226.953C601.845 226.953 604.449 227.513 606.611 228.633C608.798 229.727 610.465 231.263 611.611 233.242C612.783 235.195 613.369 237.448 613.369 240H604.267C604.267 238.932 604.072 237.969 603.681 237.109C603.291 236.224 602.692 235.521 601.884 235C601.077 234.453 600.048 234.18 598.798 234.18C597.653 234.18 596.689 234.401 595.908 234.844C595.153 235.26 594.58 235.833 594.189 236.562C593.824 237.266 593.642 238.06 593.642 238.945C593.642 239.596 593.759 240.169 593.994 240.664C594.228 241.159 594.619 241.641 595.166 242.109C595.712 242.552 596.442 243.008 597.353 243.477C598.291 243.945 599.476 244.479 600.908 245.078C603.746 246.172 606.103 247.305 607.978 248.477C609.853 249.648 611.259 251.016 612.197 252.578C613.134 254.141 613.603 256.081 613.603 258.398C613.603 260.273 613.252 261.966 612.548 263.477C611.871 264.987 610.882 266.289 609.58 267.383C608.304 268.477 606.754 269.323 604.931 269.922C603.134 270.495 601.129 270.781 598.916 270.781C595.608 270.781 592.809 270.13 590.517 268.828C588.252 267.5 586.533 265.794 585.361 263.711C584.189 261.628 583.603 259.427 583.603 257.109H592.392C592.47 258.776 592.822 260.078 593.447 261.016C594.098 261.953 594.918 262.604 595.908 262.969C596.897 263.307 597.926 263.477 598.994 263.477C600.27 263.477 601.324 263.307 602.158 262.969C602.991 262.604 603.616 262.07 604.033 261.367C604.476 260.664 604.697 259.831 604.697 258.867ZM631.981 227.734V270H622.88V227.734H631.981ZM622.411 216.68C622.411 215.221 622.854 214.01 623.739 213.047C624.624 212.057 625.861 211.562 627.45 211.562C629.039 211.562 630.276 212.044 631.161 213.008C632.046 213.971 632.489 215.182 632.489 216.641C632.489 218.073 632.046 219.271 631.161 220.234C630.276 221.198 629.039 221.68 627.45 221.68C625.861 221.68 624.624 221.198 623.739 220.234C622.854 219.271 622.411 218.086 622.411 216.68ZM665.047 227.734H673.289V270.156C673.289 273.958 672.586 277.07 671.18 279.492C669.799 281.94 667.872 283.75 665.398 284.922C662.924 286.094 660.06 286.68 656.805 286.68C655.607 286.68 654.188 286.484 652.547 286.094C650.906 285.703 649.305 285.13 647.742 284.375C646.18 283.62 644.878 282.682 643.836 281.562L647.156 275.234C648.38 276.484 649.826 277.448 651.492 278.125C653.159 278.828 654.76 279.18 656.297 279.18C657.964 279.18 659.37 278.893 660.516 278.32C661.688 277.773 662.586 276.849 663.211 275.547C663.836 274.271 664.148 272.539 664.148 270.352V237.305L665.047 227.734ZM641.141 250.586V247.266C641.141 243.802 641.466 240.807 642.117 238.281C642.768 235.729 643.706 233.607 644.93 231.914C646.154 230.221 647.651 228.971 649.422 228.164C651.193 227.357 653.172 226.953 655.359 226.953C657.625 226.953 659.539 227.435 661.102 228.398C662.69 229.336 663.979 230.677 664.969 232.422C665.984 234.167 666.779 236.25 667.352 238.672C667.924 241.068 668.341 243.75 668.602 246.719V251.328C668.341 254.193 667.898 256.823 667.273 259.219C666.648 261.589 665.802 263.633 664.734 265.352C663.693 267.07 662.391 268.411 660.828 269.375C659.292 270.312 657.443 270.781 655.281 270.781C653.12 270.781 651.167 270.352 649.422 269.492C647.677 268.633 646.18 267.357 644.93 265.664C643.706 263.971 642.768 261.875 642.117 259.375C641.466 256.849 641.141 253.919 641.141 250.586ZM650.242 247.266V250.586C650.242 252.747 650.385 254.609 650.672 256.172C650.984 257.734 651.44 259.023 652.039 260.039C652.638 261.029 653.419 261.771 654.383 262.266C655.346 262.734 656.492 262.969 657.82 262.969C659.565 262.969 660.971 262.552 662.039 261.719C663.133 260.885 663.966 259.766 664.539 258.359C665.138 256.927 665.555 255.339 665.789 253.594V244.492C665.659 243.112 665.398 241.836 665.008 240.664C664.643 239.466 664.135 238.424 663.484 237.539C662.859 236.654 662.078 235.964 661.141 235.469C660.229 234.948 659.148 234.688 657.898 234.688C656.596 234.688 655.451 234.948 654.461 235.469C653.497 235.964 652.703 236.732 652.078 237.773C651.453 238.789 650.984 240.091 650.672 241.68C650.385 243.242 650.242 245.104 650.242 247.266ZM692.214 236.758V270H683.112V227.734H691.667L692.214 236.758ZM690.573 247.344H687.683C687.657 244.297 687.982 241.523 688.659 239.023C689.336 236.523 690.3 234.375 691.55 232.578C692.826 230.781 694.336 229.401 696.081 228.438C697.852 227.448 699.818 226.953 701.98 226.953C703.646 226.953 705.17 227.24 706.55 227.812C707.956 228.359 709.154 229.258 710.144 230.508C711.133 231.758 711.889 233.385 712.409 235.391C712.956 237.396 713.23 239.844 713.23 242.734V270H704.128V242.656C704.128 240.677 703.907 239.115 703.464 237.969C703.047 236.797 702.422 235.964 701.589 235.469C700.756 234.948 699.701 234.688 698.425 234.688C697.253 234.688 696.172 235.026 695.183 235.703C694.219 236.354 693.386 237.266 692.683 238.438C692.006 239.583 691.485 240.924 691.12 242.461C690.756 243.971 690.573 245.599 690.573 247.344ZM739.342 270.781C736.608 270.781 734.173 270.378 732.038 269.57C729.902 268.737 728.092 267.513 726.608 265.898C725.123 264.258 723.991 262.253 723.209 259.883C722.428 257.487 722.038 254.714 722.038 251.562V247.5C722.038 243.932 722.441 240.859 723.248 238.281C724.082 235.677 725.228 233.542 726.686 231.875C728.144 230.208 729.863 228.971 731.842 228.164C733.847 227.357 736.022 226.953 738.366 226.953C741.022 226.953 743.327 227.383 745.28 228.242C747.233 229.102 748.834 230.391 750.084 232.109C751.36 233.828 752.298 235.951 752.897 238.477C753.522 241.003 753.834 243.906 753.834 247.188V251.758H726.413V244.883H744.85V243.906C744.798 241.979 744.564 240.326 744.147 238.945C743.73 237.539 743.053 236.471 742.116 235.742C741.204 234.987 739.941 234.609 738.327 234.609C737.155 234.609 736.113 234.831 735.202 235.273C734.29 235.716 733.535 236.432 732.936 237.422C732.363 238.411 731.92 239.74 731.608 241.406C731.295 243.047 731.139 245.078 731.139 247.5V251.562C731.139 253.672 731.321 255.456 731.686 256.914C732.077 258.372 732.649 259.57 733.405 260.508C734.16 261.419 735.071 262.096 736.139 262.539C737.233 262.956 738.496 263.164 739.928 263.164C742.038 263.164 743.847 262.773 745.358 261.992C746.894 261.185 748.222 260.143 749.342 258.867L753.366 264.453C752.61 265.469 751.595 266.471 750.319 267.461C749.043 268.424 747.493 269.219 745.67 269.844C743.873 270.469 741.764 270.781 739.342 270.781ZM771.041 235.898V270H761.939V227.734H770.611L771.041 235.898ZM781.236 227.461L781.197 236.445C780.676 236.315 780.116 236.237 779.517 236.211C778.944 236.159 778.371 236.133 777.798 236.133C776.548 236.133 775.468 236.354 774.556 236.797C773.645 237.24 772.877 237.878 772.252 238.711C771.627 239.544 771.132 240.547 770.767 241.719C770.429 242.891 770.22 244.219 770.142 245.703L768.189 245.781C768.189 243.125 768.397 240.664 768.814 238.398C769.231 236.107 769.856 234.115 770.689 232.422C771.548 230.703 772.616 229.362 773.892 228.398C775.168 227.435 776.653 226.953 778.345 226.953C778.814 226.953 779.348 227.005 779.947 227.109C780.546 227.214 780.976 227.331 781.236 227.461Z" fill="#8A8A8A"/>
<path d="M366.266 371.344V390.25H319.625V371.344H366.266ZM326.109 325.25V439H303.219V325.25H326.109ZM382.828 325.25V439H360.172V325.25H382.828ZM437.669 440.562C431.887 440.562 426.757 439.677 422.278 437.906C417.851 436.135 414.101 433.583 411.028 430.25C407.955 426.865 405.611 422.776 403.997 417.984C402.382 413.193 401.575 407.724 401.575 401.578V394.625C401.575 387.75 402.356 381.734 403.919 376.578C405.481 371.37 407.695 366.995 410.559 363.453C413.424 359.911 416.94 357.281 421.106 355.562C425.325 353.792 430.091 352.906 435.403 352.906C440.716 352.906 445.377 353.792 449.387 355.562C453.45 357.281 456.809 359.885 459.466 363.375C462.122 366.812 464.127 371.083 465.481 376.188C466.835 381.292 467.512 387.229 467.512 394V404H410.872V388.609H446.028V386.656C446.028 383.219 445.664 380.354 444.934 378.062C444.205 375.719 443.059 373.974 441.497 372.828C439.934 371.682 437.851 371.109 435.247 371.109C433.059 371.109 431.21 371.552 429.7 372.438C428.19 373.323 426.992 374.703 426.106 376.578C425.221 378.453 424.57 380.901 424.153 383.922C423.736 386.891 423.528 390.458 423.528 394.625V401.578C423.528 405.484 423.867 408.766 424.544 411.422C425.221 414.026 426.21 416.161 427.512 417.828C428.867 419.443 430.507 420.615 432.434 421.344C434.361 422.021 436.601 422.359 439.153 422.359C443.007 422.359 446.471 421.682 449.544 420.328C452.669 418.922 455.325 417.021 457.512 414.625L466.262 427.906C464.752 429.885 462.669 431.865 460.012 433.844C457.356 435.823 454.179 437.438 450.481 438.688C446.783 439.938 442.512 440.562 437.669 440.562ZM506.337 319V439H484.384V319H506.337ZM564.147 419.547V380.484C564.147 377.932 563.834 375.901 563.209 374.391C562.636 372.88 561.751 371.786 560.553 371.109C559.407 370.38 558.001 370.016 556.334 370.016C554.459 370.016 552.897 370.406 551.647 371.188C550.397 371.969 549.459 373.089 548.834 374.547C548.261 376.005 547.975 377.75 547.975 379.781H526.022C526.022 376.135 526.725 372.698 528.131 369.469C529.538 366.188 531.595 363.323 534.303 360.875C537.064 358.375 540.345 356.422 544.147 355.016C547.949 353.609 552.22 352.906 556.959 352.906C562.584 352.906 567.584 353.87 571.959 355.797C576.334 357.672 579.798 360.667 582.35 364.781C584.902 368.896 586.178 374.234 586.178 380.797V418.453C586.178 423.193 586.413 427.047 586.881 430.016C587.402 432.984 588.157 435.536 589.147 437.672V439H567.116C566.126 436.656 565.371 433.74 564.85 430.25C564.381 426.708 564.147 423.141 564.147 419.547ZM566.803 387.359L566.881 400.484H558.834C556.751 400.484 554.928 400.823 553.366 401.5C551.855 402.177 550.579 403.141 549.538 404.391C548.496 405.589 547.715 406.995 547.194 408.609C546.725 410.224 546.491 411.943 546.491 413.766C546.491 415.797 546.777 417.516 547.35 418.922C547.923 420.328 548.782 421.396 549.928 422.125C551.074 422.854 552.428 423.219 553.991 423.219C556.386 423.219 558.47 422.724 560.241 421.734C562.011 420.745 563.314 419.547 564.147 418.141C565.032 416.734 565.319 415.432 565.006 414.234L570.006 422.75C569.381 424.677 568.522 426.682 567.428 428.766C566.386 430.849 565.058 432.776 563.444 434.547C561.829 436.318 559.824 437.776 557.428 438.922C555.084 440.016 552.298 440.562 549.069 440.562C544.538 440.562 540.397 439.521 536.647 437.438C532.897 435.354 529.928 432.438 527.741 428.688C525.605 424.938 524.538 420.484 524.538 415.328C524.538 411.057 525.215 407.203 526.569 403.766C527.975 400.276 530.058 397.333 532.819 394.938C535.579 392.49 539.069 390.615 543.288 389.312C547.506 388.01 552.454 387.359 558.131 387.359H566.803ZM628.519 319V439H606.566V319H628.519ZM731.403 345.562L706.95 439H682.809L718.356 325.25H733.434L731.403 345.562ZM750.7 439L726.091 345.562L723.825 325.25H739.138L774.997 439H750.7ZM751.559 396.578V415.562H700.231V396.578H751.559ZM823.431 354.469V370.953H780.306V354.469H823.431ZM790.228 333.609H812.025V413.219C812.025 415.562 812.259 417.359 812.728 418.609C813.197 419.859 813.9 420.745 814.837 421.266C815.827 421.734 817.103 421.969 818.666 421.969C819.811 421.969 820.853 421.917 821.791 421.812C822.728 421.656 823.431 421.5 823.9 421.344V438.453C822.181 439.13 820.358 439.651 818.431 440.016C816.556 440.38 814.317 440.562 811.712 440.562C807.39 440.562 803.614 439.729 800.384 438.062C797.155 436.396 794.655 433.74 792.884 430.094C791.114 426.396 790.228 421.552 790.228 415.562V333.609ZM872.881 440.562C867.1 440.562 861.97 439.677 857.491 437.906C853.064 436.135 849.314 433.583 846.241 430.25C843.168 426.865 840.824 422.776 839.209 417.984C837.595 413.193 836.787 407.724 836.787 401.578V394.625C836.787 387.75 837.569 381.734 839.131 376.578C840.694 371.37 842.907 366.995 845.772 363.453C848.636 359.911 852.152 357.281 856.319 355.562C860.537 353.792 865.303 352.906 870.616 352.906C875.928 352.906 880.59 353.792 884.6 355.562C888.662 357.281 892.022 359.885 894.678 363.375C897.334 366.812 899.34 371.083 900.694 376.188C902.048 381.292 902.725 387.229 902.725 394V404H846.084V388.609H881.241V386.656C881.241 383.219 880.876 380.354 880.147 378.062C879.418 375.719 878.272 373.974 876.709 372.828C875.147 371.682 873.064 371.109 870.459 371.109C868.272 371.109 866.423 371.552 864.912 372.438C863.402 373.323 862.204 374.703 861.319 376.578C860.433 378.453 859.782 380.901 859.366 383.922C858.949 386.891 858.741 390.458 858.741 394.625V401.578C858.741 405.484 859.079 408.766 859.756 411.422C860.433 414.026 861.423 416.161 862.725 417.828C864.079 419.443 865.72 420.615 867.647 421.344C869.574 422.021 871.814 422.359 874.366 422.359C878.22 422.359 881.683 421.682 884.756 420.328C887.881 418.922 890.537 417.021 892.725 414.625L901.475 427.906C899.965 429.885 897.881 431.865 895.225 433.844C892.569 435.823 889.392 437.438 885.694 438.688C881.996 439.938 877.725 440.562 872.881 440.562ZM945.691 439H923.737V347.125C923.737 340.615 924.857 335.172 927.097 330.797C929.336 326.422 932.487 323.089 936.55 320.797C940.665 318.505 945.534 317.359 951.159 317.359C952.982 317.359 954.701 317.516 956.316 317.828C957.982 318.089 959.597 318.453 961.159 318.922L960.925 336.344C960.248 336.135 959.441 335.979 958.503 335.875C957.566 335.771 956.576 335.719 955.534 335.719C953.451 335.719 951.654 336.161 950.144 337.047C948.685 337.932 947.566 339.208 946.784 340.875C946.055 342.542 945.691 344.625 945.691 347.125V439ZM958.894 354.469V370.953H913.425V354.469H958.894Z" fill="#3F3F3F"/>
<rect width="182" height="182" transform="translate(2 2)" fill="#FCFCFC"/>
<path d="M55.0834 130.916C44.551 130.916 35.5985 127.233 28.2257 119.867C20.8531 112.501 17.1667 103.557 17.1667 93.034C17.1667 82.5111 20.8531 73.5552 28.2257 66.1662C35.5985 58.7774 44.551 55.083 55.0834 55.083H130.917C141.449 55.083 150.402 58.766 157.774 66.1319C165.147 73.498 168.833 82.4425 168.833 92.9654C168.833 103.488 165.147 112.444 157.774 119.833C150.402 127.222 141.449 130.916 130.917 130.916H55.0834ZM55.0834 125.083H130.917C139.834 125.083 147.411 121.967 153.647 115.736C159.882 109.505 163 101.934 163 93.023C163 84.1116 159.882 76.5326 153.647 70.2861C147.411 64.0396 139.834 60.9163 130.917 60.9163H55.0834C46.1657 60.9163 38.589 64.0318 32.3535 70.2629C26.1179 76.4939 23 84.0651 23 92.9764C23 101.888 26.1179 109.467 32.3535 115.713C38.589 121.96 46.1657 125.083 55.0834 125.083ZM130.915 110.252C135.745 110.252 139.859 108.591 143.259 105.271C146.659 101.95 148.358 97.8691 148.358 93.0279C148.358 88.1868 146.668 84.0965 143.287 80.7569C139.906 77.4174 135.801 75.7476 130.972 75.7476C126.142 75.7476 122.057 77.408 118.718 80.7287C115.378 84.0493 113.708 88.1302 113.708 92.9714C113.708 97.8125 115.369 101.903 118.69 105.242C122.01 108.582 126.085 110.252 130.915 110.252Z" fill="#3F3F3F"/>
</svg>
