<svg width="88" height="88" viewBox="0 0 88 88" fill="none" xmlns="http://www.w3.org/2000/svg">
<path d="M14.668 80.668V29.3346H25.668V22.0013C25.668 16.9291 27.4555 12.6055 31.0305 9.03047C34.6055 5.45547 38.9291 3.66797 44.0013 3.66797C49.0735 3.66797 53.3971 5.45547 56.9721 9.03047C60.5471 12.6055 62.3346 16.9291 62.3346 22.0013V29.3346H73.3346V80.668H14.668ZM22.0013 73.3346H66.0013V36.668H22.0013V73.3346ZM44.0013 62.3346C46.018 62.3346 47.7444 61.6166 49.1805 60.1805C50.6166 58.7444 51.3346 57.018 51.3346 55.0013C51.3346 52.9846 50.6166 51.2582 49.1805 49.8221C47.7444 48.386 46.018 47.668 44.0013 47.668C41.9846 47.668 40.2582 48.386 38.8221 49.8221C37.386 51.2582 36.668 52.9846 36.668 55.0013C36.668 57.018 37.386 58.7444 38.8221 60.1805C40.2582 61.6166 41.9846 62.3346 44.0013 62.3346ZM33.0013 29.3346H55.0013V22.0013C55.0013 18.9457 53.9319 16.3485 51.793 14.2096C49.6541 12.0707 47.0569 11.0013 44.0013 11.0013C40.9457 11.0013 38.3485 12.0707 36.2096 14.2096C34.0707 16.3485 33.0013 18.9457 33.0013 22.0013V29.3346Z" fill="white"/>
</svg>
