<svg width="625" height="252" viewBox="0 0 625 252" fill="none" xmlns="http://www.w3.org/2000/svg">
<path d="M35.8047 31H33.8672L33.8828 29.7734H35.8047C36.487 29.7734 37.0417 29.6432 37.4688 29.3828C37.8958 29.1172 38.2109 28.7266 38.4141 28.2109C38.6172 27.6901 38.7188 27.0469 38.7188 26.2812V24.3359C38.7188 23.7318 38.6615 23.2109 38.5469 22.7734C38.4323 22.3359 38.2604 21.9766 38.0312 21.6953C37.8021 21.4141 37.513 21.2057 37.1641 21.0703C36.8151 20.9297 36.4062 20.8594 35.9375 20.8594H33.8281V19.625H35.9375C36.5781 19.625 37.1562 19.7266 37.6719 19.9297C38.1875 20.1276 38.6302 20.4271 39 20.8281C39.3698 21.224 39.651 21.7161 39.8438 22.3047C40.0417 22.8932 40.1406 23.5755 40.1406 24.3516V26.2812C40.1406 27.0573 40.0417 27.7396 39.8438 28.3281C39.651 28.9167 39.3672 29.4089 38.9922 29.8047C38.6172 30.2005 38.1615 30.5 37.625 30.7031C37.0938 30.901 36.487 31 35.8047 31ZM34.6641 19.625V31H33.2266V19.625H34.6641ZM43.8241 22.5469V31H42.4491V22.5469H43.8241ZM42.3709 20.3047C42.3709 20.0703 42.436 19.8724 42.5662 19.7109C42.6965 19.5495 42.8918 19.4688 43.1522 19.4688C43.4126 19.4688 43.6079 19.5495 43.7381 19.7109C43.8735 19.8724 43.9412 20.0703 43.9412 20.3047C43.9412 20.5286 43.8735 20.7214 43.7381 20.8828C43.6079 21.0391 43.4126 21.1172 43.1522 21.1172C42.8918 21.1172 42.6965 21.0391 42.5662 20.8828C42.436 20.7214 42.3709 20.5286 42.3709 20.3047ZM50.2731 28.8359C50.2731 28.6224 50.221 28.4349 50.1169 28.2734C50.0127 28.112 49.8408 27.9557 49.6012 27.8047C49.3669 27.6536 49.0492 27.4922 48.6481 27.3203C48.2575 27.1589 47.9059 27 47.5934 26.8438C47.2861 26.6823 47.0257 26.5078 46.8122 26.3203C46.5986 26.1328 46.4346 25.9167 46.32 25.6719C46.2106 25.4219 46.1559 25.1276 46.1559 24.7891C46.1559 24.4505 46.2184 24.138 46.3434 23.8516C46.4736 23.5599 46.6559 23.3047 46.8903 23.0859C47.1247 22.8672 47.4059 22.6979 47.7341 22.5781C48.0622 22.4531 48.4294 22.3906 48.8356 22.3906C49.4137 22.3906 49.9059 22.5026 50.3122 22.7266C50.7184 22.9505 51.0283 23.2578 51.2419 23.6484C51.4606 24.0339 51.57 24.4688 51.57 24.9531H50.195C50.195 24.7188 50.1429 24.4974 50.0387 24.2891C49.9346 24.0807 49.7809 23.9115 49.5778 23.7812C49.3747 23.6458 49.1273 23.5781 48.8356 23.5781C48.5283 23.5781 48.2783 23.6328 48.0856 23.7422C47.8929 23.8516 47.7523 23.9948 47.6637 24.1719C47.5804 24.3438 47.5387 24.5339 47.5387 24.7422C47.5387 24.8984 47.5596 25.0339 47.6012 25.1484C47.6481 25.2578 47.7262 25.362 47.8356 25.4609C47.945 25.5547 48.0934 25.6536 48.2809 25.7578C48.4736 25.8568 48.7184 25.9714 49.0153 26.1016C49.5882 26.3255 50.07 26.5521 50.4606 26.7812C50.8512 27.0104 51.1481 27.2786 51.3512 27.5859C51.5544 27.8932 51.6559 28.2734 51.6559 28.7266C51.6559 29.0964 51.5882 29.4323 51.4528 29.7344C51.3226 30.0312 51.1351 30.2865 50.8903 30.5C50.6455 30.7135 50.3512 30.8776 50.0075 30.9922C49.669 31.1016 49.2887 31.1562 48.8669 31.1562C48.2315 31.1562 47.6924 31.0312 47.2497 30.7812C46.8122 30.526 46.4789 30.1953 46.2497 29.7891C46.0257 29.3776 45.9137 28.9375 45.9137 28.4688H47.2966C47.3122 28.8646 47.4007 29.1719 47.5622 29.3906C47.7289 29.6094 47.9294 29.7604 48.1637 29.8438C48.3981 29.9271 48.6325 29.9688 48.8669 29.9688C49.1742 29.9688 49.432 29.9245 49.6403 29.8359C49.8486 29.7422 50.0049 29.6094 50.1091 29.4375C50.2184 29.2656 50.2731 29.0651 50.2731 28.8359ZM56.5581 29.9766C56.8342 29.9766 57.0842 29.9219 57.3081 29.8125C57.5373 29.6979 57.7248 29.5208 57.8706 29.2812C58.0165 29.0365 58.0998 28.7188 58.1206 28.3281H59.4175C59.3967 28.8906 59.2534 29.3854 58.9878 29.8125C58.7274 30.2344 58.3836 30.5651 57.9566 30.8047C57.5347 31.0391 57.0685 31.1562 56.5581 31.1562C56.0112 31.1562 55.5347 31.0677 55.1284 30.8906C54.7274 30.7135 54.3941 30.4583 54.1284 30.125C53.868 29.7865 53.6727 29.3776 53.5425 28.8984C53.4123 28.4141 53.3472 27.8646 53.3472 27.25V26.2969C53.3472 25.6823 53.4123 25.1354 53.5425 24.6562C53.6727 24.1719 53.868 23.763 54.1284 23.4297C54.3941 23.0911 54.7274 22.8333 55.1284 22.6562C55.5347 22.4792 56.0112 22.3906 56.5581 22.3906C57.131 22.3906 57.6258 22.513 58.0425 22.7578C58.4644 22.9974 58.7925 23.3464 59.0269 23.8047C59.2665 24.2578 59.3967 24.8073 59.4175 25.4531H58.1206C58.0998 25.0365 58.0243 24.6901 57.8941 24.4141C57.7639 24.1328 57.5868 23.9245 57.3628 23.7891C57.1389 23.6484 56.8706 23.5781 56.5581 23.5781C56.1935 23.5781 55.8915 23.6432 55.6519 23.7734C55.4175 23.8984 55.2326 24.0807 55.0972 24.3203C54.9618 24.5599 54.8654 24.8464 54.8081 25.1797C54.756 25.513 54.73 25.8854 54.73 26.2969V27.25C54.73 27.6615 54.756 28.0365 54.8081 28.375C54.8654 28.7083 54.9592 28.9948 55.0894 29.2344C55.2248 29.474 55.4123 29.6589 55.6519 29.7891C55.8915 29.9141 56.1935 29.9766 56.5581 29.9766ZM60.89 27.1797V26.375C60.89 25.7188 60.9733 25.1432 61.14 24.6484C61.3067 24.1484 61.5384 23.7318 61.8353 23.3984C62.1322 23.0651 62.4785 22.8151 62.8744 22.6484C63.2702 22.4766 63.6947 22.3906 64.1478 22.3906C64.6114 22.3906 65.041 22.4766 65.4369 22.6484C65.8327 22.8151 66.1791 23.0651 66.4759 23.3984C66.778 23.7318 67.0124 24.1484 67.1791 24.6484C67.3457 25.1432 67.4291 25.7188 67.4291 26.375V27.1797C67.4291 27.8359 67.3457 28.4141 67.1791 28.9141C67.0124 29.4089 66.7806 29.8229 66.4837 30.1562C66.1869 30.4896 65.8405 30.7396 65.4447 30.9062C65.0489 31.0729 64.6218 31.1562 64.1634 31.1562C63.7051 31.1562 63.278 31.0729 62.8822 30.9062C62.4864 30.7396 62.1374 30.4896 61.8353 30.1562C61.5384 29.8229 61.3067 29.4089 61.14 28.9141C60.9733 28.4141 60.89 27.8359 60.89 27.1797ZM62.2728 26.375V27.1797C62.2728 27.6432 62.3197 28.0495 62.4134 28.3984C62.5072 28.7474 62.64 29.0391 62.8119 29.2734C62.9837 29.5078 63.1843 29.6849 63.4134 29.8047C63.6426 29.9193 63.8926 29.9766 64.1634 29.9766C64.4759 29.9766 64.7494 29.9193 64.9837 29.8047C65.2233 29.6849 65.4212 29.5078 65.5775 29.2734C65.7337 29.0391 65.8509 28.7474 65.9291 28.3984C66.0072 28.0495 66.0462 27.6432 66.0462 27.1797V26.375C66.0462 25.9115 65.9994 25.5078 65.9056 25.1641C65.8119 24.8151 65.6791 24.5234 65.5072 24.2891C65.3353 24.0495 65.1322 23.8724 64.8978 23.7578C64.6686 23.638 64.4186 23.5781 64.1478 23.5781C63.8822 23.5781 63.6348 23.638 63.4056 23.7578C63.1765 23.8724 62.9759 24.0495 62.8041 24.2891C62.6374 24.5234 62.5072 24.8151 62.4134 25.1641C62.3197 25.5078 62.2728 25.9115 62.2728 26.375ZM71.4328 29.6953L73.2453 22.5469H74.6516L72.1437 31H71.2297L71.4328 29.6953ZM69.9719 22.5469L71.8625 29.7344L72.0109 31H71.1047L68.5656 22.5469H69.9719ZM79.1631 31.1562C78.6579 31.1562 78.2022 31.0807 77.7959 30.9297C77.3897 30.7786 77.0433 30.5495 76.7569 30.2422C76.4704 29.9297 76.2517 29.5365 76.1006 29.0625C75.9496 28.5885 75.8741 28.0286 75.8741 27.3828V26.4297C75.8741 25.6849 75.96 25.0547 76.1319 24.5391C76.309 24.0234 76.5459 23.6094 76.8428 23.2969C77.1397 22.9792 77.4756 22.75 77.8506 22.6094C78.2256 22.4635 78.611 22.3906 79.0069 22.3906C79.5381 22.3906 79.9912 22.4766 80.3662 22.6484C80.7412 22.8203 81.0459 23.0755 81.2803 23.4141C81.5147 23.7526 81.6866 24.1693 81.7959 24.6641C81.9105 25.1589 81.9678 25.7292 81.9678 26.375V27.1797H76.6866V26H80.585V25.8047C80.5642 25.3672 80.5043 24.9818 80.4053 24.6484C80.3116 24.3151 80.1553 24.0547 79.9366 23.8672C79.7178 23.6745 79.4079 23.5781 79.0069 23.5781C78.7517 23.5781 78.5147 23.6224 78.2959 23.7109C78.0824 23.7943 77.8975 23.9427 77.7412 24.1562C77.5902 24.3646 77.4704 24.6536 77.3819 25.0234C77.2985 25.3932 77.2569 25.862 77.2569 26.4297V27.3828C77.2569 27.8359 77.2985 28.2266 77.3819 28.5547C77.4704 28.8776 77.598 29.1458 77.7647 29.3594C77.9366 29.5677 78.1449 29.724 78.3897 29.8281C78.6397 29.9271 78.9235 29.9766 79.2412 29.9766C79.7048 29.9766 80.0876 29.888 80.3897 29.7109C80.6918 29.5286 80.9548 29.2969 81.1787 29.0156L81.9053 29.8828C81.7543 30.0964 81.5564 30.3021 81.3116 30.5C81.072 30.6927 80.7751 30.8516 80.4209 30.9766C80.072 31.0964 79.6527 31.1562 79.1631 31.1562ZM85.1825 23.875V31H83.7997V22.5469H85.1356L85.1825 23.875ZM87.2841 22.5L87.2919 23.8438C87.1773 23.8177 87.0731 23.8021 86.9794 23.7969C86.8908 23.7865 86.7867 23.7812 86.6669 23.7812C86.4065 23.7812 86.1773 23.8333 85.9794 23.9375C85.7867 24.0417 85.62 24.1875 85.4794 24.375C85.3387 24.5625 85.2268 24.7865 85.1434 25.0469C85.0601 25.3021 85.0028 25.5833 84.9716 25.8906L84.6122 26.125C84.6122 25.6146 84.6512 25.1354 84.7294 24.6875C84.8127 24.2396 84.9403 23.8438 85.1122 23.5C85.2841 23.151 85.5028 22.8802 85.7684 22.6875C86.0393 22.4896 86.3622 22.3906 86.7372 22.3906C86.8205 22.3906 86.9221 22.4036 87.0419 22.4297C87.1669 22.4505 87.2476 22.474 87.2841 22.5ZM90.9362 30.125L92.8191 22.5469H94.2878L91.4987 32.3047C91.431 32.513 91.3399 32.737 91.2253 32.9766C91.1159 33.2214 90.9753 33.4531 90.8034 33.6719C90.6316 33.8906 90.4258 34.0677 90.1862 34.2031C89.9467 34.3438 89.6654 34.4141 89.3425 34.4141C89.2435 34.4141 89.1159 34.3984 88.9597 34.3672C88.8086 34.3359 88.6993 34.3099 88.6316 34.2891V33.1172C88.6628 33.1224 88.7123 33.1276 88.78 33.1328C88.8477 33.1432 88.8972 33.1484 88.9284 33.1484C89.1993 33.1484 89.4284 33.1042 89.6159 33.0156C89.8086 32.9323 89.9727 32.7891 90.1081 32.5859C90.2435 32.388 90.3581 32.1146 90.4519 31.7656L90.9362 30.125ZM89.7175 22.5469L91.3972 29.1094L91.7566 30.6328L90.7722 31.1641L88.2097 22.5469H89.7175Z" fill="#242429"/>
<rect x="0.5" y="0.5" width="126" height="50" rx="3.5" stroke="#242429"/>
<path d="M178.805 31H176.867L176.883 29.7734H178.805C179.487 29.7734 180.042 29.6432 180.469 29.3828C180.896 29.1172 181.211 28.7266 181.414 28.2109C181.617 27.6901 181.719 27.0469 181.719 26.2812V24.3359C181.719 23.7318 181.661 23.2109 181.547 22.7734C181.432 22.3359 181.26 21.9766 181.031 21.6953C180.802 21.4141 180.513 21.2057 180.164 21.0703C179.815 20.9297 179.406 20.8594 178.938 20.8594H176.828V19.625H178.938C179.578 19.625 180.156 19.7266 180.672 19.9297C181.188 20.1276 181.63 20.4271 182 20.8281C182.37 21.224 182.651 21.7161 182.844 22.3047C183.042 22.8932 183.141 23.5755 183.141 24.3516V26.2812C183.141 27.0573 183.042 27.7396 182.844 28.3281C182.651 28.9167 182.367 29.4089 181.992 29.8047C181.617 30.2005 181.161 30.5 180.625 30.7031C180.094 30.901 179.487 31 178.805 31ZM177.664 19.625V31H176.227V19.625H177.664ZM188.363 31.1562C187.858 31.1562 187.402 31.0807 186.996 30.9297C186.59 30.7786 186.243 30.5495 185.957 30.2422C185.67 29.9297 185.452 29.5365 185.301 29.0625C185.15 28.5885 185.074 28.0286 185.074 27.3828V26.4297C185.074 25.6849 185.16 25.0547 185.332 24.5391C185.509 24.0234 185.746 23.6094 186.043 23.2969C186.34 22.9792 186.676 22.75 187.051 22.6094C187.426 22.4635 187.811 22.3906 188.207 22.3906C188.738 22.3906 189.191 22.4766 189.566 22.6484C189.941 22.8203 190.246 23.0755 190.48 23.4141C190.715 23.7526 190.887 24.1693 190.996 24.6641C191.111 25.1589 191.168 25.7292 191.168 26.375V27.1797H185.887V26H189.785V25.8047C189.764 25.3672 189.704 24.9818 189.605 24.6484C189.512 24.3151 189.355 24.0547 189.137 23.8672C188.918 23.6745 188.608 23.5781 188.207 23.5781C187.952 23.5781 187.715 23.6224 187.496 23.7109C187.282 23.7943 187.097 23.9427 186.941 24.1562C186.79 24.3646 186.67 24.6536 186.582 25.0234C186.499 25.3932 186.457 25.862 186.457 26.4297V27.3828C186.457 27.8359 186.499 28.2266 186.582 28.5547C186.67 28.8776 186.798 29.1458 186.965 29.3594C187.137 29.5677 187.345 29.724 187.59 29.8281C187.84 29.9271 188.124 29.9766 188.441 29.9766C188.905 29.9766 189.288 29.888 189.59 29.7109C189.892 29.5286 190.155 29.2969 190.379 29.0156L191.105 29.8828C190.954 30.0964 190.756 30.3021 190.512 30.5C190.272 30.6927 189.975 30.8516 189.621 30.9766C189.272 31.0964 188.853 31.1562 188.363 31.1562ZM194.765 31H193.382V21.8125C193.382 21.1719 193.489 20.6302 193.703 20.1875C193.922 19.7448 194.231 19.4089 194.632 19.1797C195.039 18.9505 195.518 18.8359 196.07 18.8359C196.398 18.8359 196.713 18.8828 197.015 18.9766C197.317 19.0651 197.63 19.1771 197.953 19.3125L197.718 20.5312C197.531 20.4375 197.302 20.349 197.031 20.2656C196.76 20.1771 196.476 20.1328 196.179 20.1328C195.659 20.1328 195.291 20.2734 195.078 20.5547C194.869 20.8307 194.765 21.25 194.765 21.8125V31ZM196.132 22.5469V23.6562H192.281V22.5469H196.132ZM198.617 22.5469V31H197.234V22.5469H198.617ZM202.386 24.3516V31H201.003V22.5469H202.308L202.386 24.3516ZM202.05 26.4531L201.488 26.4297C201.483 25.8516 201.548 25.3177 201.683 24.8281C201.824 24.3333 202.022 23.9036 202.277 23.5391C202.537 23.1745 202.847 22.8932 203.207 22.6953C203.566 22.4922 203.964 22.3906 204.402 22.3906C204.746 22.3906 205.058 22.4479 205.339 22.5625C205.621 22.6719 205.86 22.849 206.058 23.0938C206.256 23.3385 206.407 23.6562 206.511 24.0469C206.621 24.4323 206.675 24.9036 206.675 25.4609V31H205.292V25.4453C205.292 25.0026 205.243 24.6484 205.144 24.3828C205.05 24.112 204.904 23.9167 204.707 23.7969C204.514 23.6719 204.269 23.6094 203.972 23.6094C203.701 23.6094 203.449 23.6849 203.214 23.8359C202.98 23.987 202.774 24.1953 202.597 24.4609C202.425 24.7266 202.29 25.0312 202.191 25.375C202.097 25.7135 202.05 26.0729 202.05 26.4531ZM210.398 22.5469V31H209.023V22.5469H210.398ZM208.945 20.3047C208.945 20.0703 209.01 19.8724 209.14 19.7109C209.27 19.5495 209.466 19.4688 209.726 19.4688C209.986 19.4688 210.182 19.5495 210.312 19.7109C210.447 19.8724 210.515 20.0703 210.515 20.3047C210.515 20.5286 210.447 20.7214 210.312 20.8828C210.182 21.0391 209.986 21.1172 209.726 21.1172C209.466 21.1172 209.27 21.0391 209.14 20.8828C209.01 20.7214 208.945 20.5286 208.945 20.3047ZM215.831 22.5469V23.6562H211.886V22.5469H215.831ZM213.175 20.4922H214.558V28.9062C214.558 29.1927 214.592 29.4089 214.659 29.5547C214.732 29.7005 214.823 29.7969 214.933 29.8438C215.042 29.8906 215.159 29.9141 215.284 29.9141C215.378 29.9141 215.482 29.9036 215.597 29.8828C215.711 29.8568 215.79 29.8359 215.831 29.8203L215.823 31C215.73 31.0365 215.605 31.0703 215.448 31.1016C215.292 31.138 215.094 31.1562 214.855 31.1562C214.558 31.1562 214.282 31.0859 214.027 30.9453C213.771 30.8047 213.566 30.5703 213.409 30.2422C213.253 29.9089 213.175 29.4609 213.175 28.8984V20.4922ZM219.124 22.5469V31H217.749V22.5469H219.124ZM217.671 20.3047C217.671 20.0703 217.736 19.8724 217.866 19.7109C217.996 19.5495 218.192 19.4688 218.452 19.4688C218.713 19.4688 218.908 19.5495 219.038 19.7109C219.174 19.8724 219.241 20.0703 219.241 20.3047C219.241 20.5286 219.174 20.7214 219.038 20.8828C218.908 21.0391 218.713 21.1172 218.452 21.1172C218.192 21.1172 217.996 21.0391 217.866 20.8828C217.736 20.7214 217.671 20.5286 217.671 20.3047ZM221.182 27.1797V26.375C221.182 25.7188 221.266 25.1432 221.432 24.6484C221.599 24.1484 221.831 23.7318 222.128 23.3984C222.425 23.0651 222.771 22.8151 223.167 22.6484C223.563 22.4766 223.987 22.3906 224.44 22.3906C224.904 22.3906 225.334 22.4766 225.729 22.6484C226.125 22.8151 226.472 23.0651 226.768 23.3984C227.071 23.7318 227.305 24.1484 227.472 24.6484C227.638 25.1432 227.722 25.7188 227.722 26.375V27.1797C227.722 27.8359 227.638 28.4141 227.472 28.9141C227.305 29.4089 227.073 29.8229 226.776 30.1562C226.479 30.4896 226.133 30.7396 225.737 30.9062C225.341 31.0729 224.914 31.1562 224.456 31.1562C223.998 31.1562 223.571 31.0729 223.175 30.9062C222.779 30.7396 222.43 30.4896 222.128 30.1562C221.831 29.8229 221.599 29.4089 221.432 28.9141C221.266 28.4141 221.182 27.8359 221.182 27.1797ZM222.565 26.375V27.1797C222.565 27.6432 222.612 28.0495 222.706 28.3984C222.8 28.7474 222.932 29.0391 223.104 29.2734C223.276 29.5078 223.477 29.6849 223.706 29.8047C223.935 29.9193 224.185 29.9766 224.456 29.9766C224.768 29.9766 225.042 29.9193 225.276 29.8047C225.516 29.6849 225.714 29.5078 225.87 29.2734C226.026 29.0391 226.143 28.7474 226.222 28.3984C226.3 28.0495 226.339 27.6432 226.339 27.1797V26.375C226.339 25.9115 226.292 25.5078 226.198 25.1641C226.104 24.8151 225.972 24.5234 225.8 24.2891C225.628 24.0495 225.425 23.8724 225.19 23.7578C224.961 23.638 224.711 23.5781 224.44 23.5781C224.175 23.5781 223.927 23.638 223.698 23.7578C223.469 23.8724 223.268 24.0495 223.097 24.2891C222.93 24.5234 222.8 24.8151 222.706 25.1641C222.612 25.5078 222.565 25.9115 222.565 26.375ZM231.046 24.3516V31H229.663V22.5469H230.967L231.046 24.3516ZM230.71 26.4531L230.147 26.4297C230.142 25.8516 230.207 25.3177 230.342 24.8281C230.483 24.3333 230.681 23.9036 230.936 23.5391C231.197 23.1745 231.507 22.8932 231.866 22.6953C232.225 22.4922 232.624 22.3906 233.061 22.3906C233.405 22.3906 233.717 22.4479 233.999 22.5625C234.28 22.6719 234.52 22.849 234.717 23.0938C234.915 23.3385 235.066 23.6562 235.171 24.0469C235.28 24.4323 235.335 24.9036 235.335 25.4609V31H233.952V25.4453C233.952 25.0026 233.902 24.6484 233.803 24.3828C233.71 24.112 233.564 23.9167 233.366 23.7969C233.173 23.6719 232.928 23.6094 232.632 23.6094C232.361 23.6094 232.108 23.6849 231.874 23.8359C231.639 23.987 231.434 24.1953 231.257 24.4609C231.085 24.7266 230.949 25.0312 230.85 25.375C230.757 25.7135 230.71 26.0729 230.71 26.4531Z" fill="#242429"/>
<rect x="143.5" y="0.5" width="125" height="50" rx="3.5" stroke="#242429"/>
<path d="M179.781 94.5625L181.602 86.625H182.625L182.086 89.7109L180.109 98H179.086L179.781 94.5625ZM177.984 86.625L179.406 94.4062L179.828 98H178.82L176.555 86.625H177.984ZM184.945 94.3984L186.336 86.625H187.766L185.508 98H184.5L184.945 94.3984ZM182.789 86.625L184.555 94.5625L185.234 98H184.211L182.32 89.7109L181.781 86.625H182.789ZM190.871 89.5469V98H189.496V89.5469H190.871ZM189.418 87.3047C189.418 87.0703 189.483 86.8724 189.613 86.7109C189.743 86.5495 189.939 86.4688 190.199 86.4688C190.459 86.4688 190.655 86.5495 190.785 86.7109C190.92 86.8724 190.988 87.0703 190.988 87.3047C190.988 87.5286 190.92 87.7214 190.785 87.8828C190.655 88.0391 190.459 88.1172 190.199 88.1172C189.939 88.1172 189.743 88.0391 189.613 87.8828C189.483 87.7214 189.418 87.5286 189.418 87.3047ZM194.601 90.875V98H193.218V89.5469H194.554L194.601 90.875ZM196.703 89.5L196.711 90.8438C196.596 90.8177 196.492 90.8021 196.398 90.7969C196.31 90.7865 196.205 90.7812 196.086 90.7812C195.825 90.7812 195.596 90.8333 195.398 90.9375C195.205 91.0417 195.039 91.1875 194.898 91.375C194.757 91.5625 194.646 91.7865 194.562 92.0469C194.479 92.3021 194.422 92.5833 194.39 92.8906L194.031 93.125C194.031 92.6146 194.07 92.1354 194.148 91.6875C194.231 91.2396 194.359 90.8438 194.531 90.5C194.703 90.151 194.922 89.8802 195.187 89.6875C195.458 89.4896 195.781 89.3906 196.156 89.3906C196.239 89.3906 196.341 89.4036 196.461 89.4297C196.586 89.4505 196.666 89.474 196.703 89.5ZM201.121 98.1562C200.615 98.1562 200.16 98.0807 199.753 97.9297C199.347 97.7786 199.001 97.5495 198.714 97.2422C198.428 96.9297 198.209 96.5365 198.058 96.0625C197.907 95.5885 197.832 95.0286 197.832 94.3828V93.4297C197.832 92.6849 197.917 92.0547 198.089 91.5391C198.266 91.0234 198.503 90.6094 198.8 90.2969C199.097 89.9792 199.433 89.75 199.808 89.6094C200.183 89.4635 200.569 89.3906 200.964 89.3906C201.496 89.3906 201.949 89.4766 202.324 89.6484C202.699 89.8203 203.003 90.0755 203.238 90.4141C203.472 90.7526 203.644 91.1693 203.753 91.6641C203.868 92.1589 203.925 92.7292 203.925 93.375V94.1797H198.644V93H202.542V92.8047C202.522 92.3672 202.462 91.9818 202.363 91.6484C202.269 91.3151 202.113 91.0547 201.894 90.8672C201.675 90.6745 201.365 90.5781 200.964 90.5781C200.709 90.5781 200.472 90.6224 200.253 90.7109C200.04 90.7943 199.855 90.9427 199.699 91.1562C199.548 91.3646 199.428 91.6536 199.339 92.0234C199.256 92.3932 199.214 92.862 199.214 93.4297V94.3828C199.214 94.8359 199.256 95.2266 199.339 95.5547C199.428 95.8776 199.556 96.1458 199.722 96.3594C199.894 96.5677 200.102 96.724 200.347 96.8281C200.597 96.9271 200.881 96.9766 201.199 96.9766C201.662 96.9766 202.045 96.888 202.347 96.7109C202.649 96.5286 202.912 96.2969 203.136 96.0156L203.863 96.8828C203.712 97.0964 203.514 97.3021 203.269 97.5C203.029 97.6927 202.733 97.8516 202.378 97.9766C202.029 98.0964 201.61 98.1562 201.121 98.1562ZM207.749 98H206.367V88.6562C206.367 88.0469 206.463 87.5339 206.656 87.1172C206.854 86.6953 207.132 86.3776 207.492 86.1641C207.856 85.9453 208.288 85.8359 208.788 85.8359C208.929 85.8359 209.07 85.8464 209.21 85.8672C209.356 85.888 209.494 85.9193 209.624 85.9609L209.562 87.1406C209.479 87.1146 209.377 87.0964 209.257 87.0859C209.143 87.0755 209.033 87.0703 208.929 87.0703C208.679 87.0703 208.466 87.1328 208.288 87.2578C208.111 87.3776 207.976 87.5547 207.882 87.7891C207.794 88.0234 207.749 88.3125 207.749 88.6562V98ZM209.187 89.5469V90.6562H205.265V89.5469H209.187ZM212.362 90.875V98H210.98V89.5469H212.316L212.362 90.875ZM214.464 89.5L214.472 90.8438C214.357 90.8177 214.253 90.8021 214.159 90.7969C214.071 90.7865 213.967 90.7812 213.847 90.7812C213.586 90.7812 213.357 90.8333 213.159 90.9375C212.967 91.0417 212.8 91.1875 212.659 91.375C212.519 91.5625 212.407 91.7865 212.323 92.0469C212.24 92.3021 212.183 92.5833 212.152 92.8906L211.792 93.125C211.792 92.6146 211.831 92.1354 211.909 91.6875C211.993 91.2396 212.12 90.8438 212.292 90.5C212.464 90.151 212.683 89.8802 212.948 89.6875C213.219 89.4896 213.542 89.3906 213.917 89.3906C214.001 89.3906 214.102 89.4036 214.222 89.4297C214.347 89.4505 214.428 89.474 214.464 89.5ZM219.843 96.5547V91.9688C219.843 91.6354 219.791 91.3672 219.687 91.1641C219.588 90.9609 219.437 90.8125 219.233 90.7188C219.036 90.625 218.786 90.5781 218.483 90.5781C218.192 90.5781 217.939 90.638 217.726 90.7578C217.517 90.8776 217.356 91.0365 217.241 91.2344C217.132 91.4323 217.077 91.651 217.077 91.8906H215.694C215.694 91.5885 215.759 91.2891 215.89 90.9922C216.025 90.6953 216.218 90.4271 216.468 90.1875C216.718 89.9427 217.017 89.75 217.366 89.6094C217.72 89.4635 218.116 89.3906 218.554 89.3906C219.075 89.3906 219.536 89.4766 219.937 89.6484C220.338 89.8151 220.653 90.0885 220.882 90.4688C221.111 90.849 221.226 91.3542 221.226 91.9844V96.1562C221.226 96.4375 221.246 96.737 221.288 97.0547C221.335 97.3724 221.4 97.6458 221.483 97.875V98H220.054C219.986 97.8333 219.934 97.612 219.897 97.3359C219.861 97.0547 219.843 96.7943 219.843 96.5547ZM220.062 92.875L220.077 93.8906H219.116C218.788 93.8906 218.489 93.9271 218.218 94C217.952 94.0729 217.723 94.1797 217.53 94.3203C217.338 94.4557 217.189 94.625 217.085 94.8281C216.986 95.0312 216.937 95.263 216.937 95.5234C216.937 95.862 216.983 96.1328 217.077 96.3359C217.171 96.5339 217.312 96.6771 217.499 96.7656C217.687 96.8542 217.924 96.8984 218.21 96.8984C218.559 96.8984 218.866 96.8177 219.132 96.6562C219.397 96.4948 219.603 96.2995 219.749 96.0703C219.9 95.8411 219.97 95.6276 219.96 95.4297L220.265 96.0781C220.244 96.2812 220.176 96.5026 220.062 96.7422C219.952 96.9766 219.799 97.2031 219.601 97.4219C219.403 97.6354 219.168 97.8125 218.897 97.9531C218.632 98.0885 218.332 98.1562 217.999 98.1562C217.509 98.1562 217.08 98.0625 216.71 97.875C216.345 97.6875 216.062 97.4115 215.858 97.0469C215.655 96.6823 215.554 96.2318 215.554 95.6953C215.554 95.2891 215.624 94.9141 215.765 94.5703C215.905 94.2266 216.114 93.9297 216.39 93.6797C216.666 93.4245 217.012 93.2266 217.429 93.0859C217.851 92.9453 218.338 92.875 218.89 92.875H220.062ZM224.917 91.2266V98H223.542V89.5469H224.839L224.917 91.2266ZM224.636 93.4531L223.995 93.4297C223.99 92.8516 224.047 92.3177 224.167 91.8281C224.287 91.3333 224.466 90.9036 224.706 90.5391C224.951 90.1745 225.255 89.8932 225.62 89.6953C225.99 89.4922 226.419 89.3906 226.909 89.3906C227.232 89.3906 227.531 89.4479 227.807 89.5625C228.089 89.6719 228.334 89.8464 228.542 90.0859C228.75 90.3255 228.912 90.6328 229.026 91.0078C229.146 91.3828 229.206 91.8359 229.206 92.3672V98H227.823V92.4375C227.823 91.9948 227.763 91.6406 227.643 91.375C227.529 91.1094 227.365 90.9167 227.151 90.7969C226.938 90.6719 226.682 90.6094 226.386 90.6094C226.047 90.6094 225.763 90.6849 225.534 90.8359C225.31 90.987 225.13 91.1953 224.995 91.4609C224.865 91.7266 224.771 92.0312 224.714 92.375C224.662 92.7135 224.636 93.0729 224.636 93.4531ZM229.19 92.6562L228.268 92.9531C228.263 92.4896 228.321 92.0443 228.44 91.6172C228.56 91.1901 228.737 90.8099 228.972 90.4766C229.211 90.1432 229.508 89.8802 229.862 89.6875C230.216 89.4896 230.628 89.3906 231.097 89.3906C231.482 89.3906 231.823 89.4505 232.12 89.5703C232.417 89.6901 232.667 89.875 232.87 90.125C233.078 90.3698 233.235 90.6849 233.339 91.0703C233.443 91.4557 233.495 91.9141 233.495 92.4453V98H232.112V92.4297C232.112 91.9557 232.052 91.5885 231.932 91.3281C231.818 91.0625 231.654 90.8776 231.44 90.7734C231.227 90.6641 230.972 90.6094 230.675 90.6094C230.435 90.6094 230.222 90.6641 230.034 90.7734C229.852 90.8828 229.698 91.0339 229.573 91.2266C229.448 91.4141 229.352 91.6302 229.284 91.875C229.222 92.1198 229.19 92.3802 229.19 92.6562ZM238.764 98.1562C238.259 98.1562 237.803 98.0807 237.397 97.9297C236.991 97.7786 236.645 97.5495 236.358 97.2422C236.072 96.9297 235.853 96.5365 235.702 96.0625C235.551 95.5885 235.475 95.0286 235.475 94.3828V93.4297C235.475 92.6849 235.561 92.0547 235.733 91.5391C235.91 91.0234 236.147 90.6094 236.444 90.2969C236.741 89.9792 237.077 89.75 237.452 89.6094C237.827 89.4635 238.212 89.3906 238.608 89.3906C239.139 89.3906 239.592 89.4766 239.967 89.6484C240.342 89.8203 240.647 90.0755 240.882 90.4141C241.116 90.7526 241.288 91.1693 241.397 91.6641C241.512 92.1589 241.569 92.7292 241.569 93.375V94.1797H236.288V93H240.186V92.8047C240.165 92.3672 240.106 91.9818 240.007 91.6484C239.913 91.3151 239.757 91.0547 239.538 90.8672C239.319 90.6745 239.009 90.5781 238.608 90.5781C238.353 90.5781 238.116 90.6224 237.897 90.7109C237.684 90.7943 237.499 90.9427 237.342 91.1562C237.191 91.3646 237.072 91.6536 236.983 92.0234C236.9 92.3932 236.858 92.862 236.858 93.4297V94.3828C236.858 94.8359 236.9 95.2266 236.983 95.5547C237.072 95.8776 237.199 96.1458 237.366 96.3594C237.538 96.5677 237.746 96.724 237.991 96.8281C238.241 96.9271 238.525 96.9766 238.842 96.9766C239.306 96.9766 239.689 96.888 239.991 96.7109C240.293 96.5286 240.556 96.2969 240.78 96.0156L241.507 96.8828C241.356 97.0964 241.158 97.3021 240.913 97.5C240.673 97.6927 240.376 97.8516 240.022 97.9766C239.673 98.0964 239.254 98.1562 238.764 98.1562Z" fill="#242429"/>
<rect x="144.5" y="67.5" width="130" height="50" rx="3.5" stroke="#242429"/>
<path d="M327.883 86.625V98H326.461V86.625H327.883ZM330.875 86.625V87.8594H323.477V86.625H330.875ZM334.769 98.1562C334.264 98.1562 333.808 98.0807 333.402 97.9297C332.996 97.7786 332.65 97.5495 332.363 97.2422C332.077 96.9297 331.858 96.5365 331.707 96.0625C331.556 95.5885 331.48 95.0286 331.48 94.3828V93.4297C331.48 92.6849 331.566 92.0547 331.738 91.5391C331.915 91.0234 332.152 90.6094 332.449 90.2969C332.746 89.9792 333.082 89.75 333.457 89.6094C333.832 89.4635 334.217 89.3906 334.613 89.3906C335.144 89.3906 335.597 89.4766 335.972 89.6484C336.347 89.8203 336.652 90.0755 336.887 90.4141C337.121 90.7526 337.293 91.1693 337.402 91.6641C337.517 92.1589 337.574 92.7292 337.574 93.375V94.1797H332.293V93H336.191V92.8047C336.17 92.3672 336.111 91.9818 336.012 91.6484C335.918 91.3151 335.762 91.0547 335.543 90.8672C335.324 90.6745 335.014 90.5781 334.613 90.5781C334.358 90.5781 334.121 90.6224 333.902 90.7109C333.689 90.7943 333.504 90.9427 333.347 91.1562C333.196 91.3646 333.077 91.6536 332.988 92.0234C332.905 92.3932 332.863 92.862 332.863 93.4297V94.3828C332.863 94.8359 332.905 95.2266 332.988 95.5547C333.077 95.8776 333.204 96.1458 333.371 96.3594C333.543 96.5677 333.751 96.724 333.996 96.8281C334.246 96.9271 334.53 96.9766 334.847 96.9766C335.311 96.9766 335.694 96.888 335.996 96.7109C336.298 96.5286 336.561 96.2969 336.785 96.0156L337.512 96.8828C337.361 97.0964 337.163 97.3021 336.918 97.5C336.678 97.6927 336.381 97.8516 336.027 97.9766C335.678 98.0964 335.259 98.1562 334.769 98.1562ZM343.507 95.8359C343.507 95.6224 343.455 95.4349 343.351 95.2734C343.247 95.112 343.075 94.9557 342.836 94.8047C342.601 94.6536 342.284 94.4922 341.882 94.3203C341.492 94.1589 341.14 94 340.828 93.8438C340.521 93.6823 340.26 93.5078 340.047 93.3203C339.833 93.1328 339.669 92.9167 339.554 92.6719C339.445 92.4219 339.39 92.1276 339.39 91.7891C339.39 91.4505 339.453 91.138 339.578 90.8516C339.708 90.5599 339.89 90.3047 340.125 90.0859C340.359 89.8672 340.64 89.6979 340.968 89.5781C341.297 89.4531 341.664 89.3906 342.07 89.3906C342.648 89.3906 343.14 89.5026 343.547 89.7266C343.953 89.9505 344.263 90.2578 344.476 90.6484C344.695 91.0339 344.804 91.4688 344.804 91.9531H343.429C343.429 91.7188 343.377 91.4974 343.273 91.2891C343.169 91.0807 343.015 90.9115 342.812 90.7812C342.609 90.6458 342.362 90.5781 342.07 90.5781C341.763 90.5781 341.513 90.6328 341.32 90.7422C341.127 90.8516 340.987 90.9948 340.898 91.1719C340.815 91.3438 340.773 91.5339 340.773 91.7422C340.773 91.8984 340.794 92.0339 340.836 92.1484C340.882 92.2578 340.961 92.362 341.07 92.4609C341.179 92.5547 341.328 92.6536 341.515 92.7578C341.708 92.8568 341.953 92.9714 342.25 93.1016C342.823 93.3255 343.304 93.5521 343.695 93.7812C344.086 94.0104 344.382 94.2786 344.586 94.5859C344.789 94.8932 344.89 95.2734 344.89 95.7266C344.89 96.0964 344.823 96.4323 344.687 96.7344C344.557 97.0312 344.369 97.2865 344.125 97.5C343.88 97.7135 343.586 97.8776 343.242 97.9922C342.903 98.1016 342.523 98.1562 342.101 98.1562C341.466 98.1562 340.927 98.0312 340.484 97.7812C340.047 97.526 339.713 97.1953 339.484 96.7891C339.26 96.3776 339.148 95.9375 339.148 95.4688H340.531C340.547 95.8646 340.635 96.1719 340.797 96.3906C340.963 96.6094 341.164 96.7604 341.398 96.8438C341.632 96.9271 341.867 96.9688 342.101 96.9688C342.409 96.9688 342.666 96.9245 342.875 96.8359C343.083 96.7422 343.239 96.6094 343.343 96.4375C343.453 96.2656 343.507 96.0651 343.507 95.8359ZM349.949 89.5469V90.6562H346.003V89.5469H349.949ZM347.292 87.4922H348.675V95.9062C348.675 96.1927 348.709 96.4089 348.777 96.5547C348.85 96.7005 348.941 96.7969 349.05 96.8438C349.16 96.8906 349.277 96.9141 349.402 96.9141C349.496 96.9141 349.6 96.9036 349.714 96.8828C349.829 96.8568 349.907 96.8359 349.949 96.8203L349.941 98C349.847 98.0365 349.722 98.0703 349.566 98.1016C349.41 98.138 349.212 98.1562 348.972 98.1562C348.675 98.1562 348.399 98.0859 348.144 97.9453C347.889 97.8047 347.683 97.5703 347.527 97.2422C347.371 96.9089 347.292 96.4609 347.292 95.8984V87.4922ZM353.242 89.5469V98H351.867V89.5469H353.242ZM351.788 87.3047C351.788 87.0703 351.854 86.8724 351.984 86.7109C352.114 86.5495 352.309 86.4688 352.57 86.4688C352.83 86.4688 353.025 86.5495 353.156 86.7109C353.291 86.8724 353.359 87.0703 353.359 87.3047C353.359 87.5286 353.291 87.7214 353.156 87.8828C353.025 88.0391 352.83 88.1172 352.57 88.1172C352.309 88.1172 352.114 88.0391 351.984 87.8828C351.854 87.7214 351.788 87.5286 351.788 87.3047ZM356.972 91.3516V98H355.589V89.5469H356.894L356.972 91.3516ZM356.636 93.4531L356.073 93.4297C356.068 92.8516 356.133 92.3177 356.269 91.8281C356.409 91.3333 356.607 90.9036 356.862 90.5391C357.123 90.1745 357.433 89.8932 357.792 89.6953C358.152 89.4922 358.55 89.3906 358.987 89.3906C359.331 89.3906 359.644 89.4479 359.925 89.5625C360.206 89.6719 360.446 89.849 360.644 90.0938C360.842 90.3385 360.993 90.6562 361.097 91.0469C361.206 91.4323 361.261 91.9036 361.261 92.4609V98H359.878V92.4453C359.878 92.0026 359.829 91.6484 359.73 91.3828C359.636 91.112 359.49 90.9167 359.292 90.7969C359.099 90.6719 358.855 90.6094 358.558 90.6094C358.287 90.6094 358.034 90.6849 357.8 90.8359C357.566 90.987 357.36 91.1953 357.183 91.4609C357.011 91.7266 356.876 92.0312 356.777 92.375C356.683 92.7135 356.636 93.0729 356.636 93.4531ZM368.077 89.5469H369.319V98.0703C369.319 98.8151 369.189 99.4297 368.929 99.9141C368.674 100.398 368.317 100.755 367.858 100.984C367.4 101.219 366.871 101.336 366.272 101.336C366.059 101.336 365.791 101.297 365.468 101.219C365.145 101.141 364.822 101.021 364.499 100.859C364.176 100.703 363.911 100.505 363.702 100.266L364.272 99.3047C364.569 99.6068 364.884 99.8229 365.218 99.9531C365.551 100.083 365.869 100.148 366.171 100.148C366.53 100.148 366.843 100.083 367.108 99.9531C367.374 99.8229 367.58 99.6094 367.726 99.3125C367.871 99.0208 367.944 98.6302 367.944 98.1406V91.4062L368.077 89.5469ZM363.218 94.1797V93.3906C363.218 92.6927 363.283 92.0938 363.413 91.5938C363.543 91.0885 363.731 90.6745 363.976 90.3516C364.226 90.0234 364.525 89.7812 364.874 89.625C365.223 89.4688 365.614 89.3906 366.046 89.3906C366.483 89.3906 366.861 89.4792 367.179 89.6562C367.496 89.8333 367.759 90.0911 367.968 90.4297C368.181 90.763 368.348 91.1693 368.468 91.6484C368.593 92.1224 368.679 92.6589 368.726 93.2578V94.3125C368.679 94.9062 368.593 95.4401 368.468 95.9141C368.348 96.388 368.179 96.7917 367.96 97.125C367.746 97.4583 367.481 97.7135 367.163 97.8906C366.845 98.0677 366.468 98.1562 366.03 98.1562C365.603 98.1562 365.218 98.0755 364.874 97.9141C364.53 97.7474 364.233 97.5 363.983 97.1719C363.739 96.8385 363.549 96.4245 363.413 95.9297C363.283 95.4297 363.218 94.8464 363.218 94.1797ZM364.601 93.3906V94.1797C364.601 94.6484 364.634 95.0573 364.702 95.4062C364.77 95.75 364.874 96.0365 365.015 96.2656C365.161 96.4896 365.345 96.6562 365.569 96.7656C365.799 96.875 366.072 96.9297 366.39 96.9297C366.775 96.9297 367.09 96.8359 367.335 96.6484C367.58 96.4609 367.775 96.2135 367.921 95.9062C368.072 95.5938 368.192 95.2578 368.28 94.8984V92.6797C368.228 92.4141 368.153 92.1589 368.054 91.9141C367.96 91.6641 367.838 91.4427 367.687 91.25C367.536 91.0521 367.353 90.8958 367.14 90.7812C366.931 90.6667 366.687 90.6094 366.405 90.6094C366.088 90.6094 365.814 90.6667 365.585 90.7812C365.356 90.8958 365.168 91.0677 365.022 91.2969C364.877 91.526 364.77 91.8151 364.702 92.1641C364.634 92.513 364.601 92.9219 364.601 93.3906Z" fill="#242429"/>
<rect x="291.5" y="67.5" width="111" height="50" rx="3.5" stroke="#242429"/>
<path d="M457.578 86.625H459.016V94.6328C459.016 95.487 458.852 96.1719 458.523 96.6875C458.195 97.2031 457.763 97.5781 457.227 97.8125C456.695 98.0417 456.122 98.1562 455.508 98.1562C454.852 98.1562 454.26 98.0417 453.734 97.8125C453.208 97.5781 452.789 97.2031 452.477 96.6875C452.169 96.1719 452.016 95.487 452.016 94.6328V86.625H453.445V94.6328C453.445 95.2266 453.529 95.6901 453.695 96.0234C453.867 96.3568 454.107 96.5911 454.414 96.7266C454.727 96.862 455.091 96.9297 455.508 96.9297C455.93 96.9297 456.294 96.862 456.602 96.7266C456.914 96.5911 457.154 96.3568 457.32 96.0234C457.492 95.6901 457.578 95.2266 457.578 94.6328V86.625ZM462.871 86.625V98H461.433V86.625H462.871Z" fill="#242429"/>
<rect x="419.5" y="67.5" width="77" height="50" rx="3.5" stroke="#242429"/>
<path d="M549.883 86.625V98H548.461V86.625H549.883ZM552.875 86.625V87.8594H545.477V86.625H552.875ZM556.769 98.1562C556.264 98.1562 555.808 98.0807 555.402 97.9297C554.996 97.7786 554.65 97.5495 554.363 97.2422C554.077 96.9297 553.858 96.5365 553.707 96.0625C553.556 95.5885 553.48 95.0286 553.48 94.3828V93.4297C553.48 92.6849 553.566 92.0547 553.738 91.5391C553.915 91.0234 554.152 90.6094 554.449 90.2969C554.746 89.9792 555.082 89.75 555.457 89.6094C555.832 89.4635 556.217 89.3906 556.613 89.3906C557.144 89.3906 557.597 89.4766 557.972 89.6484C558.347 89.8203 558.652 90.0755 558.887 90.4141C559.121 90.7526 559.293 91.1693 559.402 91.6641C559.517 92.1589 559.574 92.7292 559.574 93.375V94.1797H554.293V93H558.191V92.8047C558.17 92.3672 558.111 91.9818 558.012 91.6484C557.918 91.3151 557.762 91.0547 557.543 90.8672C557.324 90.6745 557.014 90.5781 556.613 90.5781C556.358 90.5781 556.121 90.6224 555.902 90.7109C555.689 90.7943 555.504 90.9427 555.347 91.1562C555.196 91.3646 555.077 91.6536 554.988 92.0234C554.905 92.3932 554.863 92.862 554.863 93.4297V94.3828C554.863 94.8359 554.905 95.2266 554.988 95.5547C555.077 95.8776 555.204 96.1458 555.371 96.3594C555.543 96.5677 555.751 96.724 555.996 96.8281C556.246 96.9271 556.53 96.9766 556.847 96.9766C557.311 96.9766 557.694 96.888 557.996 96.7109C558.298 96.5286 558.561 96.2969 558.785 96.0156L559.512 96.8828C559.361 97.0964 559.163 97.3021 558.918 97.5C558.678 97.6927 558.381 97.8516 558.027 97.9766C557.678 98.0964 557.259 98.1562 556.769 98.1562ZM565.507 95.8359C565.507 95.6224 565.455 95.4349 565.351 95.2734C565.247 95.112 565.075 94.9557 564.836 94.8047C564.601 94.6536 564.284 94.4922 563.882 94.3203C563.492 94.1589 563.14 94 562.828 93.8438C562.521 93.6823 562.26 93.5078 562.047 93.3203C561.833 93.1328 561.669 92.9167 561.554 92.6719C561.445 92.4219 561.39 92.1276 561.39 91.7891C561.39 91.4505 561.453 91.138 561.578 90.8516C561.708 90.5599 561.89 90.3047 562.125 90.0859C562.359 89.8672 562.64 89.6979 562.968 89.5781C563.297 89.4531 563.664 89.3906 564.07 89.3906C564.648 89.3906 565.14 89.5026 565.547 89.7266C565.953 89.9505 566.263 90.2578 566.476 90.6484C566.695 91.0339 566.804 91.4688 566.804 91.9531H565.429C565.429 91.7188 565.377 91.4974 565.273 91.2891C565.169 91.0807 565.015 90.9115 564.812 90.7812C564.609 90.6458 564.362 90.5781 564.07 90.5781C563.763 90.5781 563.513 90.6328 563.32 90.7422C563.127 90.8516 562.987 90.9948 562.898 91.1719C562.815 91.3438 562.773 91.5339 562.773 91.7422C562.773 91.8984 562.794 92.0339 562.836 92.1484C562.882 92.2578 562.961 92.362 563.07 92.4609C563.179 92.5547 563.328 92.6536 563.515 92.7578C563.708 92.8568 563.953 92.9714 564.25 93.1016C564.823 93.3255 565.304 93.5521 565.695 93.7812C566.086 94.0104 566.382 94.2786 566.586 94.5859C566.789 94.8932 566.89 95.2734 566.89 95.7266C566.89 96.0964 566.823 96.4323 566.687 96.7344C566.557 97.0312 566.369 97.2865 566.125 97.5C565.88 97.7135 565.586 97.8776 565.242 97.9922C564.903 98.1016 564.523 98.1562 564.101 98.1562C563.466 98.1562 562.927 98.0312 562.484 97.7812C562.047 97.526 561.713 97.1953 561.484 96.7891C561.26 96.3776 561.148 95.9375 561.148 95.4688H562.531C562.547 95.8646 562.635 96.1719 562.797 96.3906C562.963 96.6094 563.164 96.7604 563.398 96.8438C563.632 96.9271 563.867 96.9688 564.101 96.9688C564.409 96.9688 564.666 96.9245 564.875 96.8359C565.083 96.7422 565.239 96.6094 565.343 96.4375C565.453 96.2656 565.507 96.0651 565.507 95.8359ZM571.949 89.5469V90.6562H568.003V89.5469H571.949ZM569.292 87.4922H570.675V95.9062C570.675 96.1927 570.709 96.4089 570.777 96.5547C570.85 96.7005 570.941 96.7969 571.05 96.8438C571.16 96.8906 571.277 96.9141 571.402 96.9141C571.496 96.9141 571.6 96.9036 571.714 96.8828C571.829 96.8568 571.907 96.8359 571.949 96.8203L571.941 98C571.847 98.0365 571.722 98.0703 571.566 98.1016C571.41 98.138 571.212 98.1562 570.972 98.1562C570.675 98.1562 570.399 98.0859 570.144 97.9453C569.889 97.8047 569.683 97.5703 569.527 97.2422C569.371 96.9089 569.292 96.4609 569.292 95.8984V87.4922ZM575.242 89.5469V98H573.867V89.5469H575.242ZM573.788 87.3047C573.788 87.0703 573.854 86.8724 573.984 86.7109C574.114 86.5495 574.309 86.4688 574.57 86.4688C574.83 86.4688 575.025 86.5495 575.156 86.7109C575.291 86.8724 575.359 87.0703 575.359 87.3047C575.359 87.5286 575.291 87.7214 575.156 87.8828C575.025 88.0391 574.83 88.1172 574.57 88.1172C574.309 88.1172 574.114 88.0391 573.984 87.8828C573.854 87.7214 573.788 87.5286 573.788 87.3047ZM578.972 91.3516V98H577.589V89.5469H578.894L578.972 91.3516ZM578.636 93.4531L578.073 93.4297C578.068 92.8516 578.133 92.3177 578.269 91.8281C578.409 91.3333 578.607 90.9036 578.862 90.5391C579.123 90.1745 579.433 89.8932 579.792 89.6953C580.152 89.4922 580.55 89.3906 580.987 89.3906C581.331 89.3906 581.644 89.4479 581.925 89.5625C582.206 89.6719 582.446 89.849 582.644 90.0938C582.842 90.3385 582.993 90.6562 583.097 91.0469C583.206 91.4323 583.261 91.9036 583.261 92.4609V98H581.878V92.4453C581.878 92.0026 581.829 91.6484 581.73 91.3828C581.636 91.112 581.49 90.9167 581.292 90.7969C581.099 90.6719 580.855 90.6094 580.558 90.6094C580.287 90.6094 580.034 90.6849 579.8 90.8359C579.566 90.987 579.36 91.1953 579.183 91.4609C579.011 91.7266 578.876 92.0312 578.777 92.375C578.683 92.7135 578.636 93.0729 578.636 93.4531ZM590.077 89.5469H591.319V98.0703C591.319 98.8151 591.189 99.4297 590.929 99.9141C590.674 100.398 590.317 100.755 589.858 100.984C589.4 101.219 588.871 101.336 588.272 101.336C588.059 101.336 587.791 101.297 587.468 101.219C587.145 101.141 586.822 101.021 586.499 100.859C586.176 100.703 585.911 100.505 585.702 100.266L586.272 99.3047C586.569 99.6068 586.884 99.8229 587.218 99.9531C587.551 100.083 587.869 100.148 588.171 100.148C588.53 100.148 588.843 100.083 589.108 99.9531C589.374 99.8229 589.58 99.6094 589.726 99.3125C589.871 99.0208 589.944 98.6302 589.944 98.1406V91.4062L590.077 89.5469ZM585.218 94.1797V93.3906C585.218 92.6927 585.283 92.0938 585.413 91.5938C585.543 91.0885 585.731 90.6745 585.976 90.3516C586.226 90.0234 586.525 89.7812 586.874 89.625C587.223 89.4688 587.614 89.3906 588.046 89.3906C588.483 89.3906 588.861 89.4792 589.179 89.6562C589.496 89.8333 589.759 90.0911 589.968 90.4297C590.181 90.763 590.348 91.1693 590.468 91.6484C590.593 92.1224 590.679 92.6589 590.726 93.2578V94.3125C590.679 94.9062 590.593 95.4401 590.468 95.9141C590.348 96.388 590.179 96.7917 589.96 97.125C589.746 97.4583 589.481 97.7135 589.163 97.8906C588.845 98.0677 588.468 98.1562 588.03 98.1562C587.603 98.1562 587.218 98.0755 586.874 97.9141C586.53 97.7474 586.233 97.5 585.983 97.1719C585.739 96.8385 585.549 96.4245 585.413 95.9297C585.283 95.4297 585.218 94.8464 585.218 94.1797ZM586.601 93.3906V94.1797C586.601 94.6484 586.634 95.0573 586.702 95.4062C586.77 95.75 586.874 96.0365 587.015 96.2656C587.161 96.4896 587.345 96.6562 587.569 96.7656C587.799 96.875 588.072 96.9297 588.39 96.9297C588.775 96.9297 589.09 96.8359 589.335 96.6484C589.58 96.4609 589.775 96.2135 589.921 95.9062C590.072 95.5938 590.192 95.2578 590.28 94.8984V92.6797C590.228 92.4141 590.153 92.1589 590.054 91.9141C589.96 91.6641 589.838 91.4427 589.687 91.25C589.536 91.0521 589.353 90.8958 589.14 90.7812C588.931 90.6667 588.687 90.6094 588.405 90.6094C588.088 90.6094 587.814 90.6667 587.585 90.7812C587.356 90.8958 587.168 91.0677 587.022 91.2969C586.877 91.526 586.77 91.8151 586.702 92.1641C586.634 92.513 586.601 92.9219 586.601 93.3906Z" fill="#242429"/>
<rect x="513.5" y="67.5" width="111" height="50" rx="3.5" stroke="#242429"/>
<path d="M181.578 153.625H183.016V161.633C183.016 162.487 182.852 163.172 182.523 163.688C182.195 164.203 181.763 164.578 181.227 164.812C180.695 165.042 180.122 165.156 179.508 165.156C178.852 165.156 178.26 165.042 177.734 164.812C177.208 164.578 176.789 164.203 176.477 163.688C176.169 163.172 176.016 162.487 176.016 161.633V153.625H177.445V161.633C177.445 162.227 177.529 162.69 177.695 163.023C177.867 163.357 178.107 163.591 178.414 163.727C178.727 163.862 179.091 163.93 179.508 163.93C179.93 163.93 180.294 163.862 180.602 163.727C180.914 163.591 181.154 163.357 181.32 163.023C181.492 162.69 181.578 162.227 181.578 161.633V153.625ZM189.285 162.836C189.285 162.622 189.233 162.435 189.129 162.273C189.025 162.112 188.853 161.956 188.613 161.805C188.379 161.654 188.061 161.492 187.66 161.32C187.269 161.159 186.918 161 186.605 160.844C186.298 160.682 186.038 160.508 185.824 160.32C185.611 160.133 185.446 159.917 185.332 159.672C185.222 159.422 185.168 159.128 185.168 158.789C185.168 158.451 185.23 158.138 185.355 157.852C185.486 157.56 185.668 157.305 185.902 157.086C186.137 156.867 186.418 156.698 186.746 156.578C187.074 156.453 187.441 156.391 187.847 156.391C188.426 156.391 188.918 156.503 189.324 156.727C189.73 156.951 190.04 157.258 190.254 157.648C190.472 158.034 190.582 158.469 190.582 158.953H189.207C189.207 158.719 189.155 158.497 189.051 158.289C188.946 158.081 188.793 157.911 188.59 157.781C188.387 157.646 188.139 157.578 187.847 157.578C187.54 157.578 187.29 157.633 187.097 157.742C186.905 157.852 186.764 157.995 186.676 158.172C186.592 158.344 186.551 158.534 186.551 158.742C186.551 158.898 186.571 159.034 186.613 159.148C186.66 159.258 186.738 159.362 186.847 159.461C186.957 159.555 187.105 159.654 187.293 159.758C187.486 159.857 187.73 159.971 188.027 160.102C188.6 160.326 189.082 160.552 189.472 160.781C189.863 161.01 190.16 161.279 190.363 161.586C190.566 161.893 190.668 162.273 190.668 162.727C190.668 163.096 190.6 163.432 190.465 163.734C190.334 164.031 190.147 164.286 189.902 164.5C189.657 164.714 189.363 164.878 189.019 164.992C188.681 165.102 188.301 165.156 187.879 165.156C187.243 165.156 186.704 165.031 186.262 164.781C185.824 164.526 185.491 164.195 185.262 163.789C185.038 163.378 184.926 162.938 184.926 162.469H186.308C186.324 162.865 186.413 163.172 186.574 163.391C186.741 163.609 186.941 163.76 187.176 163.844C187.41 163.927 187.644 163.969 187.879 163.969C188.186 163.969 188.444 163.924 188.652 163.836C188.861 163.742 189.017 163.609 189.121 163.438C189.23 163.266 189.285 163.065 189.285 162.836ZM195.664 165.156C195.159 165.156 194.703 165.081 194.297 164.93C193.89 164.779 193.544 164.549 193.257 164.242C192.971 163.93 192.752 163.536 192.601 163.062C192.45 162.589 192.375 162.029 192.375 161.383V160.43C192.375 159.685 192.461 159.055 192.632 158.539C192.81 158.023 193.047 157.609 193.343 157.297C193.64 156.979 193.976 156.75 194.351 156.609C194.726 156.464 195.112 156.391 195.507 156.391C196.039 156.391 196.492 156.477 196.867 156.648C197.242 156.82 197.547 157.076 197.781 157.414C198.015 157.753 198.187 158.169 198.297 158.664C198.411 159.159 198.468 159.729 198.468 160.375V161.18H193.187V160H197.086V159.805C197.065 159.367 197.005 158.982 196.906 158.648C196.812 158.315 196.656 158.055 196.437 157.867C196.218 157.674 195.909 157.578 195.507 157.578C195.252 157.578 195.015 157.622 194.797 157.711C194.583 157.794 194.398 157.943 194.242 158.156C194.091 158.365 193.971 158.654 193.882 159.023C193.799 159.393 193.757 159.862 193.757 160.43V161.383C193.757 161.836 193.799 162.227 193.882 162.555C193.971 162.878 194.099 163.146 194.265 163.359C194.437 163.568 194.646 163.724 194.89 163.828C195.14 163.927 195.424 163.977 195.742 163.977C196.205 163.977 196.588 163.888 196.89 163.711C197.192 163.529 197.455 163.297 197.679 163.016L198.406 163.883C198.255 164.096 198.057 164.302 197.812 164.5C197.573 164.693 197.276 164.852 196.922 164.977C196.573 165.096 196.153 165.156 195.664 165.156ZM201.683 157.875V165H200.3V156.547H201.636L201.683 157.875ZM203.785 156.5L203.792 157.844C203.678 157.818 203.574 157.802 203.48 157.797C203.391 157.786 203.287 157.781 203.167 157.781C202.907 157.781 202.678 157.833 202.48 157.938C202.287 158.042 202.121 158.188 201.98 158.375C201.839 158.562 201.727 158.786 201.644 159.047C201.561 159.302 201.503 159.583 201.472 159.891L201.113 160.125C201.113 159.615 201.152 159.135 201.23 158.688C201.313 158.24 201.441 157.844 201.613 157.5C201.785 157.151 202.003 156.88 202.269 156.688C202.54 156.49 202.863 156.391 203.238 156.391C203.321 156.391 203.423 156.404 203.542 156.43C203.667 156.451 203.748 156.474 203.785 156.5ZM209.362 153.625H212.542C213.282 153.625 213.902 153.755 214.402 154.016C214.907 154.276 215.287 154.661 215.542 155.172C215.803 155.677 215.933 156.299 215.933 157.039C215.933 157.56 215.847 158.036 215.675 158.469C215.503 158.896 215.253 159.26 214.925 159.562C214.597 159.859 214.198 160.081 213.73 160.227L213.339 160.391H210.503L210.487 159.164H212.527C212.964 159.164 213.329 159.07 213.62 158.883C213.912 158.69 214.131 158.432 214.277 158.109C214.422 157.786 214.495 157.43 214.495 157.039C214.495 156.602 214.43 156.219 214.3 155.891C214.17 155.562 213.961 155.31 213.675 155.133C213.394 154.951 213.016 154.859 212.542 154.859H210.8V165H209.362V153.625ZM214.823 165L212.558 159.844L214.05 159.836L216.362 164.906V165H214.823ZM220.851 165.156C220.345 165.156 219.89 165.081 219.483 164.93C219.077 164.779 218.731 164.549 218.444 164.242C218.158 163.93 217.939 163.536 217.788 163.062C217.637 162.589 217.562 162.029 217.562 161.383V160.43C217.562 159.685 217.647 159.055 217.819 158.539C217.996 158.023 218.233 157.609 218.53 157.297C218.827 156.979 219.163 156.75 219.538 156.609C219.913 156.464 220.299 156.391 220.694 156.391C221.226 156.391 221.679 156.477 222.054 156.648C222.429 156.82 222.733 157.076 222.968 157.414C223.202 157.753 223.374 158.169 223.483 158.664C223.598 159.159 223.655 159.729 223.655 160.375V161.18H218.374V160H222.272V159.805C222.252 159.367 222.192 158.982 222.093 158.648C221.999 158.315 221.843 158.055 221.624 157.867C221.405 157.674 221.095 157.578 220.694 157.578C220.439 157.578 220.202 157.622 219.983 157.711C219.77 157.794 219.585 157.943 219.429 158.156C219.278 158.365 219.158 158.654 219.069 159.023C218.986 159.393 218.944 159.862 218.944 160.43V161.383C218.944 161.836 218.986 162.227 219.069 162.555C219.158 162.878 219.286 163.146 219.452 163.359C219.624 163.568 219.832 163.724 220.077 163.828C220.327 163.927 220.611 163.977 220.929 163.977C221.392 163.977 221.775 163.888 222.077 163.711C222.379 163.529 222.642 163.297 222.866 163.016L223.593 163.883C223.442 164.096 223.244 164.302 222.999 164.5C222.759 164.693 222.463 164.852 222.108 164.977C221.759 165.096 221.34 165.156 220.851 165.156ZM229.589 162.836C229.589 162.622 229.537 162.435 229.432 162.273C229.328 162.112 229.156 161.956 228.917 161.805C228.682 161.654 228.365 161.492 227.964 161.32C227.573 161.159 227.222 161 226.909 160.844C226.602 160.682 226.341 160.508 226.128 160.32C225.914 160.133 225.75 159.917 225.636 159.672C225.526 159.422 225.472 159.128 225.472 158.789C225.472 158.451 225.534 158.138 225.659 157.852C225.789 157.56 225.972 157.305 226.206 157.086C226.44 156.867 226.722 156.698 227.05 156.578C227.378 156.453 227.745 156.391 228.151 156.391C228.729 156.391 229.222 156.503 229.628 156.727C230.034 156.951 230.344 157.258 230.557 157.648C230.776 158.034 230.886 158.469 230.886 158.953H229.511C229.511 158.719 229.459 158.497 229.354 158.289C229.25 158.081 229.097 157.911 228.893 157.781C228.69 157.646 228.443 157.578 228.151 157.578C227.844 157.578 227.594 157.633 227.401 157.742C227.209 157.852 227.068 157.995 226.979 158.172C226.896 158.344 226.854 158.534 226.854 158.742C226.854 158.898 226.875 159.034 226.917 159.148C226.964 159.258 227.042 159.362 227.151 159.461C227.261 159.555 227.409 159.654 227.597 159.758C227.789 159.857 228.034 159.971 228.331 160.102C228.904 160.326 229.386 160.552 229.776 160.781C230.167 161.01 230.464 161.279 230.667 161.586C230.87 161.893 230.972 162.273 230.972 162.727C230.972 163.096 230.904 163.432 230.768 163.734C230.638 164.031 230.451 164.286 230.206 164.5C229.961 164.714 229.667 164.878 229.323 164.992C228.985 165.102 228.604 165.156 228.182 165.156C227.547 165.156 227.008 165.031 226.565 164.781C226.128 164.526 225.794 164.195 225.565 163.789C225.341 163.378 225.229 162.938 225.229 162.469H226.612C226.628 162.865 226.716 163.172 226.878 163.391C227.044 163.609 227.245 163.76 227.479 163.844C227.714 163.927 227.948 163.969 228.182 163.969C228.49 163.969 228.748 163.924 228.956 163.836C229.164 163.742 229.321 163.609 229.425 163.438C229.534 163.266 229.589 163.065 229.589 162.836ZM235.967 165.156C235.462 165.156 235.007 165.081 234.6 164.93C234.194 164.779 233.848 164.549 233.561 164.242C233.275 163.93 233.056 163.536 232.905 163.062C232.754 162.589 232.678 162.029 232.678 161.383V160.43C232.678 159.685 232.764 159.055 232.936 158.539C233.113 158.023 233.35 157.609 233.647 157.297C233.944 156.979 234.28 156.75 234.655 156.609C235.03 156.464 235.415 156.391 235.811 156.391C236.342 156.391 236.796 156.477 237.171 156.648C237.546 156.82 237.85 157.076 238.085 157.414C238.319 157.753 238.491 158.169 238.6 158.664C238.715 159.159 238.772 159.729 238.772 160.375V161.18H233.491V160H237.389V159.805C237.369 159.367 237.309 158.982 237.21 158.648C237.116 158.315 236.96 158.055 236.741 157.867C236.522 157.674 236.212 157.578 235.811 157.578C235.556 157.578 235.319 157.622 235.1 157.711C234.887 157.794 234.702 157.943 234.546 158.156C234.395 158.365 234.275 158.654 234.186 159.023C234.103 159.393 234.061 159.862 234.061 160.43V161.383C234.061 161.836 234.103 162.227 234.186 162.555C234.275 162.878 234.402 163.146 234.569 163.359C234.741 163.568 234.949 163.724 235.194 163.828C235.444 163.927 235.728 163.977 236.046 163.977C236.509 163.977 236.892 163.888 237.194 163.711C237.496 163.529 237.759 163.297 237.983 163.016L238.71 163.883C238.559 164.096 238.361 164.302 238.116 164.5C237.876 164.693 237.579 164.852 237.225 164.977C236.876 165.096 236.457 165.156 235.967 165.156ZM244.745 163.555V158.969C244.745 158.635 244.693 158.367 244.588 158.164C244.489 157.961 244.338 157.812 244.135 157.719C243.937 157.625 243.687 157.578 243.385 157.578C243.094 157.578 242.841 157.638 242.628 157.758C242.419 157.878 242.258 158.036 242.143 158.234C242.034 158.432 241.979 158.651 241.979 158.891H240.596C240.596 158.589 240.661 158.289 240.792 157.992C240.927 157.695 241.12 157.427 241.37 157.188C241.62 156.943 241.919 156.75 242.268 156.609C242.622 156.464 243.018 156.391 243.456 156.391C243.976 156.391 244.437 156.477 244.838 156.648C245.239 156.815 245.555 157.089 245.784 157.469C246.013 157.849 246.128 158.354 246.128 158.984V163.156C246.128 163.438 246.148 163.737 246.19 164.055C246.237 164.372 246.302 164.646 246.385 164.875V165H244.956C244.888 164.833 244.836 164.612 244.799 164.336C244.763 164.055 244.745 163.794 244.745 163.555ZM244.963 159.875L244.979 160.891H244.018C243.69 160.891 243.391 160.927 243.12 161C242.854 161.073 242.625 161.18 242.432 161.32C242.239 161.456 242.091 161.625 241.987 161.828C241.888 162.031 241.838 162.263 241.838 162.523C241.838 162.862 241.885 163.133 241.979 163.336C242.073 163.534 242.213 163.677 242.401 163.766C242.588 163.854 242.825 163.898 243.112 163.898C243.461 163.898 243.768 163.818 244.034 163.656C244.299 163.495 244.505 163.299 244.651 163.07C244.802 162.841 244.872 162.628 244.862 162.43L245.167 163.078C245.146 163.281 245.078 163.503 244.963 163.742C244.854 163.977 244.7 164.203 244.503 164.422C244.305 164.635 244.07 164.812 243.799 164.953C243.534 165.089 243.234 165.156 242.901 165.156C242.411 165.156 241.982 165.062 241.612 164.875C241.247 164.688 240.963 164.411 240.76 164.047C240.557 163.682 240.456 163.232 240.456 162.695C240.456 162.289 240.526 161.914 240.667 161.57C240.807 161.227 241.016 160.93 241.292 160.68C241.568 160.424 241.914 160.227 242.331 160.086C242.753 159.945 243.239 159.875 243.792 159.875H244.963ZM249.819 157.875V165H248.436V156.547H249.772L249.819 157.875ZM251.92 156.5L251.928 157.844C251.814 157.818 251.709 157.802 251.616 157.797C251.527 157.786 251.423 157.781 251.303 157.781C251.043 157.781 250.814 157.833 250.616 157.938C250.423 158.042 250.256 158.188 250.116 158.375C249.975 158.562 249.863 158.786 249.78 159.047C249.696 159.302 249.639 159.583 249.608 159.891L249.248 160.125C249.248 159.615 249.287 159.135 249.366 158.688C249.449 158.24 249.577 157.844 249.748 157.5C249.92 157.151 250.139 156.88 250.405 156.688C250.676 156.49 250.998 156.391 251.373 156.391C251.457 156.391 251.558 156.404 251.678 156.43C251.803 156.451 251.884 156.474 251.92 156.5ZM256.244 163.977C256.52 163.977 256.77 163.922 256.994 163.812C257.224 163.698 257.411 163.521 257.557 163.281C257.703 163.036 257.786 162.719 257.807 162.328H259.104C259.083 162.891 258.94 163.385 258.674 163.812C258.414 164.234 258.07 164.565 257.643 164.805C257.221 165.039 256.755 165.156 256.244 165.156C255.698 165.156 255.221 165.068 254.815 164.891C254.414 164.714 254.08 164.458 253.815 164.125C253.554 163.786 253.359 163.378 253.229 162.898C253.099 162.414 253.033 161.865 253.033 161.25V160.297C253.033 159.682 253.099 159.135 253.229 158.656C253.359 158.172 253.554 157.763 253.815 157.43C254.08 157.091 254.414 156.833 254.815 156.656C255.221 156.479 255.698 156.391 256.244 156.391C256.817 156.391 257.312 156.513 257.729 156.758C258.151 156.997 258.479 157.346 258.713 157.805C258.953 158.258 259.083 158.807 259.104 159.453H257.807C257.786 159.036 257.711 158.69 257.58 158.414C257.45 158.133 257.273 157.924 257.049 157.789C256.825 157.648 256.557 157.578 256.244 157.578C255.88 157.578 255.578 157.643 255.338 157.773C255.104 157.898 254.919 158.081 254.783 158.32C254.648 158.56 254.552 158.846 254.494 159.18C254.442 159.513 254.416 159.885 254.416 160.297V161.25C254.416 161.661 254.442 162.036 254.494 162.375C254.552 162.708 254.645 162.995 254.776 163.234C254.911 163.474 255.099 163.659 255.338 163.789C255.578 163.914 255.88 163.977 256.244 163.977ZM262.248 153V165H260.865V153H262.248ZM261.912 160.453L261.35 160.43C261.344 159.852 261.41 159.318 261.545 158.828C261.686 158.333 261.884 157.904 262.139 157.539C262.399 157.174 262.709 156.893 263.068 156.695C263.428 156.492 263.826 156.391 264.264 156.391C264.607 156.391 264.92 156.448 265.201 156.562C265.482 156.672 265.722 156.849 265.92 157.094C266.118 157.339 266.269 157.656 266.373 158.047C266.482 158.432 266.537 158.904 266.537 159.461V165H265.154V159.445C265.154 159.003 265.105 158.648 265.006 158.383C264.912 158.112 264.766 157.917 264.568 157.797C264.376 157.672 264.131 157.609 263.834 157.609C263.563 157.609 263.311 157.685 263.076 157.836C262.842 157.987 262.636 158.195 262.459 158.461C262.287 158.727 262.152 159.031 262.053 159.375C261.959 159.714 261.912 160.073 261.912 160.453Z" fill="#242429"/>
<rect x="143.5" y="134.5" width="481" height="50" rx="3.5" stroke="#242429"/>
<path d="M323.805 232H321.867L321.883 230.773H323.805C324.487 230.773 325.042 230.643 325.469 230.383C325.896 230.117 326.211 229.727 326.414 229.211C326.617 228.69 326.719 228.047 326.719 227.281V225.336C326.719 224.732 326.661 224.211 326.547 223.773C326.432 223.336 326.26 222.977 326.031 222.695C325.802 222.414 325.513 222.206 325.164 222.07C324.815 221.93 324.406 221.859 323.938 221.859H321.828V220.625H323.938C324.578 220.625 325.156 220.727 325.672 220.93C326.188 221.128 326.63 221.427 327 221.828C327.37 222.224 327.651 222.716 327.844 223.305C328.042 223.893 328.141 224.576 328.141 225.352V227.281C328.141 228.057 328.042 228.74 327.844 229.328C327.651 229.917 327.367 230.409 326.992 230.805C326.617 231.201 326.161 231.5 325.625 231.703C325.094 231.901 324.487 232 323.805 232ZM322.664 220.625V232H321.227V220.625H322.664ZM333.363 232.156C332.858 232.156 332.402 232.081 331.996 231.93C331.59 231.779 331.243 231.549 330.957 231.242C330.67 230.93 330.452 230.536 330.301 230.062C330.15 229.589 330.074 229.029 330.074 228.383V227.43C330.074 226.685 330.16 226.055 330.332 225.539C330.509 225.023 330.746 224.609 331.043 224.297C331.34 223.979 331.676 223.75 332.051 223.609C332.426 223.464 332.811 223.391 333.207 223.391C333.738 223.391 334.191 223.477 334.566 223.648C334.941 223.82 335.246 224.076 335.48 224.414C335.715 224.753 335.887 225.169 335.996 225.664C336.111 226.159 336.168 226.729 336.168 227.375V228.18H330.887V227H334.785V226.805C334.764 226.367 334.704 225.982 334.605 225.648C334.512 225.315 334.355 225.055 334.137 224.867C333.918 224.674 333.608 224.578 333.207 224.578C332.952 224.578 332.715 224.622 332.496 224.711C332.282 224.794 332.097 224.943 331.941 225.156C331.79 225.365 331.67 225.654 331.582 226.023C331.499 226.393 331.457 226.862 331.457 227.43V228.383C331.457 228.836 331.499 229.227 331.582 229.555C331.67 229.878 331.798 230.146 331.965 230.359C332.137 230.568 332.345 230.724 332.59 230.828C332.84 230.927 333.124 230.977 333.441 230.977C333.905 230.977 334.288 230.888 334.59 230.711C334.892 230.529 335.155 230.297 335.379 230.016L336.105 230.883C335.954 231.096 335.756 231.302 335.512 231.5C335.272 231.693 334.975 231.852 334.621 231.977C334.272 232.096 333.853 232.156 333.363 232.156ZM342.101 229.836C342.101 229.622 342.049 229.435 341.945 229.273C341.841 229.112 341.669 228.956 341.429 228.805C341.195 228.654 340.877 228.492 340.476 228.32C340.086 228.159 339.734 228 339.422 227.844C339.114 227.682 338.854 227.508 338.64 227.32C338.427 227.133 338.263 226.917 338.148 226.672C338.039 226.422 337.984 226.128 337.984 225.789C337.984 225.451 338.047 225.138 338.172 224.852C338.302 224.56 338.484 224.305 338.718 224.086C338.953 223.867 339.234 223.698 339.562 223.578C339.89 223.453 340.257 223.391 340.664 223.391C341.242 223.391 341.734 223.503 342.14 223.727C342.547 223.951 342.856 224.258 343.07 224.648C343.289 225.034 343.398 225.469 343.398 225.953H342.023C342.023 225.719 341.971 225.497 341.867 225.289C341.763 225.081 341.609 224.911 341.406 224.781C341.203 224.646 340.955 224.578 340.664 224.578C340.356 224.578 340.106 224.633 339.914 224.742C339.721 224.852 339.58 224.995 339.492 225.172C339.409 225.344 339.367 225.534 339.367 225.742C339.367 225.898 339.388 226.034 339.429 226.148C339.476 226.258 339.554 226.362 339.664 226.461C339.773 226.555 339.922 226.654 340.109 226.758C340.302 226.857 340.547 226.971 340.843 227.102C341.416 227.326 341.898 227.552 342.289 227.781C342.679 228.01 342.976 228.279 343.179 228.586C343.382 228.893 343.484 229.273 343.484 229.727C343.484 230.096 343.416 230.432 343.281 230.734C343.151 231.031 342.963 231.286 342.718 231.5C342.474 231.714 342.179 231.878 341.836 231.992C341.497 232.102 341.117 232.156 340.695 232.156C340.06 232.156 339.521 232.031 339.078 231.781C338.64 231.526 338.307 231.195 338.078 230.789C337.854 230.378 337.742 229.938 337.742 229.469H339.125C339.14 229.865 339.229 230.172 339.39 230.391C339.557 230.609 339.757 230.76 339.992 230.844C340.226 230.927 340.461 230.969 340.695 230.969C341.002 230.969 341.26 230.924 341.468 230.836C341.677 230.742 341.833 230.609 341.937 230.438C342.047 230.266 342.101 230.065 342.101 229.836ZM346.941 223.547V232H345.566V223.547H346.941ZM345.488 221.305C345.488 221.07 345.553 220.872 345.683 220.711C345.813 220.549 346.009 220.469 346.269 220.469C346.529 220.469 346.725 220.549 346.855 220.711C346.99 220.872 347.058 221.07 347.058 221.305C347.058 221.529 346.99 221.721 346.855 221.883C346.725 222.039 346.529 222.117 346.269 222.117C346.009 222.117 345.813 222.039 345.683 221.883C345.553 221.721 345.488 221.529 345.488 221.305ZM353.867 223.547H355.109V232.07C355.109 232.815 354.979 233.43 354.718 233.914C354.463 234.398 354.106 234.755 353.648 234.984C353.189 235.219 352.661 235.336 352.062 235.336C351.848 235.336 351.58 235.297 351.257 235.219C350.934 235.141 350.611 235.021 350.288 234.859C349.966 234.703 349.7 234.505 349.492 234.266L350.062 233.305C350.359 233.607 350.674 233.823 351.007 233.953C351.341 234.083 351.658 234.148 351.96 234.148C352.32 234.148 352.632 234.083 352.898 233.953C353.163 233.823 353.369 233.609 353.515 233.312C353.661 233.021 353.734 232.63 353.734 232.141V225.406L353.867 223.547ZM349.007 228.18V227.391C349.007 226.693 349.072 226.094 349.202 225.594C349.333 225.089 349.52 224.674 349.765 224.352C350.015 224.023 350.314 223.781 350.663 223.625C351.012 223.469 351.403 223.391 351.835 223.391C352.273 223.391 352.65 223.479 352.968 223.656C353.286 223.833 353.549 224.091 353.757 224.43C353.971 224.763 354.137 225.169 354.257 225.648C354.382 226.122 354.468 226.659 354.515 227.258V228.312C354.468 228.906 354.382 229.44 354.257 229.914C354.137 230.388 353.968 230.792 353.749 231.125C353.536 231.458 353.27 231.714 352.952 231.891C352.635 232.068 352.257 232.156 351.82 232.156C351.393 232.156 351.007 232.076 350.663 231.914C350.32 231.747 350.023 231.5 349.773 231.172C349.528 230.839 349.338 230.424 349.202 229.93C349.072 229.43 349.007 228.846 349.007 228.18ZM350.39 227.391V228.18C350.39 228.648 350.424 229.057 350.492 229.406C350.559 229.75 350.663 230.036 350.804 230.266C350.95 230.49 351.135 230.656 351.359 230.766C351.588 230.875 351.861 230.93 352.179 230.93C352.564 230.93 352.88 230.836 353.124 230.648C353.369 230.461 353.564 230.214 353.71 229.906C353.861 229.594 353.981 229.258 354.07 228.898V226.68C354.018 226.414 353.942 226.159 353.843 225.914C353.749 225.664 353.627 225.443 353.476 225.25C353.325 225.052 353.143 224.896 352.929 224.781C352.721 224.667 352.476 224.609 352.195 224.609C351.877 224.609 351.604 224.667 351.374 224.781C351.145 224.896 350.958 225.068 350.812 225.297C350.666 225.526 350.559 225.815 350.492 226.164C350.424 226.513 350.39 226.922 350.39 227.391ZM358.722 225.352V232H357.339V223.547H358.644L358.722 225.352ZM358.386 227.453L357.823 227.43C357.818 226.852 357.883 226.318 358.019 225.828C358.159 225.333 358.357 224.904 358.612 224.539C358.873 224.174 359.183 223.893 359.542 223.695C359.902 223.492 360.3 223.391 360.737 223.391C361.081 223.391 361.394 223.448 361.675 223.562C361.956 223.672 362.196 223.849 362.394 224.094C362.592 224.339 362.743 224.656 362.847 225.047C362.956 225.432 363.011 225.904 363.011 226.461V232H361.628V226.445C361.628 226.003 361.579 225.648 361.48 225.383C361.386 225.112 361.24 224.917 361.042 224.797C360.849 224.672 360.605 224.609 360.308 224.609C360.037 224.609 359.784 224.685 359.55 224.836C359.316 224.987 359.11 225.195 358.933 225.461C358.761 225.727 358.626 226.031 358.527 226.375C358.433 226.714 358.386 227.073 358.386 227.453ZM373.182 229.836C373.182 229.622 373.13 229.435 373.026 229.273C372.922 229.112 372.75 228.956 372.511 228.805C372.276 228.654 371.959 228.492 371.557 228.32C371.167 228.159 370.815 228 370.503 227.844C370.196 227.682 369.935 227.508 369.722 227.32C369.508 227.133 369.344 226.917 369.229 226.672C369.12 226.422 369.065 226.128 369.065 225.789C369.065 225.451 369.128 225.138 369.253 224.852C369.383 224.56 369.565 224.305 369.8 224.086C370.034 223.867 370.315 223.698 370.643 223.578C370.972 223.453 371.339 223.391 371.745 223.391C372.323 223.391 372.815 223.503 373.222 223.727C373.628 223.951 373.938 224.258 374.151 224.648C374.37 225.034 374.479 225.469 374.479 225.953H373.104C373.104 225.719 373.052 225.497 372.948 225.289C372.844 225.081 372.69 224.911 372.487 224.781C372.284 224.646 372.037 224.578 371.745 224.578C371.438 224.578 371.188 224.633 370.995 224.742C370.802 224.852 370.662 224.995 370.573 225.172C370.49 225.344 370.448 225.534 370.448 225.742C370.448 225.898 370.469 226.034 370.511 226.148C370.557 226.258 370.636 226.362 370.745 226.461C370.854 226.555 371.003 226.654 371.19 226.758C371.383 226.857 371.628 226.971 371.925 227.102C372.498 227.326 372.979 227.552 373.37 227.781C373.761 228.01 374.057 228.279 374.261 228.586C374.464 228.893 374.565 229.273 374.565 229.727C374.565 230.096 374.498 230.432 374.362 230.734C374.232 231.031 374.044 231.286 373.8 231.5C373.555 231.714 373.261 231.878 372.917 231.992C372.578 232.102 372.198 232.156 371.776 232.156C371.141 232.156 370.602 232.031 370.159 231.781C369.722 231.526 369.388 231.195 369.159 230.789C368.935 230.378 368.823 229.938 368.823 229.469H370.206C370.222 229.865 370.31 230.172 370.472 230.391C370.638 230.609 370.839 230.76 371.073 230.844C371.307 230.927 371.542 230.969 371.776 230.969C372.084 230.969 372.341 230.924 372.55 230.836C372.758 230.742 372.914 230.609 373.018 230.438C373.128 230.266 373.182 230.065 373.182 229.836ZM378.499 231.125L380.382 223.547H381.85L379.061 233.305C378.994 233.513 378.902 233.737 378.788 233.977C378.678 234.221 378.538 234.453 378.366 234.672C378.194 234.891 377.988 235.068 377.749 235.203C377.509 235.344 377.228 235.414 376.905 235.414C376.806 235.414 376.678 235.398 376.522 235.367C376.371 235.336 376.262 235.31 376.194 235.289V234.117C376.225 234.122 376.275 234.128 376.342 234.133C376.41 234.143 376.46 234.148 376.491 234.148C376.762 234.148 376.991 234.104 377.178 234.016C377.371 233.932 377.535 233.789 377.671 233.586C377.806 233.388 377.921 233.115 378.014 232.766L378.499 231.125ZM377.28 223.547L378.96 230.109L379.319 231.633L378.335 232.164L375.772 223.547H377.28ZM387.471 229.836C387.471 229.622 387.419 229.435 387.315 229.273C387.211 229.112 387.039 228.956 386.799 228.805C386.565 228.654 386.247 228.492 385.846 228.32C385.456 228.159 385.104 228 384.792 227.844C384.484 227.682 384.224 227.508 384.01 227.32C383.797 227.133 383.633 226.917 383.518 226.672C383.409 226.422 383.354 226.128 383.354 225.789C383.354 225.451 383.417 225.138 383.542 224.852C383.672 224.56 383.854 224.305 384.088 224.086C384.323 223.867 384.604 223.698 384.932 223.578C385.26 223.453 385.627 223.391 386.034 223.391C386.612 223.391 387.104 223.503 387.51 223.727C387.917 223.951 388.226 224.258 388.44 224.648C388.659 225.034 388.768 225.469 388.768 225.953H387.393C387.393 225.719 387.341 225.497 387.237 225.289C387.133 225.081 386.979 224.911 386.776 224.781C386.573 224.646 386.325 224.578 386.034 224.578C385.726 224.578 385.476 224.633 385.284 224.742C385.091 224.852 384.95 224.995 384.862 225.172C384.779 225.344 384.737 225.534 384.737 225.742C384.737 225.898 384.758 226.034 384.799 226.148C384.846 226.258 384.924 226.362 385.034 226.461C385.143 226.555 385.292 226.654 385.479 226.758C385.672 226.857 385.917 226.971 386.213 227.102C386.786 227.326 387.268 227.552 387.659 227.781C388.049 228.01 388.346 228.279 388.549 228.586C388.752 228.893 388.854 229.273 388.854 229.727C388.854 230.096 388.786 230.432 388.651 230.734C388.521 231.031 388.333 231.286 388.088 231.5C387.844 231.714 387.549 231.878 387.206 231.992C386.867 232.102 386.487 232.156 386.065 232.156C385.43 232.156 384.891 232.031 384.448 231.781C384.01 231.526 383.677 231.195 383.448 230.789C383.224 230.378 383.112 229.938 383.112 229.469H384.495C384.51 229.865 384.599 230.172 384.76 230.391C384.927 230.609 385.127 230.76 385.362 230.844C385.596 230.927 385.831 230.969 386.065 230.969C386.372 230.969 386.63 230.924 386.838 230.836C387.047 230.742 387.203 230.609 387.307 230.438C387.417 230.266 387.471 230.065 387.471 229.836ZM393.912 223.547V224.656H389.967V223.547H393.912ZM391.256 221.492H392.639V229.906C392.639 230.193 392.673 230.409 392.741 230.555C392.814 230.701 392.905 230.797 393.014 230.844C393.123 230.891 393.241 230.914 393.366 230.914C393.459 230.914 393.564 230.904 393.678 230.883C393.793 230.857 393.871 230.836 393.912 230.82L393.905 232C393.811 232.036 393.686 232.07 393.53 232.102C393.373 232.138 393.176 232.156 392.936 232.156C392.639 232.156 392.363 232.086 392.108 231.945C391.853 231.805 391.647 231.57 391.491 231.242C391.334 230.909 391.256 230.461 391.256 229.898V221.492ZM398.744 232.156C398.239 232.156 397.783 232.081 397.377 231.93C396.971 231.779 396.625 231.549 396.338 231.242C396.052 230.93 395.833 230.536 395.682 230.062C395.531 229.589 395.455 229.029 395.455 228.383V227.43C395.455 226.685 395.541 226.055 395.713 225.539C395.89 225.023 396.127 224.609 396.424 224.297C396.721 223.979 397.057 223.75 397.432 223.609C397.807 223.464 398.192 223.391 398.588 223.391C399.119 223.391 399.573 223.477 399.948 223.648C400.323 223.82 400.627 224.076 400.862 224.414C401.096 224.753 401.268 225.169 401.377 225.664C401.492 226.159 401.549 226.729 401.549 227.375V228.18H396.268V227H400.166V226.805C400.145 226.367 400.086 225.982 399.987 225.648C399.893 225.315 399.737 225.055 399.518 224.867C399.299 224.674 398.989 224.578 398.588 224.578C398.333 224.578 398.096 224.622 397.877 224.711C397.664 224.794 397.479 224.943 397.323 225.156C397.171 225.365 397.052 225.654 396.963 226.023C396.88 226.393 396.838 226.862 396.838 227.43V228.383C396.838 228.836 396.88 229.227 396.963 229.555C397.052 229.878 397.179 230.146 397.346 230.359C397.518 230.568 397.726 230.724 397.971 230.828C398.221 230.927 398.505 230.977 398.823 230.977C399.286 230.977 399.669 230.888 399.971 230.711C400.273 230.529 400.536 230.297 400.76 230.016L401.487 230.883C401.336 231.096 401.138 231.302 400.893 231.5C400.653 231.693 400.356 231.852 400.002 231.977C399.653 232.096 399.234 232.156 398.744 232.156ZM404.764 225.227V232H403.389V223.547H404.686L404.764 225.227ZM404.482 227.453L403.842 227.43C403.837 226.852 403.894 226.318 404.014 225.828C404.134 225.333 404.313 224.904 404.553 224.539C404.798 224.174 405.102 223.893 405.467 223.695C405.837 223.492 406.266 223.391 406.756 223.391C407.079 223.391 407.378 223.448 407.654 223.562C407.936 223.672 408.18 223.846 408.389 224.086C408.597 224.326 408.759 224.633 408.873 225.008C408.993 225.383 409.053 225.836 409.053 226.367V232H407.67V226.438C407.67 225.995 407.61 225.641 407.49 225.375C407.376 225.109 407.212 224.917 406.998 224.797C406.785 224.672 406.529 224.609 406.232 224.609C405.894 224.609 405.61 224.685 405.381 224.836C405.157 224.987 404.977 225.195 404.842 225.461C404.712 225.727 404.618 226.031 404.561 226.375C404.509 226.714 404.482 227.073 404.482 227.453ZM409.037 226.656L408.115 226.953C408.11 226.49 408.167 226.044 408.287 225.617C408.407 225.19 408.584 224.81 408.818 224.477C409.058 224.143 409.355 223.88 409.709 223.688C410.063 223.49 410.475 223.391 410.943 223.391C411.329 223.391 411.67 223.451 411.967 223.57C412.264 223.69 412.514 223.875 412.717 224.125C412.925 224.37 413.081 224.685 413.186 225.07C413.29 225.456 413.342 225.914 413.342 226.445V232H411.959V226.43C411.959 225.956 411.899 225.589 411.779 225.328C411.665 225.062 411.501 224.878 411.287 224.773C411.074 224.664 410.818 224.609 410.522 224.609C410.282 224.609 410.068 224.664 409.881 224.773C409.699 224.883 409.545 225.034 409.42 225.227C409.295 225.414 409.199 225.63 409.131 225.875C409.068 226.12 409.037 226.38 409.037 226.656Z" fill="#242429"/>
<rect x="288.5" y="201.5" width="336" height="50" rx="3.5" stroke="#242429"/>
</svg>
