
<svg width="48" height="48" viewBox="0 0 48 48" fill="none" xmlns="http://www.w3.org/2000/svg">
<path class='e' d="M30 13.5C30.8284 13.5 31.5 12.8284 31.5 12C31.5 11.1716 30.8284 10.5 30 10.5C29.1716 10.5 28.5 11.1716 28.5 12C28.5 12.8284 29.1716 13.5 30 13.5Z" fill="#161616"/>
<path class='e' d="M34.5 13.5C35.3284 13.5 36 12.8284 36 12C36 11.1716 35.3284 10.5 34.5 10.5C33.6716 10.5 33 11.1716 33 12C33 12.8284 33.6716 13.5 34.5 13.5Z" fill="#161616"/>
<path d="M39 13.5C39.8284 13.5 40.5 12.8284 40.5 12C40.5 11.1716 39.8284 10.5 39 10.5C38.1716 10.5 37.5 11.1716 37.5 12C37.5 12.8284 38.1716 13.5 39 13.5Z" fill="#161616"/>
<path d="M42 6H6C5.20463 6.00091 4.4421 6.31728 3.87969 6.87969C3.31728 7.4421 3.00091 8.20463 3 9V39C3.00091 39.7954 3.31728 40.5579 3.87969 41.1203C4.4421 41.6827 5.20463 41.9991 6 42H42C42.7954 41.9991 43.5579 41.6827 44.1203 41.1203C44.6827 40.5579 44.9991 39.7954 45 39V9C44.9991 8.20463 44.6827 7.4421 44.1203 6.87969C43.5579 6.31728 42.7954 6.00091 42 6ZM42 9V15H6V9H42ZM6 18H15V39H6V18ZM18 39V18H42V39H18Z" fill="#161616"/>
</svg>
